<svg enable-background="new 0 0 677.72 223.33" viewBox="0 0 677.72 223.33" xmlns="http://www.w3.org/2000/svg"><path d="m84.38.03h-84.38v223.3h84.38c70.19 0 112.75-43.65 112.75-111.66s-42.56-111.64-112.75-111.64zm-2.9 172.77h-24v-122.6h24c37.08 0 57.81 23.64 57.81 61.47 0 37.46-20.73 61.1-57.81 61.1zm317.31-96.77c0-48.74-33.12-76-81.12-76h-100.41v223.3h57.85v-73.83h20.37l46.52 73.83h64.74l-52.39-80c27.32-10.2 44.44-33.48 44.44-67.3zm-87.31 26.92h-36.37v-53.85h36.37c20.73 0 30.17 10.55 30.17 26.92s-9.44 26.92-30.17 26.93zm248.65-102.92h-56.13l58.8 222.9h56.09zm-155.67 0 58.79 222.9h56.09l-58.79-222.9z" fill="#182742"/><path d="m677.72 0h-67.26l33.63 127.5z" fill="#00d4c1"/></svg>