<?xml version="1.0" encoding="UTF-8"?>
<svg xmlns="http://www.w3.org/2000/svg" xmlns:xlink="http://www.w3.org/1999/xlink" width="724.48pt" height="166.45pt" viewBox="0 0 724.48 166.45" version="1.1">
<g id="surface1">
<path style=" stroke:none;fill-rule:nonzero;fill:rgb(80.000305%,88.235474%,21.960449%);fill-opacity:1;" d="M 151.472656 119.238281 C 151.523438 112.496094 151.007812 106.882812 149.855469 101.65625 C 149.652344 100.738281 149.386719 99.867188 149.089844 99.019531 C 147.367188 94.09375 144.105469 90.417969 139.605469 88.28125 C 138.183594 87.597656 136.644531 87.042969 134.976562 86.679688 C 134.167969 86.511719 133.320312 86.335938 132.464844 86.160156 C 129.332031 85.527344 125.902344 84.917969 122.433594 84.605469 C 113.699219 83.832031 104.96875 83.929688 96.523438 84.363281 C 95.851562 84.398438 95.199219 84.445312 94.53125 84.484375 C 90.539062 84.707031 86.601562 84.980469 82.773438 85.28125 C 80.414062 85.46875 77.960938 86.253906 75.890625 87.464844 C 75.484375 87.707031 75.109375 87.976562 74.753906 88.257812 C 73.875 89.371094 73.285156 90.640625 73.039062 91.984375 C 72.847656 93.015625 72.835938 94.078125 73.070312 95.144531 C 73.621094 97.683594 75.320312 99.804688 77.855469 101.140625 C 79.304688 101.890625 80.933594 102.421875 82.6875 102.6875 C 83.605469 102.785156 85.648438 103.011719 88.15625 103.335938 C 88.15625 103.335938 88.179688 103.339844 88.210938 103.34375 C 88.238281 103.34375 88.257812 103.347656 88.28125 103.351562 C 88.285156 103.351562 88.289062 103.351562 88.292969 103.351562 C 88.433594 103.371094 88.589844 103.390625 88.734375 103.410156 C 91.769531 103.824219 106.121094 106.023438 114.597656 111.546875 C 115.722656 112.347656 116.839844 113.230469 117.921875 114.210938 C 118.15625 114.449219 118.386719 114.671875 118.613281 114.875 C 119.015625 115.261719 119.421875 115.644531 119.816406 116.058594 C 120.246094 116.511719 120.652344 117.015625 121.066406 117.5 C 122.03125 118.632812 122.972656 119.828125 123.835938 121.160156 C 124.0625 121.515625 124.28125 121.886719 124.503906 122.253906 C 124.886719 122.9375 125.945312 124.945312 126.933594 127.878906 C 127.335938 129.21875 127.820312 130.976562 128.300781 133.042969 C 128.300781 133.046875 128.300781 133.046875 128.300781 133.046875 C 128.300781 133.054688 128.300781 133.058594 128.304688 133.0625 C 129.023438 136.164062 129.722656 139.957031 130.085938 144.03125 C 130.136719 144.734375 130.1875 145.4375 130.242188 146.148438 C 130.246094 146.25 130.257812 146.351562 130.265625 146.453125 L 130.265625 146.457031 C 130.363281 147.730469 130.476562 149.019531 130.59375 150.308594 C 130.621094 150.589844 130.640625 150.867188 130.667969 151.148438 C 130.722656 151.671875 130.769531 152.195312 130.820312 152.722656 C 130.84375 152.980469 130.863281 153.242188 130.894531 153.503906 C 130.910156 153.628906 130.949219 153.738281 130.96875 153.867188 C 131.433594 157.128906 132.847656 159.457031 134.636719 160.976562 C 136.191406 162.292969 138.027344 163.003906 139.804688 163.085938 L 139.804688 163.09375 C 140.039062 163.101562 140.277344 163.101562 140.511719 163.09375 C 141.042969 163.070312 141.566406 162.988281 142.078125 162.875 C 143.445312 162.566406 144.722656 161.902344 145.859375 160.960938 C 145.902344 160.90625 145.957031 160.867188 146 160.808594 C 147.175781 159.269531 147.996094 157.40625 148.390625 155.328125 C 148.484375 154.9375 148.554688 154.542969 148.605469 154.113281 L 148.996094 150.339844 C 149.457031 145.976562 149.921875 141.597656 150.375 137.226562 C 150.464844 136.371094 150.550781 135.5 150.640625 134.644531 C 150.644531 134.628906 150.644531 134.613281 150.644531 134.597656 C 150.738281 134.015625 150.871094 133.054688 151.003906 130.992188 L 151.03125 130.644531 C 151.074219 130.335938 151.097656 130.023438 151.085938 129.714844 C 151.222656 127.417969 151.328125 124.800781 151.398438 123.097656 L 151.492188 119.257812 L 151.472656 119.238281 "/>
<path style=" stroke:none;fill-rule:nonzero;fill:rgb(18.03894%,18.431091%,20.783997%);fill-opacity:1;" d="M 614.816406 3.695312 L 614.816406 35.886719 L 652.6875 35.886719 L 652.6875 164.207031 L 686.605469 164.207031 L 686.605469 35.886719 L 724.480469 35.886719 L 724.480469 3.695312 L 614.816406 3.695312 "/>
<path style=" stroke:none;fill-rule:nonzero;fill:rgb(18.03894%,18.431091%,20.783997%);fill-opacity:1;" d="M 598.773438 35.886719 L 598.761719 3.695312 L 489.285156 3.695312 L 489.285156 164.207031 L 523.214844 164.207031 L 523.214844 101.460938 L 590.757812 101.460938 L 590.757812 69.496094 L 523.214844 69.496094 L 523.214844 35.886719 L 598.773438 35.886719 "/>
<path style=" stroke:none;fill-rule:nonzero;fill:rgb(18.03894%,18.431091%,20.783997%);fill-opacity:1;" d="M 424.265625 119.117188 C 414.605469 129.121094 403.058594 133.992188 388.976562 133.992188 C 374.90625 133.992188 363.367188 129.121094 353.695312 119.109375 C 343.992188 109.070312 339.273438 97.222656 339.273438 82.867188 C 339.273438 68.515625 343.992188 56.660156 353.695312 46.617188 C 363.367188 36.605469 374.910156 31.742188 388.976562 31.742188 C 403.050781 31.742188 414.59375 36.605469 424.265625 46.605469 C 433.96875 56.660156 438.6875 68.523438 438.6875 82.867188 C 438.6875 97.214844 433.96875 109.070312 424.265625 119.117188 Z M 388.976562 0.00390625 C 365.316406 0.00390625 345.148438 7.976562 329.035156 23.714844 C 312.882812 39.484375 304.691406 59.382812 304.691406 82.867188 C 304.691406 106.351562 312.882812 126.25 329.035156 142.019531 C 345.148438 157.75 365.3125 165.730469 388.976562 165.730469 C 412.644531 165.730469 432.816406 157.75 448.933594 142.019531 C 465.078125 126.242188 473.269531 106.34375 473.269531 82.867188 C 473.269531 59.382812 465.078125 39.484375 448.933594 23.714844 C 432.816406 7.976562 412.644531 0.00390625 388.976562 0.00390625 "/>
<path style=" stroke:none;fill-rule:nonzero;fill:rgb(18.03894%,18.431091%,20.783997%);fill-opacity:1;" d="M 277.605469 83.78125 C 269.230469 76.558594 256.773438 70.910156 240.601562 66.996094 C 221.851562 62.460938 214.34375 59.074219 211.339844 57.027344 C 207.652344 54.523438 205.941406 51.101562 205.941406 46.265625 C 205.941406 41.480469 207.621094 38.183594 211.226562 35.894531 C 215.332031 33.277344 220.78125 31.964844 227.433594 31.964844 C 234.421875 31.964844 241.644531 33.210938 248.875 35.667969 C 256.011719 38.085938 261.683594 41.179688 265.746094 44.84375 L 269.175781 47.949219 L 287.773438 21.679688 L 284.855469 19.25 C 277.527344 13.136719 268.722656 8.347656 258.6875 5.003906 C 248.726562 1.679688 238.535156 0.00390625 228.414062 0.00390625 C 212.472656 0.00390625 198.859375 4.117188 187.9375 12.242188 C 176.652344 20.65625 170.921875 32.71875 170.921875 48.117188 C 170.921875 63.496094 176.019531 75.15625 185.960938 82.683594 C 190.769531 86.570312 196.335938 89.753906 202.523438 92.140625 C 208.480469 94.457031 217.230469 97 228.542969 99.710938 C 239.160156 102.273438 246.636719 105.054688 250.761719 107.996094 C 254.261719 110.503906 255.890625 113.800781 255.890625 118.382812 C 255.890625 122.980469 254.109375 126.417969 250.28125 129.21875 C 246.15625 132.238281 240.335938 133.769531 232.984375 133.769531 C 217.519531 133.769531 202.304688 127.367188 187.75 114.734375 L 184.570312 111.976562 L 163.238281 137.648438 L 166.203125 140.296875 C 185.328125 157.320312 207.578125 165.949219 232.332031 165.949219 C 249.507812 165.949219 263.648438 161.460938 274.378906 152.589844 C 285.355469 143.535156 290.90625 131.585938 290.90625 117.066406 C 290.90625 102.597656 286.4375 91.402344 277.605469 83.78125 "/>
<path style=" stroke:none;fill-rule:nonzero;fill:rgb(18.03894%,18.431091%,20.783997%);fill-opacity:1;" d="M 38.058594 63.390625 C 43.433594 48.535156 54.609375 37.8125 69.429688 33.664062 C 70.933594 33.269531 72.488281 32.960938 74.066406 32.6875 C 77.320312 32.058594 80.71875 31.742188 84.285156 31.742188 C 84.4375 31.742188 84.585938 31.753906 84.734375 31.753906 C 84.824219 31.753906 84.914062 31.746094 85.003906 31.746094 C 108.269531 31.746094 124.277344 45.753906 124.433594 45.898438 L 126.523438 47.753906 L 134.894531 35.8125 L 143.203125 23.355469 C 132.980469 13.703125 121.175781 7.101562 107.925781 3.597656 C 102.09375 2.054688 95.976562 1.113281 89.589844 0.78125 C 87.855469 0.691406 86.109375 0.632812 84.339844 0.632812 C 60.652344 0.632812 40.464844 8.605469 24.34375 24.359375 C 12.398438 36.019531 4.824219 49.953125 1.675781 65.914062 C 1.554688 66.566406 1.433594 67.214844 1.324219 67.871094 C 1.289062 68.09375 1.238281 68.3125 1.203125 68.53125 C 1.167969 68.742188 1.144531 68.957031 1.113281 69.167969 C 0.984375 69.992188 0.863281 70.820312 0.753906 71.652344 C 0.675781 72.257812 0.609375 72.867188 0.546875 73.480469 C 0.480469 74.082031 0.410156 74.679688 0.359375 75.285156 C 0.128906 77.863281 0 80.480469 0 83.144531 C 0 83.195312 0.00390625 83.25 0.0078125 83.304688 C 0.00390625 83.386719 0 83.464844 0 83.542969 C 0 83.550781 0 83.558594 0 83.566406 C 0 83.570312 0 83.574219 0 83.578125 C 0 84.859375 0.03125 86.132812 0.0859375 87.402344 C 0.382812 94.996094 1.5625 102.199219 3.621094 108.996094 C 7.472656 121.726562 14.390625 133.019531 24.34375 142.746094 C 37.425781 155.515625 53.1875 163.164062 71.324219 165.601562 L 71.304688 165.613281 C 71.304688 165.613281 86.359375 168.230469 102.902344 164.207031 C 104.324219 163.847656 105.867188 163.40625 107.488281 162.875 C 111.875 161.4375 116.835938 159.324219 121.578125 156.214844 C 124.167969 154.519531 126.195312 153.191406 127.851562 152.109375 C 128.082031 141.015625 124.15625 128.710938 124.15625 128.710938 C 123.25 126.039062 122.257812 124.179688 121.972656 123.671875 C 121.792969 123.371094 121.597656 123.042969 121.394531 122.730469 C 121.148438 122.351562 120.882812 121.96875 120.601562 121.582031 C 120.3125 121.832031 119.988281 122.105469 119.644531 122.386719 C 119.210938 122.707031 114.351562 126.28125 109.582031 128.65625 C 104.863281 130.894531 98.824219 132.953125 91.382812 134.027344 C 90.902344 134.101562 90.414062 134.183594 89.949219 134.242188 C 89.253906 134.332031 88.570312 134.402344 87.902344 134.46875 C 87.898438 134.46875 87.894531 134.46875 87.894531 134.46875 C 83.351562 134.890625 79.394531 134.742188 76.164062 134.367188 C 73.84375 134.054688 71.59375 133.625 69.429688 133.058594 C 53.167969 128.5 41.285156 116.039062 36.65625 98.871094 C 36.570312 98.570312 36.492188 98.265625 36.414062 97.960938 C 36.292969 97.492188 36.160156 97.035156 36.050781 96.5625 C 35.464844 93.957031 35.042969 91.246094 34.789062 88.449219 C 34.726562 87.742188 34.695312 87.015625 34.652344 86.296875 C 34.652344 86.25 34.648438 86.207031 34.648438 86.164062 C 34.621094 85.691406 34.589844 85.226562 34.5625 84.757812 C 34.539062 84.292969 34.515625 83.832031 34.507812 83.359375 C 34.519531 82.609375 34.582031 81.878906 34.617188 81.136719 C 34.792969 74.738281 35.925781 68.84375 38.058594 63.390625 "/>
</g>
</svg>
