<svg version="1.1" id="Layer_1" xmlns="http://www.w3.org/2000/svg" xmlns:xlink="http://www.w3.org/1999/xlink" x="0px" y="0px"
	 width="100%" viewBox="0 0 1196 400" enable-background="new 0 0 1196 400" xml:space="preserve">
<path fill="#FFFFFF" opacity="1.000000" stroke="none" 
	d="
M770.000000,401.000000 
	C513.333313,401.000000 257.166656,401.000000 1.000000,401.000000 
	C1.000000,267.666656 1.000000,134.333328 1.000000,1.000000 
	C399.666656,1.000000 798.333313,1.000000 1197.000000,1.000000 
	C1197.000000,134.333328 1197.000000,267.666656 1197.000000,401.000000 
	C1054.833374,401.000000 912.666687,401.000000 770.000000,401.000000 
M201.000000,49.500000 
	C201.000000,62.933067 201.000000,76.366135 201.000000,89.773613 
	C139.947021,91.559258 92.686485,135.873962 90.242661,198.236832 
	C88.470482,243.460373 116.388214,288.015991 160.996948,303.911285 
	C160.996948,288.820831 161.077179,273.874969 160.869766,258.933044 
	C160.849579,257.478149 159.364090,255.597641 158.031708,254.679993 
	C149.989304,249.140976 144.576935,241.391876 140.080643,233.052826 
	C132.583939,219.149063 130.052673,204.186874 133.115509,188.663513 
	C135.013336,179.044769 138.234375,169.751663 145.016846,161.418457 
	C167.699738,188.792603 190.156616,215.893982 212.689331,243.086899 
	C225.494843,237.320175 235.915955,228.935394 243.191925,216.897430 
	C220.899658,189.966629 198.854675,163.334564 176.626663,136.481400 
	C188.605957,131.694458 200.418121,130.957779 212.617767,132.882767 
	C230.293793,135.671844 244.437607,144.218002 255.635498,158.015732 
	C256.685638,159.309662 258.446899,160.848160 259.897644,160.868454 
	C274.842896,161.077347 289.792206,160.996674 305.553436,160.996674 
	C303.160095,156.258072 301.190033,152.087494 298.988251,148.043076 
	C286.566071,125.224869 268.653076,108.482162 244.397079,98.719284 
	C243.355957,98.300240 242.122772,96.714561 242.104630,95.653107 
	C241.931381,85.515305 242.001129,75.373352 242.001129,64.755241 
	C243.673950,65.099609 245.009415,65.133415 246.128189,65.642998 
	C255.042191,69.703148 264.235748,73.285019 272.740875,78.082161 
	C298.923889,92.850143 318.200928,114.200493 330.828278,141.460098 
	C341.809998,165.167023 345.975739,189.937622 343.146484,216.076294 
	C341.311310,233.031006 336.728882,249.015564 329.280273,264.179291 
	C318.853180,285.406586 303.390533,302.488556 284.724976,316.838806 
	C283.359497,317.888611 282.143311,320.089050 282.117493,321.773834 
	C281.908203,335.434296 281.993896,349.099365 282.012238,362.763000 
	C282.013641,363.810425 282.187927,364.857544 282.296051,366.063232 
	C360.279388,329.566162 405.506012,237.358459 377.555878,146.352615 
	C350.945099,59.707836 268.484497,14.182025 201.000000,17.591036 
	C201.000000,27.884771 201.000000,38.192387 201.000000,49.500000 
M242.000000,324.500183 
	C242.000076,318.666565 241.869659,312.827728 242.103226,307.003448 
	C242.153885,305.740509 243.213989,304.028198 244.314651,303.376068 
	C251.935257,298.860901 260.050110,295.097229 267.329956,290.105835 
	C285.494385,277.651428 297.815521,260.463196 305.486298,239.957077 
	C310.132233,227.537064 313.014832,214.747650 311.772736,201.262573 
	C298.055542,201.262573 284.638397,201.262573 271.064789,201.262573 
	C270.239166,220.262100 263.595398,236.814804 250.300247,249.968750 
	C236.904449,263.222290 220.448776,270.435608 200.878708,270.173340 
	C200.878708,294.999756 200.878708,319.432037 200.878708,343.870178 
	C125.390114,341.694794 66.582687,287.285309 59.229527,213.198135 
	C56.190796,182.581223 63.091797,153.357391 79.559120,127.089462 
	C98.880234,96.269302 125.975731,75.061943 160.802795,64.373253 
	C160.802795,49.935219 160.802795,35.693401 160.802795,21.410326 
	C65.617706,42.576374 -0.548679,136.573288 21.235773,239.737885 
	C41.927692,337.728546 138.579803,403.544800 242.000000,380.390137 
	C242.000000,362.132416 242.000000,343.816315 242.000000,324.500183 
M451.003845,270.687134 
	C450.336456,274.850403 449.740967,279.026703 448.988159,283.174469 
	C446.704987,295.753693 444.282806,308.308136 442.071045,320.899689 
	C440.813171,328.060486 439.860535,335.274902 438.724579,342.767761 
	C447.032715,342.767761 454.796753,342.767761 462.841705,342.767761 
	C467.116516,318.871796 471.388794,294.989868 475.661072,271.107971 
	C477.202026,271.982208 477.694244,272.782593 477.988922,273.650085 
	C484.344788,292.362335 490.651703,311.091217 497.025940,329.797180 
	C501.529327,343.013000 501.567444,343.000000 515.665527,343.000000 
	C517.164734,343.000000 518.682617,342.849701 520.159180,343.032745 
	C522.854553,343.366913 524.153442,342.391357 525.062622,339.700531 
	C531.595459,320.365936 538.301331,301.089661 544.999573,281.811279 
	C546.256775,278.192657 547.725952,274.647675 549.097351,271.068695 
	C549.561279,271.157837 550.025208,271.246948 550.489136,271.336090 
	C550.670898,273.209534 550.729797,275.104462 551.053101,276.953156 
	C554.679749,297.689270 558.316467,318.423798 562.072815,339.136597 
	C562.321716,340.509064 563.523865,342.777618 564.351990,342.809204 
	C571.872864,343.095795 579.409241,342.977234 587.024353,342.977234 
	C579.874084,301.530975 572.858887,260.867554 565.808472,220.000000 
	C561.681763,220.000000 557.800110,220.461288 554.069519,219.906693 
	C545.564758,218.642365 539.491394,220.458191 538.311707,230.204025 
	C538.161926,231.441208 537.404602,232.597015 536.988220,233.810928 
	C529.186523,256.555573 521.393738,279.303284 513.599121,302.050354 
	C513.185608,302.104401 512.772095,302.158447 512.358582,302.212494 
	C503.048523,274.848541 493.738403,247.484619 484.440155,220.155548 
	C476.350800,220.155548 468.386230,220.155548 459.976624,220.155548 
	C458.637451,228.681610 457.454468,237.153152 455.943207,245.565720 
	C454.486237,253.676071 452.690277,261.725555 451.003845,270.687134 
M1181.000000,338.371887 
	C1181.000000,298.972626 1181.000000,259.573395 1181.000000,220.332062 
	C1172.282715,220.332062 1164.214355,220.332062 1155.549438,220.332062 
	C1155.549438,246.088440 1155.549438,271.515259 1155.549438,298.336090 
	C1151.806519,292.669647 1148.908813,288.253265 1145.981567,283.856323 
	C1132.467407,263.556610 1118.961670,243.251129 1105.384033,222.993988 
	C1104.577637,221.790955 1103.199707,220.177872 1102.037842,220.135788 
	C1094.781738,219.872986 1087.511475,220.003159 1080.271484,220.003159 
	C1080.271484,261.283295 1080.271484,302.002441 1080.271484,342.718872 
	C1088.279175,342.718872 1096.012695,342.718872 1104.166992,342.718872 
	C1104.166992,316.781677 1104.166992,291.122894 1104.166992,265.364166 
	C1104.735840,265.505493 1104.948730,265.492950 1105.008423,265.582611 
	C1119.348755,287.075256 1133.682251,308.572479 1148.005127,330.076660 
	C1150.782471,334.246429 1152.634888,340.085571 1156.517456,342.174652 
	C1160.537720,344.337830 1166.508057,342.889374 1171.625977,342.993347 
	C1173.624023,343.033936 1175.647827,342.803131 1177.616943,343.045319 
	C1180.679321,343.421906 1181.390869,341.960815 1181.000000,338.371887 
M1046.611694,256.095459 
	C1043.795410,251.582764 1041.249878,246.871841 1038.117065,242.590714 
	C1022.434082,221.158920 997.452576,213.509048 973.707153,218.322327 
	C958.310120,221.443359 945.262878,229.217346 935.277405,242.042130 
	C923.822021,256.754669 921.048950,273.585724 923.321533,291.081909 
	C925.437561,307.373016 934.045959,320.731995 947.308716,330.812042 
	C963.334656,342.992157 981.497314,346.166931 1000.796265,342.522308 
	C1015.156067,339.810486 1027.039917,332.444244 1036.607300,321.051300 
	C1045.778442,310.130310 1050.054443,297.640564 1050.994995,283.716248 
	C1051.620239,274.459381 1049.700073,265.573639 1046.611694,256.095459 
M786.000000,119.564178 
	C784.989746,113.346825 784.826965,106.837585 782.805481,100.968544 
	C777.407654,85.297150 767.782776,72.744110 751.622253,67.164780 
	C744.247986,64.618843 736.139038,63.491791 728.301270,63.151848 
	C713.990601,62.531170 699.633667,62.975342 685.228394,62.975342 
	C685.228394,102.567215 685.228394,142.600952 685.228394,183.000000 
	C694.235168,183.000000 703.020996,183.129974 711.801270,182.963715 
	C720.713135,182.794952 729.619873,182.345596 738.528015,181.998154 
	C755.013916,181.355194 767.262634,173.307159 776.429749,160.071579 
	C784.683777,148.154358 786.891663,134.710510 786.000000,119.564178 
M485.665375,68.037582 
	C485.392639,68.228569 485.140442,68.462372 484.844208,68.604454 
	C458.699219,81.144844 446.720947,105.747795 451.208679,133.382111 
	C454.306854,152.459778 465.817474,166.657486 482.671844,175.718414 
	C493.596497,181.591507 505.652588,183.181061 518.343567,182.230637 
	C532.096069,181.200714 543.931152,176.347168 553.878601,167.441437 
	C570.250244,152.784210 576.660156,134.307388 573.054443,112.387352 
	C570.256470,95.377724 561.616760,82.345695 547.419373,72.842567 
	C538.814087,67.082504 529.520996,63.879845 519.022522,62.702343 
	C507.417877,61.400768 496.818481,63.194035 485.665375,68.037582 
M664.949585,324.424194 
	C670.293457,331.849396 676.830078,337.878815 685.635071,340.822968 
	C694.504639,343.788696 703.583801,343.699432 712.755859,342.037689 
	C732.734924,338.418091 745.044006,319.361450 739.143127,299.600403 
	C735.225586,286.481110 724.645874,279.065674 714.827637,270.976166 
	C708.270508,265.573578 701.488647,260.401245 695.352295,254.553955 
	C693.251526,252.552170 691.391541,248.525833 691.917236,245.929779 
	C692.846375,241.340637 697.028809,239.539551 701.863586,239.988373 
	C708.879272,240.639664 713.925293,244.581177 717.900879,249.938736 
	C719.411133,251.973984 720.437988,252.752747 722.498596,250.986237 
	C726.971558,247.151810 731.432678,243.302048 735.972900,239.548294 
	C738.450195,237.500122 738.497864,235.897095 736.096436,233.524033 
	C722.880371,220.463745 707.866211,213.063751 689.012268,219.073212 
	C672.984619,224.181870 664.261536,237.422028 667.524902,254.025223 
	C669.924805,266.235260 679.509033,273.216034 687.862915,280.909943 
	C695.798584,288.218689 704.415161,294.785217 712.410828,302.032867 
	C716.658691,305.883392 716.143433,314.385620 712.084473,317.415283 
	C706.314636,321.722015 699.155823,321.959595 693.248474,317.692169 
	C688.518188,314.275055 684.031128,310.521423 679.436157,306.917114 
	C676.832031,307.271057 672.441345,309.641846 668.236511,312.305878 
	C661.086670,316.835754 661.135803,316.913361 664.949585,324.424194 
M830.022400,243.465912 
	C830.672607,242.978073 831.297485,242.451523 831.976929,242.008453 
	C838.187622,237.958221 838.374329,236.789551 833.244507,231.787857 
	C831.497498,230.084442 829.468323,228.673309 827.599915,227.091064 
	C812.691772,214.466125 791.872070,213.325546 776.606506,225.219208 
	C768.083984,231.859283 763.898438,242.547745 766.809326,254.442535 
	C769.580505,265.766357 777.884827,272.713654 785.847351,279.929321 
	C794.461670,287.735748 803.602966,294.963470 812.161743,302.827362 
	C817.166870,307.426025 815.658936,314.411926 809.892456,318.064087 
	C799.950012,324.361084 790.998596,318.685669 785.050415,311.233429 
	C783.384155,309.145752 781.985840,306.844208 780.479309,304.662109 
	C773.210510,308.863342 766.552490,312.711548 759.925354,316.541931 
	C771.138245,341.423462 793.031921,346.972198 814.842651,341.368195 
	C829.123230,337.699005 838.136414,327.486389 839.778931,312.318939 
	C841.099365,300.125305 835.927429,289.866150 827.204834,281.953461 
	C816.951050,272.651703 805.642456,264.520294 795.210876,255.401321 
	C792.763855,253.262192 790.426025,248.976517 790.828735,246.064270 
	C791.461426,241.488602 796.032532,239.794464 800.672180,240.023315 
	C807.763245,240.373062 812.823547,244.452255 816.841492,249.769180 
	C818.314209,251.718048 819.238770,252.849380 821.339539,251.094681 
	C824.110535,248.780182 826.795349,246.362503 830.022400,243.465912 
M603.000000,86.500008 
	C603.000000,118.578827 603.000000,150.657639 603.000000,182.721939 
	C623.283630,182.721939 643.009888,182.721939 662.713013,182.721939 
	C662.713013,175.040558 662.713013,167.640930 662.713013,159.831299 
	C651.028748,159.831299 639.625732,159.831299 627.834351,159.831299 
	C627.834351,127.027260 627.834351,94.638702 627.834351,62.292446 
	C619.362793,62.292446 611.296814,62.292446 603.000000,62.292446 
	C603.000000,70.221817 603.000000,77.860924 603.000000,86.500008 
M637.000000,329.491943 
	C637.000000,293.079193 637.000000,256.666443 637.000000,220.292740 
	C628.363770,220.292740 620.296997,220.292740 612.283569,220.292740 
	C612.283569,261.306061 612.283569,302.025970 612.283569,342.706818 
	C620.637207,342.706818 628.703979,342.706818 637.000000,342.706818 
	C637.000000,338.440063 637.000000,334.464417 637.000000,329.491943 
M868.760620,220.072098 
	C868.507080,221.474533 868.033569,222.876740 868.032104,224.279434 
	C867.992004,262.595856 868.000000,300.912323 868.000000,339.228790 
	C868.000000,340.349915 868.000000,341.471069 868.000000,342.784485 
	C876.142822,342.784485 883.875671,342.784485 891.789185,342.784485 
	C891.789185,301.846313 891.789185,261.123688 891.789185,220.006226 
	C884.298767,220.006226 877.011841,220.006226 868.760620,220.072098 
z"/>
<path fill="#002A39" opacity="1.000000" stroke="none" 
	d="
M201.000000,49.000000 
	C201.000000,38.192387 201.000000,27.884771 201.000000,17.591036 
	C268.484497,14.182025 350.945099,59.707836 377.555878,146.352615 
	C405.506012,237.358459 360.279388,329.566162 282.296051,366.063232 
	C282.187927,364.857544 282.013641,363.810425 282.012238,362.763000 
	C281.993896,349.099365 281.908203,335.434296 282.117493,321.773834 
	C282.143311,320.089050 283.359497,317.888611 284.724976,316.838806 
	C303.390533,302.488556 318.853180,285.406586 329.280273,264.179291 
	C336.728882,249.015564 341.311310,233.031006 343.146484,216.076294 
	C345.975739,189.937622 341.809998,165.167023 330.828278,141.460098 
	C318.200928,114.200493 298.923889,92.850143 272.740875,78.082161 
	C264.235748,73.285019 255.042191,69.703148 246.128189,65.642998 
	C245.009415,65.133415 243.673950,65.099609 242.001129,64.755241 
	C242.001129,75.373352 241.931381,85.515305 242.104630,95.653107 
	C242.122772,96.714561 243.355957,98.300240 244.397079,98.719284 
	C268.653076,108.482162 286.566071,125.224869 298.988251,148.043076 
	C301.190033,152.087494 303.160095,156.258072 305.553436,160.996674 
	C289.792206,160.996674 274.842896,161.077347 259.897644,160.868454 
	C258.446899,160.848160 256.685638,159.309662 255.635498,158.015732 
	C244.437607,144.218002 230.293793,135.671844 212.617767,132.882767 
	C200.418121,130.957779 188.605957,131.694458 176.626663,136.481400 
	C198.854675,163.334564 220.899658,189.966629 243.191925,216.897430 
	C235.915955,228.935394 225.494843,237.320175 212.689331,243.086899 
	C190.156616,215.893982 167.699738,188.792603 145.016846,161.418457 
	C138.234375,169.751663 135.013336,179.044769 133.115509,188.663513 
	C130.052673,204.186874 132.583939,219.149063 140.080643,233.052826 
	C144.576935,241.391876 149.989304,249.140976 158.031708,254.679993 
	C159.364090,255.597641 160.849579,257.478149 160.869766,258.933044 
	C161.077179,273.874969 160.996948,288.820831 160.996948,303.911285 
	C116.388214,288.015991 88.470482,243.460373 90.242661,198.236832 
	C92.686485,135.873962 139.947021,91.559258 201.000000,89.773613 
	C201.000000,76.366135 201.000000,62.933067 201.000000,49.000000 
z"/>
<path fill="#004961" opacity="1.000000" stroke="none" 
	d="
M242.000000,325.000183 
	C242.000000,343.816315 242.000000,362.132416 242.000000,380.390137 
	C138.579803,403.544800 41.927692,337.728546 21.235773,239.737885 
	C-0.548679,136.573288 65.617706,42.576374 160.802795,21.410326 
	C160.802795,35.693401 160.802795,49.935219 160.802795,64.373253 
	C125.975731,75.061943 98.880234,96.269302 79.559120,127.089462 
	C63.091797,153.357391 56.190796,182.581223 59.229527,213.198135 
	C66.582687,287.285309 125.390114,341.694794 200.878708,343.870178 
	C200.878708,319.432037 200.878708,294.999756 200.878708,270.173340 
	C220.448776,270.435608 236.904449,263.222290 250.300247,249.968750 
	C263.595398,236.814804 270.239166,220.262100 271.064789,201.262573 
	C284.638397,201.262573 298.055542,201.262573 311.772736,201.262573 
	C313.014832,214.747650 310.132233,227.537064 305.486298,239.957077 
	C297.815521,260.463196 285.494385,277.651428 267.329956,290.105835 
	C260.050110,295.097229 251.935257,298.860901 244.314651,303.376068 
	C243.213989,304.028198 242.153885,305.740509 242.103226,307.003448 
	C241.869659,312.827728 242.000076,318.666565 242.000000,325.000183 
z"/>
<path fill="#002A39" opacity="1.000000" stroke="none" 
	d="
M451.023529,270.244446 
	C452.690277,261.725555 454.486237,253.676071 455.943207,245.565720 
	C457.454468,237.153152 458.637451,228.681610 459.976624,220.155548 
	C468.386230,220.155548 476.350800,220.155548 484.440155,220.155548 
	C493.738403,247.484619 503.048523,274.848541 512.358582,302.212494 
	C512.772095,302.158447 513.185608,302.104401 513.599121,302.050354 
	C521.393738,279.303284 529.186523,256.555573 536.988220,233.810928 
	C537.404602,232.597015 538.161926,231.441208 538.311707,230.204025 
	C539.491394,220.458191 545.564758,218.642365 554.069519,219.906693 
	C557.800110,220.461288 561.681763,220.000000 565.808472,220.000000 
	C572.858887,260.867554 579.874084,301.530975 587.024353,342.977234 
	C579.409241,342.977234 571.872864,343.095795 564.351990,342.809204 
	C563.523865,342.777618 562.321716,340.509064 562.072815,339.136597 
	C558.316467,318.423798 554.679749,297.689270 551.053101,276.953156 
	C550.729797,275.104462 550.670898,273.209534 550.489136,271.336090 
	C550.025208,271.246948 549.561279,271.157837 549.097351,271.068695 
	C547.725952,274.647675 546.256775,278.192657 544.999573,281.811279 
	C538.301331,301.089661 531.595459,320.365936 525.062622,339.700531 
	C524.153442,342.391357 522.854553,343.366913 520.159180,343.032745 
	C518.682617,342.849701 517.164734,343.000000 515.665527,343.000000 
	C501.567444,343.000000 501.529327,343.013000 497.025940,329.797180 
	C490.651703,311.091217 484.344788,292.362335 477.988922,273.650085 
	C477.694244,272.782593 477.202026,271.982208 475.661072,271.107971 
	C471.388794,294.989868 467.116516,318.871796 462.841705,342.767761 
	C454.796753,342.767761 447.032715,342.767761 438.724579,342.767761 
	C439.860535,335.274902 440.813171,328.060486 442.071045,320.899689 
	C444.282806,308.308136 446.704987,295.753693 448.988159,283.174469 
	C449.740967,279.026703 450.336456,274.850403 451.023529,270.244446 
z"/>
<path fill="#002A39" opacity="1.000000" stroke="none" 
	d="
M1181.000000,338.856506 
	C1181.390869,341.960815 1180.679321,343.421906 1177.616943,343.045319 
	C1175.647827,342.803131 1173.624023,343.033936 1171.625977,342.993347 
	C1166.508057,342.889374 1160.537720,344.337830 1156.517456,342.174652 
	C1152.634888,340.085571 1150.782471,334.246429 1148.005127,330.076660 
	C1133.682251,308.572479 1119.348755,287.075256 1105.008423,265.582611 
	C1104.948730,265.492950 1104.735840,265.505493 1104.166992,265.364166 
	C1104.166992,291.122894 1104.166992,316.781677 1104.166992,342.718872 
	C1096.012695,342.718872 1088.279175,342.718872 1080.271484,342.718872 
	C1080.271484,302.002441 1080.271484,261.283295 1080.271484,220.003159 
	C1087.511475,220.003159 1094.781738,219.872986 1102.037842,220.135788 
	C1103.199707,220.177872 1104.577637,221.790955 1105.384033,222.993988 
	C1118.961670,243.251129 1132.467407,263.556610 1145.981567,283.856323 
	C1148.908813,288.253265 1151.806519,292.669647 1155.549438,298.336090 
	C1155.549438,271.515259 1155.549438,246.088440 1155.549438,220.332062 
	C1164.214355,220.332062 1172.282715,220.332062 1181.000000,220.332062 
	C1181.000000,259.573395 1181.000000,298.972626 1181.000000,338.856506 
z"/>
<path fill="#002A39" opacity="1.000000" stroke="none" 
	d="
M1046.789062,256.455017 
	C1049.700073,265.573639 1051.620239,274.459381 1050.994995,283.716248 
	C1050.054443,297.640564 1045.778442,310.130310 1036.607300,321.051300 
	C1027.039917,332.444244 1015.156067,339.810486 1000.796265,342.522308 
	C981.497314,346.166931 963.334656,342.992157 947.308716,330.812042 
	C934.045959,320.731995 925.437561,307.373016 923.321533,291.081909 
	C921.048950,273.585724 923.822021,256.754669 935.277405,242.042130 
	C945.262878,229.217346 958.310120,221.443359 973.707153,218.322327 
	C997.452576,213.509048 1022.434082,221.158920 1038.117065,242.590714 
	C1041.249878,246.871841 1043.795410,251.582764 1046.789062,256.455017 
M957.455200,253.029816 
	C948.962219,263.531891 945.501587,275.141052 947.880615,288.795380 
	C951.861206,311.642059 975.640747,325.043488 996.593140,319.561798 
	C1018.462158,313.840302 1030.377197,293.283783 1025.757690,272.000122 
	C1021.457458,252.187653 1003.785522,238.878754 982.886902,240.842987 
	C972.905579,241.781113 964.980896,245.853821 957.455200,253.029816 
z"/>
<path fill="#002A39" opacity="1.000000" stroke="none" 
	d="
M786.000000,120.055450 
	C786.891663,134.710510 784.683777,148.154358 776.429749,160.071579 
	C767.262634,173.307159 755.013916,181.355194 738.528015,181.998154 
	C729.619873,182.345596 720.713135,182.794952 711.801270,182.963715 
	C703.020996,183.129974 694.235168,183.000000 685.228394,183.000000 
	C685.228394,142.600952 685.228394,102.567215 685.228394,62.975342 
	C699.633667,62.975342 713.990601,62.531170 728.301270,63.151848 
	C736.139038,63.491791 744.247986,64.618843 751.622253,67.164780 
	C767.782776,72.744110 777.407654,85.297150 782.805481,100.968544 
	C784.826965,106.837585 784.989746,113.346825 786.000000,120.055450 
M721.472290,160.000000 
	C726.389099,159.665344 731.408875,159.841553 736.198730,158.876755 
	C743.448975,157.416397 749.559265,154.209610 754.212158,147.674881 
	C761.015442,138.119995 762.027527,127.507896 760.746765,116.801559 
	C759.635254,107.509956 756.097778,98.782509 747.664734,92.898483 
	C736.196838,84.897034 723.327759,84.975014 710.284302,85.019615 
	C710.284302,110.282791 710.284302,135.015518 710.284302,160.000000 
	C713.874390,160.000000 717.182678,160.000000 721.472290,160.000000 
z"/>
<path fill="#002A39" opacity="1.000000" stroke="none" 
	d="
M486.053406,67.992851 
	C496.818481,63.194035 507.417877,61.400768 519.022522,62.702343 
	C529.520996,63.879845 538.814087,67.082504 547.419373,72.842567 
	C561.616760,82.345695 570.256470,95.377724 573.054443,112.387352 
	C576.660156,134.307388 570.250244,152.784210 553.878601,167.441437 
	C543.931152,176.347168 532.096069,181.200714 518.343567,182.230637 
	C505.652588,183.181061 493.596497,181.591507 482.671844,175.718414 
	C465.817474,166.657486 454.306854,152.459778 451.208679,133.382111 
	C446.720947,105.747795 458.699219,81.144844 484.844208,68.604454 
	C485.140442,68.462372 485.392639,68.228569 486.053406,67.992851 
M474.000000,121.581390 
	C474.331909,124.653610 474.545959,127.743958 475.015259,130.795044 
	C477.625977,147.768524 497.564850,163.111923 514.284851,160.980850 
	C524.914246,159.626068 533.849915,155.356369 541.432800,147.326065 
	C550.362061,137.869934 552.231018,120.195366 548.075500,109.330742 
	C542.000549,93.447456 526.119812,83.126221 508.328491,84.880035 
	C488.481384,86.836510 475.123779,101.884590 474.000000,121.581390 
z"/>
<path fill="#002A39" opacity="1.000000" stroke="none" 
	d="
M664.678040,324.172302 
	C661.135803,316.913361 661.086670,316.835754 668.236511,312.305878 
	C672.441345,309.641846 676.832031,307.271057 679.436157,306.917114 
	C684.031128,310.521423 688.518188,314.275055 693.248474,317.692169 
	C699.155823,321.959595 706.314636,321.722015 712.084473,317.415283 
	C716.143433,314.385620 716.658691,305.883392 712.410828,302.032867 
	C704.415161,294.785217 695.798584,288.218689 687.862915,280.909943 
	C679.509033,273.216034 669.924805,266.235260 667.524902,254.025223 
	C664.261536,237.422028 672.984619,224.181870 689.012268,219.073212 
	C707.866211,213.063751 722.880371,220.463745 736.096436,233.524033 
	C738.497864,235.897095 738.450195,237.500122 735.972900,239.548294 
	C731.432678,243.302048 726.971558,247.151810 722.498596,250.986237 
	C720.437988,252.752747 719.411133,251.973984 717.900879,249.938736 
	C713.925293,244.581177 708.879272,240.639664 701.863586,239.988373 
	C697.028809,239.539551 692.846375,241.340637 691.917236,245.929779 
	C691.391541,248.525833 693.251526,252.552170 695.352295,254.553955 
	C701.488647,260.401245 708.270508,265.573578 714.827637,270.976166 
	C724.645874,279.065674 735.225586,286.481110 739.143127,299.600403 
	C745.044006,319.361450 732.734924,338.418091 712.755859,342.037689 
	C703.583801,343.699432 694.504639,343.788696 685.635071,340.822968 
	C676.830078,337.878815 670.293457,331.849396 664.678040,324.172302 
z"/>
<path fill="#002A39" opacity="1.000000" stroke="none" 
	d="
M829.769775,243.727539 
	C826.795349,246.362503 824.110535,248.780182 821.339539,251.094681 
	C819.238770,252.849380 818.314209,251.718048 816.841492,249.769180 
	C812.823547,244.452255 807.763245,240.373062 800.672180,240.023315 
	C796.032532,239.794464 791.461426,241.488602 790.828735,246.064270 
	C790.426025,248.976517 792.763855,253.262192 795.210876,255.401321 
	C805.642456,264.520294 816.951050,272.651703 827.204834,281.953461 
	C835.927429,289.866150 841.099365,300.125305 839.778931,312.318939 
	C838.136414,327.486389 829.123230,337.699005 814.842651,341.368195 
	C793.031921,346.972198 771.138245,341.423462 759.925354,316.541931 
	C766.552490,312.711548 773.210510,308.863342 780.479309,304.662109 
	C781.985840,306.844208 783.384155,309.145752 785.050415,311.233429 
	C790.998596,318.685669 799.950012,324.361084 809.892456,318.064087 
	C815.658936,314.411926 817.166870,307.426025 812.161743,302.827362 
	C803.602966,294.963470 794.461670,287.735748 785.847351,279.929321 
	C777.884827,272.713654 769.580505,265.766357 766.809326,254.442535 
	C763.898438,242.547745 768.083984,231.859283 776.606506,225.219208 
	C791.872070,213.325546 812.691772,214.466125 827.599915,227.091064 
	C829.468323,228.673309 831.497498,230.084442 833.244507,231.787857 
	C838.374329,236.789551 838.187622,237.958221 831.976929,242.008453 
	C831.297485,242.451523 830.672607,242.978073 829.769775,243.727539 
z"/>
<path fill="#002A39" opacity="1.000000" stroke="none" 
	d="
M603.000000,86.000015 
	C603.000000,77.860924 603.000000,70.221817 603.000000,62.292446 
	C611.296814,62.292446 619.362793,62.292446 627.834351,62.292446 
	C627.834351,94.638702 627.834351,127.027260 627.834351,159.831299 
	C639.625732,159.831299 651.028748,159.831299 662.713013,159.831299 
	C662.713013,167.640930 662.713013,175.040558 662.713013,182.721939 
	C643.009888,182.721939 623.283630,182.721939 603.000000,182.721939 
	C603.000000,150.657639 603.000000,118.578827 603.000000,86.000015 
z"/>
<path fill="#002A39" opacity="1.000000" stroke="none" 
	d="
M637.000000,329.990356 
	C637.000000,334.464417 637.000000,338.440063 637.000000,342.706818 
	C628.703979,342.706818 620.637207,342.706818 612.283569,342.706818 
	C612.283569,302.025970 612.283569,261.306061 612.283569,220.292740 
	C620.296997,220.292740 628.363770,220.292740 637.000000,220.292740 
	C637.000000,256.666443 637.000000,293.079193 637.000000,329.990356 
z"/>
<path fill="#002A39" opacity="1.000000" stroke="none" 
	d="
M869.242798,220.039154 
	C877.011841,220.006226 884.298767,220.006226 891.789185,220.006226 
	C891.789185,261.123688 891.789185,301.846313 891.789185,342.784485 
	C883.875671,342.784485 876.142822,342.784485 868.000000,342.784485 
	C868.000000,341.471069 868.000000,340.349915 868.000000,339.228790 
	C868.000000,300.912323 867.992004,262.595856 868.032104,224.279434 
	C868.033569,222.876740 868.507080,221.474533 869.242798,220.039154 
z"/>
<path fill="#FFFFFF" opacity="1.000000" stroke="none" 
	d="
M957.719604,252.777725 
	C964.980896,245.853821 972.905579,241.781113 982.886902,240.842987 
	C1003.785522,238.878754 1021.457458,252.187653 1025.757690,272.000122 
	C1030.377197,293.283783 1018.462158,313.840302 996.593140,319.561798 
	C975.640747,325.043488 951.861206,311.642059 947.880615,288.795380 
	C945.501587,275.141052 948.962219,263.531891 957.719604,252.777725 
z"/>
<path fill="#FFFFFF" opacity="1.000000" stroke="none" 
	d="
M720.981628,160.000000 
	C717.182678,160.000000 713.874390,160.000000 710.284302,160.000000 
	C710.284302,135.015518 710.284302,110.282791 710.284302,85.019615 
	C723.327759,84.975014 736.196838,84.897034 747.664734,92.898483 
	C756.097778,98.782509 759.635254,107.509956 760.746765,116.801559 
	C762.027527,127.507896 761.015442,138.119995 754.212158,147.674881 
	C749.559265,154.209610 743.448975,157.416397 736.198730,158.876755 
	C731.408875,159.841553 726.389099,159.665344 720.981628,160.000000 
z"/>
<path fill="#FFFFFF" opacity="1.000000" stroke="none" 
	d="
M474.000000,121.117981 
	C475.123779,101.884590 488.481384,86.836510 508.328491,84.880035 
	C526.119812,83.126221 542.000549,93.447456 548.075500,109.330742 
	C552.231018,120.195366 550.362061,137.869934 541.432800,147.326065 
	C533.849915,155.356369 524.914246,159.626068 514.284851,160.980850 
	C497.564850,163.111923 477.625977,147.768524 475.015259,130.795044 
	C474.545959,127.743958 474.331909,124.653610 474.000000,121.117981 
z"/>
</svg>