<?xml version="1.0" encoding="utf-8"?>
<!-- Generator: Adobe Illustrator 27.1.1, SVG Export Plug-In . SVG Version: 6.00 Build 0)  -->
<svg version="1.1" id="Layer_1" xmlns="http://www.w3.org/2000/svg" xmlns:xlink="http://www.w3.org/1999/xlink" x="0px" y="0px"
	 viewBox="0 0 1920 1080" style="enable-background:new 0 0 1920 1080;" xml:space="preserve">
<style type="text/css">
	.st0{fill:#3DA542;}
</style>
<g>
	<g>
		<g>
			<path d="M713.9,579.6c-0.8-0.4-2-0.7-3.6-0.7c-1.5,0-2.7,0.2-3.5,0.7c-0.9,0.5-1.3,1.4-1.3,2.9v43.4c0,1.4,0.5,2.4,1.3,2.9
				c0.8,0.4,2,0.7,3.5,0.7c1.6,0,2.7-0.2,3.6-0.7c0.9-0.5,1.3-1.4,1.3-2.9v-43.4C715.2,581,714.7,580,713.9,579.6z"/>
			<path d="M781.6,579.6c-0.8-0.4-2-0.7-3.6-0.7c-1.5,0-2.7,0.2-3.5,0.7c-0.9,0.5-1.3,1.4-1.3,2.9v34l-41.1-35
				c-1.1-0.9-2.1-1.6-2.9-2c-0.9-0.4-2.1-0.6-3.7-0.6c-1.5,0-2.6,0.2-3.4,0.7c-0.8,0.5-1.3,1.5-1.3,2.8v43.4c0,1.4,0.5,2.4,1.3,2.9
				c0.8,0.4,2,0.7,3.5,0.7c1.6,0,2.7-0.2,3.6-0.7c0.9-0.5,1.3-1.4,1.3-2.9v-34l41.7,35.1c0.6,0.5,1.1,0.9,1.5,1.2
				c0.4,0.3,0.8,0.6,1.2,0.7c0.4,0.2,0.8,0.3,1.3,0.4c0.4,0,1,0.1,1.6,0.1c1.7,0,2.9-0.2,3.7-0.7c0.9-0.5,1.3-1.4,1.3-2.9v-43.4
				C782.9,581,782.5,580,781.6,579.6z"/>
			<path d="M920,579.6c-0.8-0.4-2-0.7-3.6-0.7c-1.5,0-2.7,0.2-3.5,0.7c-0.9,0.5-1.3,1.4-1.3,2.9v34l-41.1-35c-1.1-0.9-2.1-1.6-2.9-2
				c-0.9-0.4-2.1-0.6-3.7-0.6c-1.5,0-2.6,0.2-3.4,0.7c-0.8,0.5-1.3,1.5-1.3,2.8v43.4c0,1.4,0.5,2.4,1.3,2.9c0.8,0.4,2,0.7,3.5,0.7
				c1.6,0,2.7-0.2,3.6-0.7c0.9-0.5,1.3-1.4,1.3-2.9v-34l41.7,35.1c0.6,0.5,1.1,0.9,1.5,1.2c0.4,0.3,0.8,0.6,1.2,0.7
				c0.4,0.2,0.8,0.3,1.3,0.4c0.4,0,1,0.1,1.6,0.1c1.7,0,2.9-0.2,3.7-0.7c0.9-0.5,1.3-1.4,1.3-2.9v-43.4
				C921.3,581,920.9,580,920,579.6z"/>
			<path d="M938.6,588.7c1.7-1,4.6-1.5,8.5-1.5h33c1.2,0,2-0.4,2.4-1.1c0.4-0.7,0.6-1.6,0.6-2.9c0-1.3-0.2-2.2-0.6-2.9
				c-0.4-0.7-1.2-1.1-2.4-1.1h-33.3c-13.6,0-20.4,4.4-20.4,13v24c0,8.6,6.9,13,20.4,13h33.3c1.2,0,2-0.4,2.4-1.1
				c0.3-0.7,0.5-1.6,0.5-2.9c0-1.3-0.2-2.2-0.5-2.9c-0.4-0.7-1.2-1.1-2.4-1.1h-33.1c-3.9,0-6.8-0.5-8.5-1.5c-1.7-1-2.5-2.1-2.5-3.4
				v-24C936.1,590.8,936.9,589.6,938.6,588.7z"/>
			<path d="M996.3,579.6c-0.8-0.4-2-0.7-3.6-0.7c-1.5,0-2.7,0.2-3.5,0.7c-0.9,0.5-1.3,1.4-1.3,2.9v43.4c0,1.4,0.5,2.4,1.3,2.9
				c0.8,0.4,2,0.7,3.5,0.7c1.6,0,2.7-0.2,3.6-0.7c0.9-0.5,1.3-1.4,1.3-2.9v-43.4C997.6,581,997.1,580,996.3,579.6z"/>
			<path d="M1125.3,621.1h-33.3c-3.9,0-6.8-0.5-8.5-1.5c-1.7-1-2.5-2.1-2.5-3.4v-33.7c0-1.4-0.5-2.4-1.3-2.9c-0.8-0.4-2-0.7-3.6-0.7
				c-1.5,0-2.7,0.2-3.5,0.7c-0.9,0.5-1.3,1.4-1.3,2.9v33.7c0,8.6,6.9,13,20.4,13h33.6c1.2,0,2-0.4,2.4-1.1c0.3-0.7,0.5-1.6,0.5-2.9
				c0-1.2-0.2-2.2-0.5-2.8C1127.4,621.4,1126.6,621.1,1125.3,621.1z"/>
			<path d="M1327.7,579.2h-19.8c-13.6,0-20.4,4.4-20.4,13v24c0,8.6,6.9,13,20.4,13h19.8c13.6,0,20.4-4.4,20.4-13v-24
				C1348.1,583.5,1341.2,579.2,1327.7,579.2z M1297.1,592.1c0-1.4,0.8-2.5,2.5-3.5c1.7-1,4.6-1.5,8.5-1.5h19.2
				c3.9,0,6.8,0.5,8.5,1.5c1.7,1,2.5,2.1,2.5,3.5v24c0,1.3-0.8,2.5-2.5,3.4c-1.8,1-4.6,1.5-8.5,1.5h-19.2c-3.9,0-6.8-0.5-8.5-1.5
				c-1.7-1-2.5-2.1-2.5-3.4V592.1z"/>
			<path d="M1413.4,579.6c-0.8-0.4-2-0.7-3.5-0.7c-1.6,0-2.7,0.2-3.6,0.7c-0.9,0.5-1.3,1.4-1.3,2.9v33.7c0,1.3-0.8,2.5-2.5,3.4
				c-1.7,1-4.6,1.5-8.5,1.5h-20.4c-3.9,0-6.8-0.5-8.5-1.5c-1.7-1-2.5-2.1-2.5-3.4v-33.7c0-1.4-0.5-2.4-1.3-2.9
				c-0.8-0.4-2-0.7-3.6-0.7c-1.5,0-2.7,0.2-3.5,0.7c-0.9,0.5-1.3,1.4-1.3,2.9v33.7c0,8.6,6.9,13,20.4,13h20.9
				c13.6,0,20.4-4.4,20.4-13v-33.7C1414.7,581,1414.3,580,1413.4,579.6z"/>
			<path d="M1477,582.2c-1.7-1-3.9-1.7-6.4-2.2c-2.5-0.5-5.3-0.8-8.4-0.8h-38.5c-2.3,0-3.5,1.2-3.5,3.5v43.2c0,1.4,0.4,2.4,1.3,2.9
				c0.8,0.4,2,0.7,3.5,0.7c1.6,0,2.7-0.2,3.6-0.7c0.9-0.5,1.3-1.4,1.3-2.9v-14.1h32.3c3.1,0,5.9-0.3,8.4-0.8
				c2.5-0.5,4.6-1.3,6.4-2.2c1.8-1,3.1-2.2,4.1-3.6c1-1.4,1.5-3,1.5-4.7v-9.8c0-1.7-0.5-3.3-1.5-4.7
				C1480.1,584.4,1478.7,583.2,1477,582.2z M1472.9,591.2v8.5c0,0.6-0.2,1.1-0.5,1.5c-0.3,0.5-0.9,0.9-1.8,1.2
				c-0.9,0.4-2.1,0.7-3.6,0.9c-1.5,0.2-3.4,0.3-5.7,0.3h-31.5v-16.5h31.5c2.3,0,4.2,0.1,5.7,0.3c1.5,0.2,2.7,0.5,3.6,0.9
				c0.8,0.4,1.4,0.8,1.8,1.3C1472.7,590.2,1472.9,590.7,1472.9,591.2z"/>
			<path d="M1519.1,579.6c-0.8-0.4-2-0.7-3.6-0.7c-1.5,0-2.7,0.2-3.5,0.7c-0.9,0.5-1.3,1.4-1.3,2.9v43.4c0,1.4,0.4,2.4,1.3,2.9
				c0.8,0.4,2,0.7,3.5,0.7c1.6,0,2.7-0.2,3.6-0.7c0.9-0.5,1.3-1.4,1.3-2.9v-43.4C1520.4,581,1520,580,1519.1,579.6z"/>
			<path d="M1586.8,579.6c-0.8-0.4-2-0.7-3.6-0.7c-1.5,0-2.7,0.2-3.5,0.7c-0.9,0.5-1.3,1.4-1.3,2.9v34l-41.1-35
				c-1.1-0.9-2.1-1.6-2.9-2c-0.9-0.4-2.1-0.6-3.7-0.6c-1.5,0-2.6,0.2-3.4,0.7c-0.8,0.5-1.3,1.5-1.3,2.8v43.4c0,1.4,0.5,2.4,1.3,2.9
				c0.8,0.4,2,0.7,3.5,0.7c1.6,0,2.7-0.2,3.6-0.7c0.9-0.5,1.3-1.4,1.3-2.9v-34l41.7,35.1c0.6,0.5,1.1,0.9,1.5,1.2
				c0.4,0.3,0.8,0.6,1.2,0.7c0.4,0.2,0.8,0.3,1.3,0.4c0.4,0,1,0.1,1.6,0.1c1.7,0,2.9-0.2,3.7-0.7c0.9-0.5,1.3-1.4,1.3-2.9v-43.4
				C1588.1,581,1587.7,580,1586.8,579.6z"/>
			<path d="M1605.4,588.7c1.7-1,4.6-1.5,8.5-1.5h33c1.2,0,2-0.4,2.4-1.1c0.4-0.7,0.6-1.6,0.6-2.9c0-1.3-0.2-2.2-0.6-2.9
				c-0.4-0.7-1.2-1.1-2.4-1.1h-33.3c-13.6,0-20.4,4.4-20.4,13v24c0,8.6,6.9,13,20.4,13h33.3c1.2,0,2-0.4,2.4-1.1
				c0.3-0.7,0.5-1.6,0.5-2.9c0-1.3-0.2-2.2-0.5-2.9c-0.4-0.7-1.2-1.1-2.4-1.1h-33.1c-3.9,0-6.8-0.5-8.5-1.5c-1.7-1-2.5-2.1-2.5-3.4
				v-24C1602.9,590.8,1603.7,589.6,1605.4,588.7z"/>
			<path d="M1664.7,621.4c-0.9-0.7-2.3-1.1-4.3-1.1c-2,0-3.4,0.4-4.3,1.1c-0.9,0.7-1.4,1.9-1.4,3.5c0,1.6,0.5,2.7,1.4,3.5
				c0.9,0.7,2.3,1.1,4.3,1.1c2,0,3.4-0.4,4.3-1.1c0.9-0.7,1.4-1.9,1.4-3.5C1666.1,623.3,1665.6,622.1,1664.7,621.4z"/>
			<path d="M699.2,579.3h-33.1c-13.6,0-20.5,4.4-20.5,13V626c0,1.4,0.5,2.4,1.3,2.9c0.8,0.4,2,0.7,3.5,0.7c1.6,0,2.7-0.2,3.6-0.7
				c0.9-0.5,1.3-1.4,1.3-2.9v-17.3H689c1.2,0,2-0.4,2.4-1.1c0.4-0.7,0.6-1.6,0.6-2.9s-0.2-2.2-0.6-2.9c-0.4-0.7-1.2-1.1-2.4-1.1
				h-33.6v-8.4c0-1.4,0.8-2.5,2.5-3.5c1.7-1,4.6-1.5,8.5-1.5h32.8c1.2,0,2-0.4,2.4-1.1c0.3-0.7,0.5-1.6,0.5-2.9
				c0-1.3-0.2-2.2-0.5-2.9C701.3,579.7,700.4,579.3,699.2,579.3z"/>
			<path d="M1214.8,601.2c-0.8-0.4-1.7-0.6-3.2-0.6l-22.6,0c-1.2,0-2,0.4-2.4,1.1c-0.4,0.7-0.6,1.6-0.6,2.9c0,1.3,0.2,2.2,0.6,2.9
				c0.4,0.7,1.2,1.1,2.4,1.1h15.1c1.2,0,2.2,1,2.2,2.2v5.3c0,1.3-0.8,2.5-2.5,3.4c-1.7,1-4.6,1.5-8.5,1.5h-20
				c-3.9,0-6.8-0.5-8.5-1.5c-1.7-1-2.5-2.1-2.5-3.4v-23.9c0-1.4,0.8-2.5,2.5-3.5c1.7-1,4.6-1.5,8.5-1.5h30.6c1.2,0,2-0.4,2.4-1.1
				c0.4-0.7,0.6-1.6,0.6-2.9c0-1.3-0.2-2.2-0.6-2.9c-0.4-0.7-1.2-1.1-2.4-1.1h-30.9c-13.5,0-20.4,4.4-20.4,13v23.9
				c0,8.6,6.9,13,20.4,13h20.5c6.6,0,11.7-1,15.2-3.1c3.5-2.1,5.3-5.4,5.3-9.9v-12.1C1216.2,602.6,1215.7,601.7,1214.8,601.2z"/>
			<path d="M852,620.6L852,620.6l-25.4-37.8c-1.5-2.2-3.5-3.4-5.6-3.4c-0.1,0-0.1,0-0.2,0c-2.1,0-4.1,1.2-5.6,3.4l-24.8,36.8
				l-0.6,0.9h0l-1.4,2.1c-0.6,0.9-0.8,2-0.5,3c0.3,1,1,1.8,2,2.3l1,0.5c2,1,4.6,0.3,5.9-1.6l7.7-11.6h32.9l7.7,11.6
				c0.9,1.3,2.4,2,3.9,2c0.7,0,1.3-0.1,2-0.4l1-0.5c1-0.5,1.7-1.3,2-2.3c0.3-1,0.1-2.1-0.5-3L852,620.6z M830.4,606.4
				c-0.3,0.5-0.7,0.8-1.3,0.8h-16.3c-0.6,0-1-0.3-1.3-0.8c-0.3-0.5-0.2-1.1,0.1-1.5l8.5-12.6l0.3-0.4c0.1-0.2,0.3-0.3,0.5-0.3
				c0,0,0,0,0,0l0,0l0,0c0.2,0,0.4,0.1,0.6,0.3l8.8,13C830.7,605.4,830.7,605.9,830.4,606.4z"/>
			<path d="M1066.7,620.6L1066.7,620.6l-25.4-37.8c-1.5-2.2-3.5-3.4-5.6-3.4c-0.1,0-0.1,0-0.2,0c-2.1,0-4.1,1.2-5.6,3.4l-24.8,36.8
				l-0.6,0.9h0l-1.4,2.1c-0.6,0.9-0.8,2-0.5,3c0.3,1,1,1.8,2,2.3l1,0.5c2,1,4.6,0.3,5.9-1.6l7.7-11.6h32.9l7.7,11.6
				c0.9,1.3,2.4,2,3.9,2c0.7,0,1.3-0.1,2-0.4l1-0.5c1-0.5,1.7-1.3,2-2.3c0.3-1,0.1-2.1-0.5-3L1066.7,620.6z M1045.1,606.4
				c-0.3,0.5-0.7,0.8-1.3,0.8h-16.3c-0.6,0-1-0.3-1.3-0.8c-0.3-0.5-0.2-1.1,0.1-1.5l8.5-12.6l0.3-0.4c0.1-0.2,0.3-0.3,0.5-0.3
				c0,0,0,0,0,0l0,0l0,0c0.2,0,0.4,0.1,0.6,0.3l8.8,13C1045.4,605.4,1045.4,605.9,1045.1,606.4z"/>
			<path d="M1268.7,579.2h-41c-2.3,0-4.2,1.9-4.2,4.2v41c0,2.3,1.9,4.2,4.2,4.2h1.6c2.3,0,4.2-1.9,4.2-4.2v-12.3
				c0-1,0.8-1.7,1.7-1.7h25.2c0.9,0,1.8,0.5,2.3,1.3l8.7,15.2c0.8,1.4,2.2,2.1,3.6,2.1c0.8,0,1.5-0.2,2.3-0.6l0.2-0.2
				c1-0.6,1.7-1.5,1.9-2.6c0.3-1.1,0.1-2.2-0.5-3.2l-6.4-11c-0.2-0.4-0.2-0.8-0.1-1.2c0.1-0.4,0.5-0.7,0.9-0.9
				c5.3-2,8.8-6.9,8.8-12.5v-4.3C1282,585.2,1276.1,579.2,1268.7,579.2z M1267.3,601.8h-32.1c-0.8,0-1.5-0.7-1.5-1.5v-10.7
				c0-0.8,0.7-1.5,1.5-1.5h31.9c2.6,0,4.8,2.1,4.8,4.8l0,4.9C1271.9,600.5,1269.6,601.8,1267.3,601.8z"/>
		</g>
		<g>
			<g>
				<g>
					<g>
						<g>
							<path d="M1294.1,506.3c9.6-3.5,15.8-12.3,15.8-22.5v-7.7c0-13.2-10.8-24-24-24H1212c-4.2,0-7.6,3.4-7.6,7.5v73.8
								c0,4.2,3.4,7.6,7.6,7.6h2.9c4.2,0,7.6-3.4,7.6-7.6v-22.2c0-1.7,1.4-3.1,3.1-3.1h45.3c1.7,0,3.2,0.9,4.1,2.4l15.7,27.4
								c1.5,2.5,3.9,3.8,6.5,3.8c1.4,0,2.8-0.4,4.1-1.2l0.4-0.4c1.7-1.1,3-2.7,3.4-4.6c0.5-1.9,0.2-4-0.9-5.8l-11.5-19.8
								c-0.4-0.7-0.4-1.4-0.2-2.1C1292.8,507.1,1293.4,506.6,1294.1,506.3z M1291.5,485.3c0,5.2-4.1,7.5-8.3,7.5h-57.7
								c-1.5,0-2.8-1.2-2.8-2.8v-19.3c0-1.5,1.2-2.8,2.8-2.8h57.4c4.7,0,8.6,3.8,8.6,8.6L1291.5,485.3z"/>
							<path d="M1530.6,452.1h-79.3c-3.2,0-5.9,2.8-5.9,5.9v77.1c0,3.2,2.8,5.9,5.9,5.9h79.3c13.2,0,24-10.8,24-24v-40.9
								C1554.6,462.9,1543.8,452.1,1530.6,452.1z M1536.6,476.1V517c0,4.7-3.8,8.6-8.6,8.6h-62.2c-1.3,0-2.4-1.1-2.4-2.4V470
								c0-1.3,1.1-2.4,2.4-2.4h62.2C1532.7,467.5,1536.6,471.4,1536.6,476.1z"/>
							<path d="M1435.6,530.2l-2.5-4h0.1l-46.8-69.5c-2.7-4-6.4-6.2-10.3-6.2c-0.1,0-0.2,0-0.3,0c-3.9,0-7.6,2.2-10.3,6.2
								l-45.7,67.8l-1.1,1.7h0.1l-2.5,3.9c-1.1,1.7-1.5,3.6-1,5.5c0.5,1.9,1.8,3.4,3.6,4.3l1.8,0.9c3.7,1.8,8.5,0.5,10.8-2.9
								l14.2-21.4h60.5l14.2,21.4c1.6,2.3,4.4,3.7,7.2,3.7c1.2,0,2.5-0.3,3.6-0.8l1.8-0.9c1.8-0.9,3.1-2.4,3.6-4.3
								C1437,533.9,1436.7,531.9,1435.6,530.2z M1393.3,500.1c-0.5,0.9-1.4,1.4-2.4,1.4h-30.1c-1,0-1.9-0.5-2.4-1.4
								c-0.5-0.9-0.4-1.9,0.1-2.8l15.7-23.3l0.5-0.7c0.2-0.3,0.6-0.5,1-0.5c0,0,0.1,0,0.1,0l0.1,0l0.1,0c0.4,0,0.8,0.2,1,0.5
								l16.2,24C1393.8,498.2,1393.8,499.2,1393.3,500.1z"/>
							<path d="M1593.2,467.7h66.9c3.3,0,5.9-2.7,5.9-5.9v-3.3c0-3.3-2.7-5.9-5.9-5.9h-69.5c-13.3,0-24,10.8-24,24v40.6
								c0,13.3,10.8,24,24,24h69.5c3.3,0,5.9-2.7,5.9-5.9v-3.4c0-3.3-2.7-5.9-5.9-5.9h-66.9c-4.8,0-8.8-3.9-8.8-8.8v-13.7
								c0-1.4,1.2-2.6,2.6-2.6h63.2c3.3,0,5.9-2.7,5.9-5.9v-3.3c0-3.3-2.7-5.9-5.9-5.9h-63.2c-1.4,0-2.6-1.2-2.6-2.6v-6.6
								C1584.5,471.6,1588.4,467.7,1593.2,467.7z"/>
						</g>
					</g>
					<g>
						<path d="M1186.5,452.5h-85.4c-4.3,0-6.7,2.4-6.7,6.6v1.8c0,4.4,2.3,6.7,6.7,6.7h29.3c2.4,0,4.3,1.9,4.3,4.3v62.4
							c0,4.3,2.4,6.7,6.6,6.7h4.7c4.3,0,6.6-2.4,6.6-6.7v-62.4c0-2.4,1.9-4.3,4.3-4.3h29.5c4.3,0,6.7-2.4,6.7-6.7v-1.8
							C1193.1,454.8,1190.8,452.5,1186.5,452.5z"/>
						<path d="M869.5,452.5H867c-4.3,0-7.7,3.5-7.7,7.7v53.9c0,6.5-5.3,11.9-11.9,11.9h-49.2c-6.5,0-11.9-5.3-11.9-11.9v-0.8h0
							c0-0.9,0.1-7.1,0.1-53.2c0-4.2-3.4-7.6-7.6-7.6h-2.6c-4.3,0-7.7,3.5-7.7,7.7v56.9c0,13.3,10.8,24,24,24h60.8
							c13.2,0,23.9-10.7,23.9-23.9c0,0,0.1-4.6,0.1-4.9v-52.1C877.2,455.9,873.8,452.5,869.5,452.5z"/>
						<path d="M917.4,467.7h66.9c3.3,0,5.9-2.7,5.9-5.9v-3.3c0-3.3-2.7-5.9-5.9-5.9h-69.5c-13.3,0-24,10.8-24,24v40.6
							c0,13.3,10.8,24,24,24h69.5c3.3,0,5.9-2.7,5.9-5.9v-3.4c0-3.3-2.7-5.9-5.9-5.9h-66.9c-4.8,0-8.8-3.9-8.8-8.8v-13.7
							c0-1.4,1.2-2.6,2.6-2.6h63.2c3.3,0,5.9-2.7,5.9-5.9v-3.3c0-3.3-2.7-5.9-5.9-5.9h-63.2c-1.4,0-2.6-1.2-2.6-2.6v-6.6
							C908.8,471.6,912.7,467.7,917.4,467.7z"/>
						<path d="M1076.5,485.6H1027c-4.8,0-8.8-3.9-8.8-8.8v-0.4c0-4.8,3.9-8.8,8.8-8.8h50c3.3,0,5.9-2.7,5.9-5.9v-3.3
							c0-3.3-2.7-5.9-5.9-5.9h-52.6c-13.3,0-24,10.8-24,24v0.3c0,13.3,10.8,24,24,24h0.9v0.1l1.2-0.1c0.1,0,0.2,0,0.3,0l47.2,0
							c4.8,0,8.6,3.9,8.6,8.7v7.7c0,4.8-3.9,8.8-8.8,8.8h-8.7c-0.3,0-0.5,0-0.7,0c-0.1,0-0.1,0-0.2,0h-57.9c-3.3,0-5.9,2.7-5.9,5.9
							v3.3c0,3.3,2.7,5.9,5.9,5.9h19v0.1h51.2c13.3,0,24-10.8,24-24v-7.6C1100.5,496.4,1089.7,485.6,1076.5,485.6z"/>
						<path d="M754.8,517.1v-40.6c0-13.3-10.8-24.1-24.1-24.1h-61c-13.3,0-24,10.8-24,24V517c0,13.3,10.8,24,24,24h57.4
							c0.9,0,1.8,0.5,2.3,1.3c2,3.6,6.4,11.2,6.4,11.2c1.4,2.4,4,3.8,6.6,3.8c1.3,0,2.6-0.3,3.8-1l2.4-1.4c3.6-2.1,4.9-6.8,2.8-10.4
							l-4.7-8.1c-0.3-0.6-0.2-1.3,0.3-1.8C751.9,530.2,754.8,523.8,754.8,517.1z M736.9,478.7v36.1c0,6.1-5,11.1-11.1,11.1h-51.2
							c-6.1,0-11-5-11-11v-36.1c0-6.1,5-11,11-11h51.2C731.9,467.6,736.9,472.6,736.9,478.7z"/>
					</g>
				</g>
			</g>
		</g>
	</g>
	<g>
		<path class="st0" d="M379.7,554.9c27.1-49.9,62.8-87.7,95.3-105.2l-32.6-51.3c-2.6-4-6.6-4-9.1,0L255,679.4
			c-2.6,4-0.4,5.2,4.3,5.2h85C342.9,648.3,353.8,602.3,379.7,554.9"/>
		<path class="st0" d="M486,481.7c-17.5-9.6-55.2,25.9-84.2,79.1c-29,53.2-38.4,104.2-20.8,113.8c12.7,6.9,34-11.2,56.8-41v-68
			c0-7.1,4.4-11,7.7-4.8l19,35.9c0.3-0.4,0.4-0.8,0.7-1.2C494.2,542.2,503.5,491.3,486,481.7"/>
		<path class="st0" d="M620.7,679.4l-71.9-113.5c-6.2,21.3-15.5,44-27.6,66.3c-6.4,11.7-13.2,22.6-20.3,32.9l13.6,19.4h102.1
			C621.1,684.6,623.2,683.4,620.7,679.4"/>
	</g>
</g>
</svg>
