<svg enable-background="new 0 0 1000 1000" viewBox="0 0 1000 1000" xmlns="http://www.w3.org/2000/svg" xmlns:xlink="http://www.w3.org/1999/xlink"><linearGradient id="a" gradientUnits="userSpaceOnUse" x1="293.5333" x2="709.9794" y1="309.1119" y2="309.1119"><stop offset=".2" stop-color="#5f57a6"/><stop offset="1" stop-color="#6fcbd1"/></linearGradient><path d="m624.1 399.2c5.5-22.1 8.4-44.9 8.4-68.2 0-85.8-39-166.5-105.4-219.9 38.2-22 81.4-33.5 126-33.5 16.9 0 33.6 1.7 49.9 4.9l6.9-27.8c-18.6-3.8-37.6-5.7-56.9-5.7-54 0-106.1 15.2-151.3 44-45.2-28.8-97.3-44-151.3-44-19.3 0-38.3 1.9-56.9 5.7l6.9 27.8c16.3-3.3 33-4.9 50-4.9 44.6 0 87.8 11.5 126 33.5-66.3 53.4-105.4 134.1-105.4 219.9 0 93 45.8 180 122.6 232.7l8.1 5.6 8.1-5.6c57.6-39.5 97.8-98.3 114.3-164.5zm-136.7 123.6c-55.4-47.9-87.7-117.7-87.7-191.8 0-26 4-51.5 11.6-75.7 14.4 24 32.4 45.8 53.3 64.5 14.6 13.2 22.9 32 22.9 51.7v151.3zm14.4-209.4c-19.3-14.4-36.4-31.4-50.8-50.4-19-25.1-19.1-59.6-.1-84.7 14.3-19 31.4-36 50.9-50.6 19.8 14.7 37.1 32.1 51.5 51.4 18.4 24.6 18.3 58.5-.1 83-14.6 19.5-31.9 36.7-51.4 51.3zm14.3 209.4v-151.3c0-19.7 8.3-38.5 22.9-51.7 20.9-18.8 38.8-40.5 53.3-64.5 7.6 24.2 11.6 49.7 11.6 75.7-.1 74.1-32.4 143.9-87.8 191.8z" fill="url(#a)"/><g fill="#190f33"><path d="m313.1 929.6h56.5v15.3h-74.5v-127.6h18z"/><path d="m580.2 896.8c0 30.5-18 50.7-42.5 50.7-15.3 0-26.2-6.1-32.9-17v14.5h-15.8v-127.7h16.8v44.9c6.7-10.2 17.4-16 31.9-16 24.9-.1 42.5 20 42.5 50.6zm-17.2 0c0-21.7-11-36.4-27.8-36.4-17.4 0-29.9 13.5-29.9 36.4 0 23.1 12.7 36.2 29.9 36.2 16.6-.1 27.8-14.5 27.8-36.2z"/><path d="m427.9 845.9c-14.7 0-27.5 5.9-39 14.5v17.4c7.9-6.4 22.7-18 39.6-18 7.4 0 13.6 2.1 17.5 6.1 1.6 1.6 2.7 3.3 3.4 5 2.7 6.2-1.2 13.2-7.8 14.4l-12.2 2.2c-24.1 4.3-44.8 11-44.8 33.5 0 19.2 15.7 27 34.4 27 14.5 0 26.2-5.3 32.7-15.1v11.9h15.3v-66.8c0-18.8-13.7-32.1-39.1-32.1zm23.1 49.4v13.5c0 15.8-13.5 25.2-30.1 25.2-12.3 0-19.8-4.9-19.8-13.7 0-4.4 1.5-7.7 4.1-10.3 9.6-9.5 37.8-9.3 45.8-14.7z"/><path d="m637.1 888.1c-17.6-3.9-25.8-5.9-25.8-14.3 0-8.2 8-14.3 21.1-14.3 11.6 0 19.4 3.1 35.1 14.7v-17.7c-11.1-7.8-21.3-10.8-35.1-10.8-22.3 0-37.4 11.7-37.4 28.6 0 16 9.4 21.7 35 27.2 15.5 3.3 27 6.3 27 16.8 0 9.6-9.4 15.3-21.9 15.3-12.7 0-19.6-3.6-38.5-17.6v.2 18.4c12.6 9.6 23.6 13 38.3 13 23.3 0 38.5-12.1 38.5-29.9.1-17-11.2-23.9-36.3-29.6z"/><path d="m283.1 742.4c0 30.1-19.6 50.9-47.5 50.9-28.2 0-47.7-20.7-47.7-50.9 0-30.1 19.6-50.9 47.7-50.9 27.9.1 47.5 20.8 47.5 50.9zm-78.1 0c0 21.7 11.9 36.8 30.5 36.8s30.3-15.1 30.3-36.8-11.7-36.8-30.3-36.8c-18.5.1-30.5 15.1-30.5 36.8z"/><path d="m541.1 710.2c-5-1.4-9-2-12.7-2-12.9 0-22.5 11.2-22.5 30.7v51.7h-16.9v-96.3h15.8v14.5c4.5-9.4 12.5-16.1 23.9-16.1 8 0 12.3 2.4 12.3 2.4z"/><path d="m641.8 742.4c0 30.1-19.6 50.9-47.5 50.9-28.2 0-47.7-20.7-47.7-50.9 0-30.1 19.6-50.9 47.7-50.9 27.9.1 47.5 20.8 47.5 50.9zm-78 0c0 21.7 11.9 36.8 30.5 36.8s30.3-15.1 30.3-36.8-11.7-36.8-30.3-36.8c-18.6.1-30.5 15.1-30.5 36.8z"/><path d="m700 691.6c-14.7 0-27.5 5.9-39 14.5v17.4c7.9-6.4 22.7-18 39.6-18 7.4 0 13.6 2.1 17.5 6.1 1.6 1.6 2.7 3.3 3.4 5 2.7 6.2-1.2 13.2-7.8 14.4l-12.2 2.2c-24.1 4.3-44.8 11-44.8 33.5 0 19.2 15.7 27 34.4 27 14.5 0 26.2-5.3 32.7-15.1v11.9h15.3v-66.9c0-18.7-13.7-32-39.1-32zm23.1 49.4v13.5c0 15.8-13.5 25.2-30.1 25.2-12.3 0-19.8-4.9-19.8-13.7 0-4.4 1.5-7.7 4.1-10.3 9.5-9.5 37.8-9.3 45.8-14.7z"/><path d="m931.6 724.6v65.9h-16.8v-60.6c0-15.8-7.8-24.1-22.1-24.1-13.9 0-24.8 10.8-24.8 25v59.7h-16.9v-127.5h16.8v42.3c6.5-9 17-13.7 29.3-13.7 23.4 0 34.5 15 34.5 33z"/><path d="m369.6 769.6s-11.8 8.3-25.1 8.3c-25.2 0-29.5-26.3-29.5-35.7 0-5.2 1.7-35.5 30.2-35.5 13 0 24.4 6.3 24.4 6.3v-15.2c-9.1-5.2-18.6-6.5-25.2-6.5-29.7 0-46.8 24.2-46.8 50.1 0 45 33.7 51.9 46 51.9 5.4 0 16.7-.9 26-6.8z"/><path d="m830 769.6s-11.8 8.3-25.1 8.3c-25.2 0-29.5-26.3-29.5-35.7 0-5.2 1.7-35.5 30.2-35.5 13 0 24.4 6.3 24.4 6.3v-15.2c-9.1-5.2-18.6-6.5-25.2-6.5-29.7 0-46.8 24.2-46.8 50.1 0 45 33.7 51.9 46 51.9 5.4 0 16.7-.9 26-6.8z"/><path d="m456.9 790.6h18.8l-38.7-57.9c9.7-11.7 17.7-24.6 23.8-38.4h-18.3c-8.6 17-20.4 32.4-35.1 45v-76.3h-16.8v127.6h16.8v-30.1c6.7-4.9 13-10.3 18.8-16.1z"/><path d="m132.1 777c-43.2 0-42.5-45.1-42.5-50.3 0-48 36.3-49.4 44-49.4 14.9 0 27.1 5.6 38.2 15.2v-19.6c-7.9-5.5-20.4-12.5-38.2-12.5-22.9 0-61.7 14-61.7 66.3 0 5 .7 22.7 10.1 39 10.4 18 27.8 27.6 50.1 27.6 17.9 0 28.7-5.9 39.7-13.9v-19.5c-14.4 11.1-22.1 17.1-39.7 17.1z"/></g></svg>