<svg fill="none" height="160" viewBox="0 0 722 160" width="722" xmlns="http://www.w3.org/2000/svg"><g clip-rule="evenodd" fill-rule="evenodd"><path d="m53.2197 79.0241 26.857-42.206 26.8583 42.206-26.8583 15.346z" fill="#1f294f"/><path d="m53.2197 86.2319 26.857 15.3481 26.8583-15.3481-26.8583 36.4501z" fill="#1f294f"/><path d="m92.2909 19.697c-4.1711 1.9463-8.2325 4.1196-12.166 6.51-3.958-2.4171-8.054-4.6009-12.267-6.54 3.9326-2.6582 7.9964-5.117 12.176-7.367 4.2044 2.2634 8.295 4.732 12.257 7.397z" fill="#5f9a34"/><path d="m149.64 10.1871c-14.744-14.74199-41.61-12.98099-69.6073 2.113 4.2044 2.2633 8.295 4.732 12.257 7.397 10.8383-5.012 21.1623-7.699 29.9073-7.699 7.819 0 14.38 2.144 18.928 6.692 9.65 9.65 8.503 28.327-.996 48.846 2.661 3.9635 5.13 8.0537 7.396 12.256 15.095-27.995 16.856-54.863 2.113-69.605z" fill="#ffc750"/><path d="m92.291 19.697c-4.1711 1.9463-8.2326 4.1196-12.166 6.51 21.741 13.4495 40.047 31.7832 53.464 53.545 2.398-3.9514 4.581-8.0293 6.54-12.216-6.355-9.4078-13.603-18.1798-21.644-26.194-8.007-8.0492-16.781-15.2985-26.195-21.645z" fill="#ffc750"/><path d="m147.526 79.7921c-2.26 4.1881-4.725 8.2624-7.386 12.208-1.958-4.199-4.145-8.2874-6.55-12.247 2.398-3.9514 4.581-8.0293 6.54-12.216 2.662 3.9635 5.13 8.0536 7.396 12.256z" fill="#ff512f"/><path d="m140.14 91.998c-1.958-4.1987-4.144-8.2868-6.55-12.246-6.649 10.874-14.578 20.911-23.618 29.897-8.968 9.045-18.9885 16.981-29.847 23.638 3.9291 2.398 7.991 4.571 12.166 6.51 9.414-6.347 18.187-13.596 26.194-21.645 8.045-7.999 15.297-16.758 21.655-26.154z" fill="#ff6895"/><path d="m156.15 99.978c-2.233-6.9852-5.12-13.7439-8.624-20.186-2.261 4.1874-4.725 8.261-7.386 12.206 9.49 20.509 10.637 39.165.986 48.805-9.65 9.65-28.317 8.494-48.8353-1.006-.845.574-1.69 1.127-2.536 1.67-3.1622 2.038-6.4048 3.948-9.72 5.726 14.903 8.04 29.4843 12.297 42.0933 12.297 11.069 0 20.619-3.28 27.512-10.173 10.787-10.788 13.091-28.307 6.51-49.339z" fill="#ff6895"/><path d="m92.2909 139.797c-.845.574-1.69 1.127-2.536 1.67-3.1622 2.038-6.4048 3.948-9.72 5.726-4.1778-2.253-8.2417-4.712-12.177-7.366 4.213-1.939 8.3089-4.123 12.267-6.54 3.93 2.398 7.991 4.571 12.166 6.51z" fill="#552990"/><path d="m56.2458 144.336c-16.544 5.182-29.766 3.924-37.223-3.533-7.457-7.456-8.714-20.679-3.532-37.222 1.2515-3.9592 2.7539-7.8347 4.498-11.603-2.6505-3.9373-5.1088-8.0007-7.366-12.176-3.50026 6.4389-6.38408 13.1943-8.61296 20.176-6.59 21.032-4.275997 38.551 6.49996 49.339 6.763 6.752 16.162 10.183 27.412 10.183 7.4499-.113 14.8396-1.354 21.917-3.683 6.9885-2.233 13.7505-5.12 20.196-8.624-4.1774-2.253-8.241-4.712-12.176-7.366-3.77 1.75-7.6487 3.256-11.612 4.509z" fill="#5666f6"/><path d="m67.8577 139.827c4.213-1.939 8.309-4.123 12.267-6.54-10.8945-6.649-20.9491-14.586-29.947-23.638-9.0522-8.998-16.9886-19.0526-23.638-29.9471-2.4165 3.9632-4.6034 8.062-6.55 12.276 6.3681 9.4031 13.6302 18.1681 21.685 26.1741 8.0014 8.06 16.7707 15.319 26.183 21.675z" fill="#5666f6"/><path d="m26.54 79.7021c-2.4165 3.9633-4.6034 8.062-6.55 12.276-2.6509-3.9372-5.1094-8.0007-7.367-12.176 2.2645-4.2087 4.7366-8.3024 7.407-12.266 1.9385 4.1751 4.112 8.2369 6.51 12.166z" fill="#204fa0"/><path d="m19.0229 18.69c7.457-7.456 20.68-8.71399 37.223-3.522 3.9616 1.2532 7.84 2.7555 11.612 4.498 3.9327-2.6579 7.9965-5.1163 12.176-7.366-6.4435-3.50817-13.2059-6.39583-20.196-8.62399-21.021-6.58-38.54-4.275996-49.328 6.51099-6.89296 6.893-10.173962 16.443-10.173962 27.513 0 12.609 4.257002 27.2 12.286962 42.103 2.2645-4.2087 4.7366-8.3024 7.407-12.266-9.5-20.52-10.65696-39.197-1.007-48.847z" fill="#5fc5a6"/><path d="m67.8578 19.666c-18.8203 12.796-35.0486 29.0385-47.828 47.87 1.9385 4.1751 4.1119 8.2369 6.51 12.166 13.452-21.7612 31.8011-40.0795 53.585-53.495-3.9581-2.4172-8.0541-4.6009-12.267-6.54z" fill="#5fc5a6"/></g><path d="m703.678 112.305v6.666c-1.162.683-2.487 1.037-3.835 1.025-5.49.136-10.355-3.523-11.763-8.845-8.2 8.986-21.444 11.227-32.13 5.438-10.688-5.79-16.077-18.126-13.075-29.928s13.625-20.044 25.772-19.994c3.464-.0082 6.896.667 10.099 1.9869s6.114 3.2586 8.567 5.7051v-6.667h7.927v37.946c0 4.744 2.43 6.667 5.242 6.667zm-16.365-18.973c0-10.337-8.357-18.717-18.666-18.717-10.31 0-18.666 8.38-18.666 18.717s8.357 18.716 18.666 18.716c10.304-.012 18.654-8.384 18.666-18.716zm26.359-51.665h8.328v78.333h-8.328zm-83.28 51.32c.005 10.892-6.447 20.721-16.362 24.923-9.915 4.201-21.35 1.952-28.994-5.703v6.753h-7.944v-78.96h7.944v33.766c7.645-7.655 19.08-9.905 28.994-5.703 9.915 4.202 16.367 14.03 16.362 24.924zm-7.944 0c0-10.472-8.375-18.961-18.706-18.961-10.33 0-18.706 8.489-18.706 18.96 0 10.472 8.375 18.961 18.706 18.961 2.465.005 4.906-.482 7.181-1.432 2.274-.95 4.336-2.345 6.064-4.103 3.52-3.58 5.482-8.4049 5.461-13.425zm-113.645.346c0-14.727 11.93-26.666 26.65-26.666 14.717 0 26.649 11.939 26.649 26.666 0 14.728-11.931 26.667-26.65 26.667-3.501.003-6.968-.685-10.202-2.025-3.235-1.339-6.174-3.303-8.648-5.779-2.476-2.478-4.439-5.419-5.777-8.655-1.339-3.237-2.026-6.7056-2.023-10.208zm45.355 0c0-10.337-8.375-18.717-18.706-18.717-10.33 0-18.706 8.38-18.706 18.718 0 10.337 8.375 18.717 18.706 18.717 10.326-.012 18.694-8.385 18.706-18.718zm-85.33-15.927v2.322c.134 20.11-14.365 37.194-33.865 39.904s-37.937-9.798-43.062-29.215c-5.125-19.416 4.656-39.702 22.844-47.38 18.188-7.68 39.128-.363 48.908 17.088l-6.941 3.998c-7.39-13.34-23.096-19.318-37.225-14.169-14.128 5.15-22.588 19.936-20.048 35.043 2.54 15.108 15.342 26.162 30.343 26.198 15 .036 27.854-10.955 30.464-26.05h-30.416v-7.739h38.996zm16.656-35.74h8.328v78.334h-8.328v-78.333zm-108.264 0v78.334h-16.785v-31.594h-31.262v31.594h-16.912v-78.333h16.912v31.463h31.262v-31.463h16.785zm-71.621 15.276h-19.124v63.058h-16.59v-63.058h-19.251v-15.275h54.965zm-89.546-.13v16.45h25.32v15.144h-25.32v16.45h29.584v15.144h-46.637v-78.333h46.637v15.143h-29.584z" fill="#1f294f"/></svg>