<svg fill="none" height="128" viewBox="0 0 438 128" width="438" xmlns="http://www.w3.org/2000/svg" xmlns:xlink="http://www.w3.org/1999/xlink"><clipPath id="a"><path d="m0 0h438v127.452h-438z"/></clipPath><g clip-path="url(#a)"><path d="m388.831 71.6617c3.656-14.4285 13.086-19.6228 20.687-19.6228 8.372 0 16.551 4.9057 17.609 19.6228zm24.248 55.5023c11.065 0 18.667-3.848 24.344-8.273l-1.732-2.501c-5.293 3.944-11.739 6.734-20.014 6.734-15.011 0-28.289-9.139-28.289-36.168 0-5.1943.384-9.8114.769-11.639h49.843c-3.175-19.5266-15.395-26.6447-28.482-26.6447-15.203 0-34.832 13.4666-34.832 38.7646 0 26.9331 19.437 39.7271 38.393 39.7271zm-88.043-1.251h26.076v-2.693c-7.217-1.732-7.409-4.04-7.409-23.5669v-27.318l8.179-8.9457c2.694-3.0781 3.945-4.04 6.35-4.04 3.368 0 5.774 3.0781 9.815 3.0781 3.753 0 5.87-3.0781 5.87-7.4067 0-3.3666-2.406-5.6752-6.64-5.6752-5.581 0-8.852 3.0781-15.395 10.1962l-8.179 8.8495v-19.719l-18.859 10.0999v2.7896c6.735.5771 6.735 1.0581 6.735 22.0275v16.0638c0 19.5269-.192 21.8349-6.543 23.5669zm-55.616-54.2513c3.656-14.4285 13.086-19.6228 20.688-19.6228 8.371 0 16.55 4.9057 17.608 19.6228zm24.248 55.5023c11.065 0 18.667-3.848 24.344-8.273l-1.732-2.501c-5.292 3.944-11.739 6.734-20.014 6.734-15.011 0-28.289-9.139-28.289-36.168 0-5.1943.385-9.8114.769-11.639h49.843c-3.175-19.5266-15.395-26.6447-28.481-26.6447-15.203 0-34.833 13.4666-34.833 38.7646 0 26.9331 19.437 39.7271 38.393 39.7271zm-137.116-57.0413c4.523 0 7.987-3.4629 7.987-7.9838 0-4.4247-3.464-7.8876-7.987-7.8876-4.426 0-7.794 3.4629-7.794 7.8876 0 4.5209 3.368 7.9838 7.794 7.9838zm0 57.3293c4.523 0 7.987-3.27 7.987-7.791s-3.464-7.888-7.987-7.888c-4.426 0-7.794 3.367-7.794 7.888s3.368 7.791 7.794 7.791zm-53.499-3.367c-12.22 0-22.9968-9.619-22.9968-35.6862 0-25.9713 10.7768-36.4561 22.9968-36.4561 12.413 0 23.286 10.4848 23.286 36.4561 0 26.0672-10.873 35.6862-23.286 35.6862zm0 3.175c16.165 0 36.179-13.755 36.179-38.8612 0-25.1056-20.014-39.7265-36.179-39.7265-15.9726 0-35.9867 14.6209-35.9867 39.7265 0 25.1062 20.0141 38.8612 35.9867 38.8612zm-65.6229-.289c11.3542 0 19.533-4.328 24.5365-10.677l-1.6358-2.02c-4.7148 5.194-11.5465 8.657-20.3027 8.657-16.2614 0-27.4231-10.196-27.4231-36.1674 0-25.1056 11.9315-34.5323 25.3062-34.5323 5.9658 0 9.9109 2.2124 10.8731 6.06.5773 2.5009 1.5395 7.2143 6.4468 7.2143 3.9451 0 6.3506-2.5972 6.3506-6.6372 0-6.8295-11.8352-10.0038-23.8629-10.0038-17.5123 0-37.7188 14.9095-37.7188 38.7647 0 24.6247 17.801 39.3417 37.4301 39.3417zm137.5969-1.058h25.691v-2.693c-6.928-1.732-7.12-4.04-7.12-23.5669v-29.4342l5.388-4.9057c9.622-8.8495 15.395-11.5428 20.591-11.5428 6.543 0 10.488 3.8476 10.488 14.1399v31.7428c0 19.5269-.288 21.8349-7.216 23.5669v2.693h25.787v-2.693c-6.447-1.732-6.447-4.04-6.447-23.5669v-31.0694c0-13.9476-7.12-19.5267-19.051-19.5267-7.602 0-15.011 3.8476-24.152 12.4086l-5.388 4.9057v-66.3713l-18.667 9.61903v2.59717c6.543.2885 6.543.7695 6.543 19.719v67.7179c0 19.5269-.193 21.8349-6.447 23.5669z" fill="#101010"/></g></svg>