<svg width="36" height="36" viewBox="0 0 54 51" fill="none" xmlns="http://www.w3.org/2000/svg">
    <path fill-rule="evenodd" clip-rule="evenodd" d="M28.2706 24.8867L33.747 27.4485C34.3058 27.6713 34.9761 27.5599 35.3117 27.2258C35.4198 27.118 35.5392 27.0104 35.6631 26.899C35.9292 26.6593 36.2045 26.4106 36.4292 26.1118C36.8764 25.6663 36.9881 24.9981 36.6526 24.5524L34.0821 19.0946C34.9761 17.6467 35.6468 15.9759 36.0941 14.3051L41.9059 12.3001C42.4645 12.0774 42.7999 11.6319 42.9116 10.9635V10.1839V9.40415C42.9116 8.84722 42.4645 8.29026 41.9059 8.06751L36.2058 5.95121C35.7585 4.28045 35.0883 2.60967 34.1941 1.16167L34.7413 0C45.7634 3.33074 53.7362 13.4865 53.7362 25.5694C53.7362 30.2221 52.5431 34.589 50.448 38.3905C50.314 38.0771 49.8879 37.8708 49.5651 37.8708L44.9594 38.0955C44.1731 37.0847 43.2746 36.1861 42.2637 35.4001L42.4882 30.7954C42.4882 30.4584 42.2637 30.0092 41.9266 29.8969C41.4773 29.6723 41.1401 29.5599 40.691 29.4477C40.3538 29.3354 39.9047 29.4477 39.6799 29.6723L36.6466 33.0416C35.411 32.8169 34.063 32.8169 32.8274 33.0416L29.7944 29.6723C29.5699 29.3354 29.1206 29.223 28.7835 29.4477C28.6849 29.4969 28.5864 29.5246 28.4973 29.5496C28.3836 29.5816 28.2849 29.6093 28.2218 29.6723C27.9972 29.7845 27.7725 29.8969 27.66 29.8969C27.3232 30.0092 27.0983 30.4584 27.0983 30.7954L27.3232 35.4001C26.3118 36.1861 25.301 37.0847 24.6271 38.0955L20.0215 37.8708C19.6844 37.8708 19.2351 38.0955 19.1226 38.4323C18.898 38.8816 18.7858 39.2185 18.6733 39.6678C18.5608 40.0047 18.6733 40.4539 18.898 40.6784L22.268 43.7108C22.0434 44.9463 22.0434 46.294 22.268 47.5294L18.898 50.5617C18.737 50.6688 18.6272 50.8273 18.5812 51C7.77411 47.518 0 37.411 0 25.5694C0 21.494 0.91556 17.6378 2.55069 14.1887C3.01185 15.8645 3.68251 17.5353 4.57661 18.9832L1.89433 24.5524C1.6709 25.1094 1.78262 25.7777 2.11776 26.1118C2.22588 26.2196 2.33402 26.3389 2.44573 26.4623C2.68108 26.7217 2.93274 26.9992 3.23567 27.2258C3.68251 27.6713 4.35319 27.7827 4.80003 27.4485L10.2767 24.8867C11.7297 25.7777 13.4058 26.446 15.0823 26.8916L17.0943 32.6836C17.3177 33.2405 17.765 33.5746 18.4353 33.686H19.2177H20C20.559 33.686 21.1175 33.2405 21.3414 32.6836L23.3529 26.8916C25.2529 26.446 26.8176 25.7777 28.2706 24.8867ZM34.6018 50.7118C37.484 50.7118 39.8209 48.4072 39.8209 45.5646C39.8209 42.7219 37.484 40.4175 34.6018 40.4175C31.7196 40.4175 29.3827 42.7219 29.3827 45.5646C29.3827 48.4072 31.7196 50.7118 34.6018 50.7118ZM26.6745 10.1282C26.6745 14.1735 23.386 17.4529 19.3294 17.4529C15.2728 17.4529 11.9842 14.1735 11.9842 10.1282C11.9842 6.08288 15.2728 2.8035 19.3294 2.8035C23.386 2.8035 26.6745 6.08288 26.6745 10.1282Z" fill="white" fill-opacity="0.87" />
</svg>
    