<svg fill="none" height="156" viewBox="0 0 157 156" width="157" xmlns="http://www.w3.org/2000/svg" xmlns:xlink="http://www.w3.org/1999/xlink"><filter id="a" color-interpolation-filters="sRGB" filterUnits="userSpaceOnUse" height="155.44" width="156.124" x=".215153" y=".244205"><feFlood flood-opacity="0" result="BackgroundImageFix"/><feBlend in="SourceGraphic" in2="BackgroundImageFix" mode="normal" result="shape"/><feGaussianBlur result="effect1_foregroundBlur_1481_6935" stdDeviation="29.403"/></filter><filter id="b" color-interpolation-filters="sRGB" filterUnits="userSpaceOnUse" height="88.2331" width="88.9172" x="33.8186" y="33.8477"><feFlood flood-opacity="0" result="BackgroundImageFix"/><feBlend in="SourceGraphic" in2="BackgroundImageFix" mode="normal" result="shape"/><feGaussianBlur result="effect1_foregroundBlur_1481_6935" stdDeviation="12.6013"/></filter><g filter="url(#a)"><path d="m69.7295 59.0503 10.9741 7.7369 12.8276-4.6614-4.2358 12.8362 8.2378 10.5427-13.5919.1964-7.7363 11.1771-4.1645-12.7148-13.0192-3.6349 11.0182-8.0546z" fill="#f7ce58"/></g><g filter="url(#b)"><path d="m69.7295 59.0503 10.9741 7.7369 12.8276-4.6614-4.2358 12.8362 8.2378 10.5427-13.5919.1964-7.7363 11.1771-4.1645-12.7148-13.0192-3.6349 11.0182-8.0546z" fill="#f7ce58"/></g><path d="m69.9209 58.4556 10.9741 7.7368 12.8276-4.6613-4.2358 12.8362 8.2378 10.5427-13.5919.1964-7.7363 11.1771-4.1645-12.7149-13.0191-3.6348 11.0181-8.0546z" fill="#fff"/></svg>