<svg fill="none" height="392" viewBox="0 0 1512 392" width="1512" xmlns="http://www.w3.org/2000/svg" xmlns:xlink="http://www.w3.org/1999/xlink"><linearGradient id="a" gradientUnits="userSpaceOnUse" x1="756" x2="756" y1="161.826" y2="308.601"><stop offset="0" stop-color="#2a2a4f"/><stop offset=".46875" stop-color="#192443"/><stop offset="1" stop-color="#141425"/></linearGradient><linearGradient id="b" gradientUnits="userSpaceOnUse" x1="1108.5" x2="1108.5" y1="213" y2="158"><stop offset="0" stop-color="#ff2cfb"/><stop offset="1" stop-color="#ff2cfb" stop-opacity="0"/></linearGradient><linearGradient id="c"><stop offset="0" stop-color="#896bff"/><stop offset="1" stop-color="#896bff" stop-opacity="0"/></linearGradient><linearGradient id="d" gradientUnits="userSpaceOnUse" x1="156" x2="156" xlink:href="#c" y1="127" y2="70"/><linearGradient id="e" gradientUnits="userSpaceOnUse" x1="1240" x2="1240" xlink:href="#c" y1="139" y2="77.5"/><linearGradient id="f"><stop offset="0" stop-color="#1fa6ff"/><stop offset="1" stop-color="#1fa6ff" stop-opacity="0"/></linearGradient><linearGradient id="g" gradientUnits="userSpaceOnUse" x1="765" x2="765" xlink:href="#f" y1="173" y2="81"/><linearGradient id="h" gradientUnits="userSpaceOnUse" x1="302" x2="302" xlink:href="#f" y1="204" y2="175"/><linearGradient id="i" gradientUnits="userSpaceOnUse" x1="786" x2="786" y1="263" y2="232"><stop offset="0" stop-color="#01f1f4"/><stop offset="1" stop-color="#01f1f4" stop-opacity="0"/></linearGradient><path d="m0 0h1512v378h-1512z" fill="url(#a)" transform="translate(0 14)"/><path d="m313 105h93v70h-93z" fill="#f09343"/><path d="m174 244v-69h45v69z" fill="#f7ce58"/><path d="m722 173h300v59h-300z" fill="#896bff"/><path clip-rule="evenodd" d="m1021.95 231.499h.03v-.035zm.03-.036v-29.241h-29.231z" fill="#19fbff" fill-rule="evenodd"/><path clip-rule="evenodd" d="m963.5 231.445v.036h29.268v-29.241l-29.232 29.241z" fill="#19fbff" fill-rule="evenodd"/><path clip-rule="evenodd" d="m963.536 173h-.036v.035zm-.036.036v29.241h29.232z" fill="#19fbff" fill-rule="evenodd"/><path clip-rule="evenodd" d="m1022 173.035v-.035h-.04zm-.04-.035h-29.228v29.241z" fill="#19fbff" fill-rule="evenodd"/><path clip-rule="evenodd" d="m963.448 231.499h.035v-.035zm.035-.036v-29.241h-29.231z" fill="#19fbff" fill-rule="evenodd"/><path clip-rule="evenodd" d="m905 231.445v.036h29.268v-29.241l-29.232 29.241z" fill="#19fbff" fill-rule="evenodd"/><path clip-rule="evenodd" d="m905.035 173h-.035v.035zm-.035.036v29.241h29.231z" fill="#19fbff" fill-rule="evenodd"/><path clip-rule="evenodd" d="m963.501 173.035v-.035h-.035zm-.036-.035h-29.232v29.241z" fill="#19fbff" fill-rule="evenodd"/><path clip-rule="evenodd" d="m1021.95 290h.03v-.035zm.03-.036v-29.241h-29.231z" fill="#19fbff" fill-rule="evenodd"/><path clip-rule="evenodd" d="m963.5 289.948v.035h.036zm.037.035h29.231v-29.24z" fill="#19fbff" fill-rule="evenodd"/><path clip-rule="evenodd" d="m963.535 231.5h-.035v.034zm-.035.035v29.242h29.233z" fill="#19fbff" fill-rule="evenodd"/><path clip-rule="evenodd" d="m1022 231.535v-.035h-.04zm-.04-.035h-29.228v29.241z" fill="#19fbff" fill-rule="evenodd"/><path clip-rule="evenodd" d="m963.448 290h.035v-.035zm.035-.036v-29.241h-29.231z" fill="#19fbff" fill-rule="evenodd"/><path clip-rule="evenodd" d="m905 289.948v.035h.035zm.036.035h29.231v-29.24z" fill="#19fbff" fill-rule="evenodd"/><path clip-rule="evenodd" d="m905.035 231.5h-.035v.034zm-.035.035v29.242h29.233z" fill="#19fbff" fill-rule="evenodd"/><path clip-rule="evenodd" d="m963.501 231.535v-.035h-.035zm-.036-.035h-29.232v29.241z" fill="#19fbff" fill-rule="evenodd"/><path d="m1022 158h195v55h-195z" fill="url(#b)"/><path d="m0 87h174v76h-174z" fill="#1fa6ff"/><path d="m428 153h294v63h-294z" fill="#141425"/><path d="m0 70h313v57h-313z" fill="url(#d)"/><path d="m1486.31 63.335h25.69v93.2h-25.69z" fill="#1fa6ff"/><path d="m1114 139v-58h253v58z" fill="url(#e)"/><path d="m539 173v-92h483v92z" fill="url(#g)"/><path d="m174 175v-48h210v48z" fill="#ff2cfb"/><path d="m219 204v-29h187v29z" fill="url(#h)"/><path d="m1113.93 185.167v-45.915h252.82v45.915z" fill="#19fbff"/><g fill="#ff2cfb"><path d="m1366.44 80h9.25v8.9088h-9.25z"/><path d="m1375.69 88.9111h9.25v9.2515h-9.25z"/><path d="m1384.94 80h9.25v8.9088h-9.25z"/><path d="m1403.09 80h9.25v8.9088h-9.25z"/><path d="m1421.59 80h9.25v8.9088h-9.25z"/><path d="m1440.09 80h9.25v8.9088h-9.25z"/><path d="m1458.59 80h8.91v8.9088h-8.91z"/><path d="m1467.5 88.9111h9.25v9.2515h-9.25z"/><path d="m1384.94 98.1611h9.25v9.2519h-9.25z"/><path d="m1394.19 107.414h8.91v9.252h-8.91z"/><path d="m1403.09 98.1611h9.25v9.2519h-9.25z"/><path d="m1394.19 88.9111h8.91v9.2515h-8.91z"/><path d="m1412.34 88.9111h9.25v9.2515h-9.25z"/><path d="m1375.69 107.414h9.25v9.252h-9.25z"/><path d="m1394.19 107.414h8.91v9.252h-8.91z"/><path d="m1412.34 107.414h9.25v9.252h-9.25z"/><path d="m1421.59 98.1611h9.25v9.2519h-9.25z"/><path d="m1440.09 98.1611h9.25v9.2519h-9.25z"/><path d="m1458.59 98.1611h8.91v9.2519h-8.91z"/><path d="m1430.84 107.414h9.25v9.252h-9.25z"/><path d="m1449.34 107.414h9.25v9.252h-9.25z"/><path d="m1467.5 107.414h9.25v9.252h-9.25z"/><path d="m1366.44 116.664h9.25v9.252h-9.25z"/><path d="m1384.94 116.664h9.25v9.252h-9.25z"/><path d="m1385.14 135.339h9.25v9.251h-9.25z"/><path d="m1403.09 116.664h9.25v9.252h-9.25z"/><path d="m1421.59 116.664h9.25v9.252h-9.25z"/><path d="m1375.69 125.916h9.25v9.251h-9.25z"/><path d="m1394.19 125.916h8.91v9.251h-8.91z"/><path d="m1412.34 125.916h9.25v9.251h-9.25z"/><path d="m1430.84 125.916h9.25v9.251h-9.25z"/><path d="m1449.34 125.916h9.25v9.251h-9.25z"/><path d="m1467.5 125.916h9.25v9.251h-9.25z"/><path d="m1366.44 135.169h9.25v9.251h-9.25z"/><path d="m1403.09 135.169h9.25v9.251h-9.25z"/><path d="m1421.59 135.169h9.25v9.251h-9.25z"/><path d="m1440.09 135.169h9.25v9.251h-9.25z"/><path d="m1458.59 135.169h8.91v9.251h-8.91z"/><path d="m1375.69 144.421h9.25v8.909h-9.25z"/><path d="m1394.19 144.421h8.91v8.909h-8.91z"/><path d="m1412.34 144.421h9.25v8.909h-9.25z"/><path d="m1430.84 144.421h9.25v8.909h-9.25z"/><path d="m1449.34 144.421h9.25v8.909h-9.25z"/><path d="m1467.5 144.421h9.25v8.909h-9.25z"/><path d="m1366.44 153.328h9.25v9.252h-9.25z"/><path d="m1384.94 153.328h9.25v9.252h-9.25z"/><path d="m1403.09 153.328h9.25v9.252h-9.25z"/><path d="m1421.59 153.328h9.25v9.252h-9.25z"/><path d="m1440.09 153.328h9.25v9.252h-9.25z"/><path d="m1458.59 153.328h8.91v9.252h-8.91z"/><path d="m1375.69 162.578h9.25v9.252h-9.25z"/><path d="m1394.19 162.578h8.91v9.252h-8.91z"/><path d="m1412.34 162.578h9.25v9.252h-9.25z"/><path d="m1430.84 162.578h9.25v9.252h-9.25z"/><path d="m1449.34 162.578h9.25v9.252h-9.25z"/><path d="m1467.5 162.578h9.25v9.252h-9.25z"/><path d="m1366.44 171.829h9.25v9.252h-9.25z"/><path d="m1366.44 190.335h9.25v9.251h-9.25z"/><path d="m1384.94 171.829h9.25v9.252h-9.25z"/><path d="m1403.09 171.829h9.25v9.252h-9.25z"/><path d="m1421.59 171.829h9.25v9.252h-9.25z"/><path d="m1440.09 171.829h9.25v9.252h-9.25z"/><path d="m1458.59 171.829h8.91v9.252h-8.91z"/><path d="m1375.69 181.083h9.25v9.251h-9.25z"/><path d="m1394.19 181.083h8.91v9.251h-8.91z"/><path d="m1412.34 181.083h9.25v9.251h-9.25z"/><path d="m1430.84 181.083h9.25v9.251h-9.25z"/><path d="m1449.34 181.083h9.25v9.251h-9.25z"/><path d="m1467.5 181.083h9.25v9.251h-9.25z"/><path d="m1384.94 190.335h9.25v9.251h-9.25z"/><path d="m1403.09 190.335h9.25v9.251h-9.25z"/><path d="m1421.59 190.335h9.25v9.251h-9.25z"/><path d="m1440.09 190.335h9.25v9.251h-9.25z"/><path d="m1458.59 190.335h8.91v9.251h-8.91z"/><path d="m1430.84 88.9111h9.25v9.2515h-9.25z"/><path d="m1449.34 88.9111h9.25v9.2515h-9.25z"/><path d="m1440.09 116.664h9.25v9.252h-9.25z"/><path d="m1458.59 116.664h8.91v9.252h-8.91z"/><path d="m1366.44 98.1611h9.25v9.2519h-9.25z"/><path d="m1476.75 80h9.25v8.9088h-9.25z"/><path d="m1476.75 116.664h9.25v9.252h-9.25z"/><path d="m1476.75 135.169h9.25v9.251h-9.25z"/><path d="m1476.75 153.328h9.25v9.252h-9.25z"/><path d="m1476.75 171.829h9.25v9.252h-9.25z"/><path d="m1476.75 190.335h9.25v9.251h-9.25z"/><path d="m1476.75 98.1611h9.25v9.2519h-9.25z"/><path d="m644.255 185.164h6.166v6.168h-6.166z"/><path d="m650.418 191.335h5.824v5.825h-5.824z"/><path d="m656.246 185.164h6.166v6.168h-6.166z"/><path d="m668.234 185.164h6.166v6.168h-6.166z"/><path d="m680.224 185.164h5.824v6.168h-5.824z"/><path d="m692.214 185.164h5.824v6.168h-5.824z"/><path d="m704.204 185.164h5.823v6.168h-5.823z"/><path d="m710.031 191.335h6.166v5.825h-6.166z"/><path d="m656.246 197.157h6.166v5.825h-6.166z"/><path d="m662.41 202.983h5.823v6.168h-5.823z"/><path d="m668.234 197.157h6.166v5.825h-6.166z"/><path d="m662.41 191.335h5.823v5.825h-5.823z"/><path d="m674.402 191.335h5.824v5.825h-5.824z"/><path d="m650.418 202.983h5.824v6.168h-5.824z"/><path d="m662.41 202.983h5.823v6.168h-5.823z"/><path d="m674.402 202.983h5.824v6.168h-5.824z"/><path d="m680.224 197.157h5.824v5.825h-5.824z"/><path d="m692.214 197.157h5.824v5.825h-5.824z"/><path d="m704.204 197.157h5.823v5.825h-5.823z"/><path d="m686.048 202.983h6.167v6.168h-6.167z"/><path d="m698.04 202.983h6.166v6.168h-6.166z"/><path d="m710.031 202.983h6.166v6.168h-6.166z"/><path d="m644.255 209.153h6.166v5.825h-6.166z"/><path d="m656.246 209.153h6.166v5.825h-6.166z"/><path d="m668.234 209.153h6.166v5.825h-6.166z"/><path d="m680.224 209.153h5.824v5.825h-5.824z"/><path d="m650.418 214.976h5.824v6.167h-5.824z"/><path d="m662.41 214.976h5.823v6.167h-5.823z"/><path d="m674.402 214.976h5.824v6.167h-5.824z"/><path d="m686.048 214.976h6.167v6.167h-6.167z"/><path d="m698.04 214.976h6.166v6.167h-6.166z"/><path d="m710.031 214.976h6.166v6.167h-6.166z"/><path d="m644.255 221.144h6.166v5.825h-6.166z"/><path d="m668.234 221.144h6.166v5.825h-6.166z"/><path d="m680.224 221.144h5.824v5.825h-5.824z"/><path d="m656.176 221h5.824v5.825h-5.824z"/><path d="m692.214 221.144h5.824v5.825h-5.824z"/><path d="m704.204 221.144h5.823v5.825h-5.823z"/><path d="m650.418 226.97h5.824v6.167h-5.824z"/><path d="m662.41 226.97h5.823v6.167h-5.823z"/><path d="m674.402 226.97h5.824v6.167h-5.824z"/><path d="m686.048 226.97h6.167v6.167h-6.167z"/><path d="m698.04 226.97h6.166v6.167h-6.166z"/><path d="m710.031 226.97h6.166v6.167h-6.166z"/><path d="m644.255 233.137h6.166v5.825h-6.166z"/><path d="m656.246 233.137h6.166v5.825h-6.166z"/><path d="m668.234 233.137h6.166v5.825h-6.166z"/><path d="m680.224 233.137h5.824v5.825h-5.824z"/><path d="m692.214 233.137h5.824v5.825h-5.824z"/><path d="m704.204 233.137h5.823v5.825h-5.823z"/><path d="m650.418 238.959h5.824v5.825h-5.824z"/><path d="m662.41 238.959h5.823v5.825h-5.823z"/><path d="m674.402 238.959h5.824v5.825h-5.824z"/><path d="m686.048 238.959h6.167v5.825h-6.167z"/><path d="m698.04 238.959h6.166v5.825h-6.166z"/><path d="m710.031 238.959h6.166v5.825h-6.166z"/><path d="m644.255 244.785h6.166v6.168h-6.166z"/><path d="m644.255 256.779h6.166v6.168h-6.166z"/><path d="m656.246 244.785h6.166v6.168h-6.166z"/><path d="m668.234 244.785h6.166v6.168h-6.166z"/><path d="m680.224 244.785h5.824v6.168h-5.824z"/><path d="m692.214 244.785h5.824v6.168h-5.824z"/><path d="m704.204 244.786h5.823v6.168h-5.823z"/><path d="m650.418 250.953h5.824v5.825h-5.824z"/><path d="m662.41 250.953h5.823v5.825h-5.823z"/><path d="m674.402 250.953h5.824v5.825h-5.824z"/><path d="m686.048 250.953h6.167v5.825h-6.167z"/><path d="m698.04 250.953h6.166v5.825h-6.166z"/><path d="m710.031 250.953h6.166v5.825h-6.166z"/><path d="m656.246 256.779h6.166v6.168h-6.166z"/><path d="m668.234 256.779h6.166v6.168h-6.166z"/><path d="m680.224 256.779h5.824v6.168h-5.824z"/><path d="m692.214 256.779h5.824v6.168h-5.824z"/><path d="m704.204 256.779h5.823v6.168h-5.823z"/><path d="m686.048 191.335h6.167v5.825h-6.167z"/><path d="m698.04 191.335h6.166v5.825h-6.166z"/><path d="m692.214 209.153h5.824v5.825h-5.824z"/><path d="m704.204 209.153h5.823v5.825h-5.823z"/><path d="m644.255 197.157h6.166v5.825h-6.166z"/><path d="m716.195 185.164h5.824v6.168h-5.824z"/><path d="m716.195 209.153h5.824v5.825h-5.824z"/><path d="m716.195 221.144h5.824v5.825h-5.824z"/><path d="m716.195 233.137h5.824v5.825h-5.824z"/><path d="m716.195 244.786h5.824v6.168h-5.824z"/><path d="m716.195 256.779h5.824v6.168h-5.824z"/><path d="m716.195 197.157h5.824v5.825h-5.824z"/></g><path d="m383.663 123h22.297v21.93h-22.297z" fill="#f7ce58"/><path d="m428.256 123h21.926v21.93h-21.926z" fill="#f7ce58"/><path d="m472.481 123h21.926v21.93h-21.926z" fill="#f7ce58"/><path d="m494.779 144.931h21.926v22.302h-21.926z" fill="#f7ce58"/><path d="m383.663 167.234h22.297v22.302h-22.297z" fill="#f7ce58"/><path d="m428.256 167.234h21.926v22.302h-21.926z" fill="#f7ce58"/><path d="m472.481 167.234h21.926v22.302h-21.926z" fill="#f7ce58"/><path d="m405.958 189.536h21.926v21.931h-21.926z" fill="#f7ce58"/><path d="m450.183 189.536h22.297v21.931h-22.297z" fill="#f7ce58"/><path d="m494.779 189.536h21.926v21.931h-21.926z" fill="#f7ce58"/><path d="m383.663 211.469h22.297v22.302h-22.297z" fill="#f7ce58"/><path d="m405.958 233.769h21.926v22.302h-21.926z" fill="#f7ce58"/><path d="m450.183 233.769h22.297v22.302h-22.297z" fill="#f7ce58"/><path d="m494.779 233.769h21.926v22.302h-21.926z" fill="#f7ce58"/><path d="m383.663 256.069h22.297v21.931h-22.297z" fill="#f7ce58"/><path d="m428.256 256.069h21.926v21.931h-21.926z" fill="#f7ce58"/><path d="m472.481 256.069h21.926v21.931h-21.926z" fill="#f7ce58"/><path d="m405.958 144.931h21.926v22.302h-21.926z" fill="#f7ce58"/><path d="m450.183 144.931h22.297v22.302h-22.297z" fill="#f7ce58"/><path d="m428.256 211.469h21.926v22.302h-21.926z" fill="#f7ce58"/><path d="m472.481 211.469h21.926v22.302h-21.926z" fill="#f7ce58"/><path d="m516.702 123h22.298v21.93h-22.298z" fill="#f7ce58"/><path d="m516.702 211.469h22.298v22.302h-22.298z" fill="#f7ce58"/><path d="m516.702 256.069h22.298v21.931h-22.298z" fill="#f7ce58"/><path d="m516.702 167.234h22.298v22.302h-22.298z" fill="#f7ce58"/><path d="m85.0004 107h12.6168v12.619h-12.6168z" fill="#19fbff"/><path d="m110.578 107h12.616v12.619h-12.616z" fill="#19fbff"/><path d="m135.808 107h12.958v12.619h-12.958z" fill="#19fbff"/><path d="m148.764 119.621h12.617v12.619h-12.617z" fill="#19fbff"/><path d="m85.0004 132.239h12.6168v12.961h-12.6168z" fill="#19fbff"/><path d="m110.578 132.239h12.616v12.961h-12.616z" fill="#19fbff"/><path d="m135.808 132.239h12.958v12.961h-12.958z" fill="#19fbff"/><path d="m97.9584 145.2h12.6166v12.62h-12.6166z" fill="#19fbff"/><path d="m123.191 145.2h12.617v12.62h-12.617z" fill="#19fbff"/><path d="m148.764 145.2h12.617v12.62h-12.617z" fill="#19fbff"/><path d="m85.0004 157.819h12.6168v12.62h-12.6168z" fill="#19fbff"/><path d="m97.9584 170.439h12.6166v12.62h-12.6166z" fill="#19fbff"/><path d="m123.191 170.439h12.617v12.62h-12.617z" fill="#19fbff"/><path d="m148.764 170.439h12.617v12.62h-12.617z" fill="#19fbff"/><path d="m85.0004 183.06h12.6168v12.619h-12.6168z" fill="#19fbff"/><path d="m110.578 183.06h12.616v12.619h-12.616z" fill="#19fbff"/><path d="m135.808 183.06h12.958v12.619h-12.958z" fill="#19fbff"/><path d="m97.9584 119.621h12.6166v12.619h-12.6166z" fill="#19fbff"/><path d="m123.191 119.621h12.617v12.619h-12.617z" fill="#19fbff"/><path d="m110.578 157.819h12.616v12.62h-12.616z" fill="#19fbff"/><path d="m135.808 157.819h12.958v12.62h-12.958z" fill="#19fbff"/><path d="m161.383 107h12.617v12.619h-12.617z" fill="#19fbff"/><path d="m161.383 157.819h12.617v12.62h-12.617z" fill="#19fbff"/><path d="m161.383 183.06h12.617v12.619h-12.617z" fill="#19fbff"/><path d="m161.383 132.239h12.617v12.961h-12.617z" fill="#19fbff"/><path d="m1241.71 185.163h75.37v27.755h-75.37z" fill="#f09343"/><path d="m1113.93 212.234h127.78v13.706h-127.78z" fill="#896bff"/><path d="m722 232h134v31h-134z" fill="url(#i)"/><path d="m576.083 263.288h101.06v25.356h-101.06z" fill="#f7ce58"/><path d="m756.278 221.144h21.582v67.501h-21.582z" fill="#050111"/><path d="m1113.93 225.939h127.78v14.049h-127.78z" fill="#3a95ff"/><path d="m1022 46h92v92h-92z" fill="#050111"/><path d="m846 117h59v56h-59z" fill="#f09343"/><path d="m362 228h22v22h-22z" fill="#141425"/><path d="m244 101h26v26h-26z" fill="#2a2a4f"/><path d="m509.881 62h29.119v28.7824h-29.119z" fill="#28294e"/><path d="m87 0h22v22h-22z" fill="#28294e"/><path d="m156 255h23v23h-23z" fill="#141425"/><path d="m982 27h25v25h-25z" fill="#28294e"/><path d="m1371 237h25v25h-25z" fill="#050111"/><path d="m56.2236 185h28.7764v29.125h-28.7764z" fill="#ff2cfb"/><path d="m1256.44 120.062h29.12v29.126h-29.12z" fill="#f7ce58"/><path d="m1113.93 243.288h24.32v24.328h-24.32z" fill="#050111"/><path d="m778 289h26v26h-26z" fill="#ff2cfb"/><path d="m1021.77 192.234h92.16v51.055h-92.16z" fill="#f7ce58"/><path d="m1022 295v-142h14v142z" fill="#141425"/><path d="m1170.79 216.346v-123.6956h14.05v123.6956z" fill="#2a2a4f"/><path d="m1335.18 196.679v-75.848h14.4v75.848z" fill="#141425"/><path d="m305 252v-139h15v139z" fill="#141425"/><path d="m20 150v-84h14v84z" fill="#2a2a4f"/><path d="m576.082 236.22h68.173v42.488h-68.173z" fill="#1fa6ff"/><path d="m1466 43h20v20h-20z" fill="#28294e"/></svg>