<svg fill="none" height="179" viewBox="0 0 178 179" width="178" xmlns="http://www.w3.org/2000/svg" xmlns:xlink="http://www.w3.org/1999/xlink"><filter id="a" color-interpolation-filters="sRGB" filterUnits="userSpaceOnUse" height="177.629" width="176.654" x=".798828" y=".713867"><feFlood flood-opacity="0" result="BackgroundImageFix"/><feBlend in="SourceGraphic" in2="BackgroundImageFix" mode="normal" result="shape"/><feGaussianBlur result="effect1_foregroundBlur_1775_11966" stdDeviation="35"/></filter><filter id="b" color-interpolation-filters="sRGB" filterUnits="userSpaceOnUse" height="97.6289" width="96.6543" x="40.7988" y="40.7139"><feFlood flood-opacity="0" result="BackgroundImageFix"/><feBlend in="SourceGraphic" in2="BackgroundImageFix" mode="normal" result="shape"/><feGaussianBlur result="effect1_foregroundBlur_1775_11966" stdDeviation="15"/></filter><g filter="url(#a)"><path d="m84.3511 70.7141 9.5159 9.1046 13.138-2.6481-5.999 11.8297 6.447 11.4257-13.2233-1.793-9.1532 9.71-2.1737-12.9382-12.1042-5.4252 11.8801-6.2027z" fill="#f7ce58"/></g><g filter="url(#b)"><path d="m84.3511 70.7141 9.5159 9.1046 13.138-2.6481-5.999 11.8297 6.447 11.4257-13.2233-1.793-9.1532 9.71-2.1737-12.9382-12.1042-5.4252 11.8801-6.2027z" fill="#f7ce58"/></g><path d="m84.6245 70.1653 9.5159 9.1045 13.1376-2.648-5.999 11.8296 6.448 11.4262-13.2239-1.7934-9.1532 9.7098-2.1736-12.9381-12.1042-5.4251 11.88-6.2028z" fill="#fff"/></svg>