<svg fill="none" height="143" viewBox="0 0 145 143" width="145" xmlns="http://www.w3.org/2000/svg" xmlns:xlink="http://www.w3.org/1999/xlink"><filter id="a" color-interpolation-filters="sRGB" filterUnits="userSpaceOnUse" height="141.682" width="144.219" x=".37793" y=".441406"><feFlood flood-opacity="0" result="BackgroundImageFix"/><feBlend in="SourceGraphic" in2="BackgroundImageFix" mode="normal" result="shape"/><feGaussianBlur result="effect1_foregroundBlur_1775_11935" stdDeviation="25"/></filter><filter id="b" color-interpolation-filters="sRGB" filterUnits="userSpaceOnUse" height="101.682" width="104.219" x="20.3779" y="20.4414"><feFlood flood-opacity="0" result="BackgroundImageFix"/><feBlend in="SourceGraphic" in2="BackgroundImageFix" mode="normal" result="shape"/><feGaussianBlur result="effect1_foregroundBlur_1775_11935" stdDeviation="15"/></filter><g filter="url(#a)"><path d="m72.2473 50.4413 7.0393 13.5466 15.3104 1.9541-10.8935 10.7964 2.8372 14.9645-13.7718-6.874-13.557 7.2944 2.3821-15.0448-11.2159-10.4563 15.244-2.4242z" fill="#f09343"/></g><g filter="url(#b)"><path d="m72.2473 50.4413 7.0393 13.5466 15.3104 1.9541-10.8935 10.7964 2.8372 14.9645-13.7718-6.874-13.557 7.2944 2.3821-15.0448-11.2159-10.4563 15.244-2.4242z" fill="#f09343"/></g><path d="m73.2473 51.4481 7.0393 13.5466 15.3104 1.9542-10.8935 10.7964 2.8372 14.9645-13.7718-6.8741-13.557 7.2944 2.3821-15.0448-11.2159-10.4563 15.244-2.4241z" fill="#fff"/></svg>