<svg fill="none" height="105" viewBox="0 0 382 105" width="382" xmlns="http://www.w3.org/2000/svg" xmlns:xlink="http://www.w3.org/1999/xlink"><radialGradient id="a" cx="0" cy="0" gradientTransform="matrix(-24.73591297 59.97816539 -40.94137246 -16.88484833 28.4485 30.6526)" gradientUnits="userSpaceOnUse" r="1"><stop offset="0" stop-color="#142167"/><stop offset="1" stop-color="#263db5"/></radialGradient><radialGradient id="b" cx="0" cy="0" gradientTransform="matrix(-40.61512736 44.4636526 -155.57143273 -142.10603908 69.4037 36.1683)" gradientUnits="userSpaceOnUse" r="1"><stop offset="0" stop-color="#4259d4"/><stop offset="1" stop-color="#6a81fc"/></radialGradient><clipPath id="c"><path d="m0 14.5614h75.7193v75.7193h-75.7193z"/></clipPath><path d="m100.59 70c-.279 0-.541-.1049-.7861-.3146-.2097-.2446-.3145-.5067-.3145-.7863 0-.2097.0174-.3669.0524-.4718l12.3192-33.6543c.105-.4193.332-.7688.681-1.0484.35-.2796.804-.4194 1.363-.4194h7.758c.56 0 1.014.1398 1.363.4194.35.2796.577.6291.682 1.0484l12.266 33.6543.105.4718c0 .2796-.122.5417-.367.7863-.209.2097-.471.3146-.786.3146h-6.448c-.839 0-1.398-.367-1.677-1.1009l-2.045-5.3469h-13.996l-1.992 5.3469c-.28.7339-.856 1.1009-1.73 1.1009zm22.069-13.9965-4.875-13.8391-4.875 13.8391zm25.281 14.5207c-2.83 0-5.207-.4019-7.129-1.2057-1.887-.8038-3.285-1.7648-4.194-2.8832-.908-1.1183-1.363-2.1143-1.363-2.988 0-.3494.123-.629.367-.8387.28-.2446.577-.3669.892-.3669h5.976c.209 0 .401.0873.576.2621.42.2795.734.5067.944.6814.769.5592 1.433.9786 1.992 1.2581.594.2447 1.31.367 2.149.367 1.013 0 1.835-.1922 2.464-.5766.664-.4194.996-.996.996-1.7299 0-.5941-.175-1.0659-.524-1.4154-.315-.3495-.944-.6815-1.888-.996-.943-.3495-2.376-.7164-4.298-1.1009-2.901-.5941-5.137-1.5551-6.71-2.8831-1.538-1.363-2.307-3.1802-2.307-5.4518 0-1.4328.455-2.7958 1.363-4.0888.909-1.2931 2.255-2.3415 4.037-3.1453 1.817-.8038 3.966-1.2057 6.448-1.2057 2.481 0 4.648.3844 6.5 1.1533 1.852.7688 3.25 1.7124 4.194 2.8307.978 1.0834 1.467 2.0794 1.467 2.988 0 .3145-.122.5941-.367.8387-.209.2447-.471.367-.786.367h-5.452c-.279 0-.541-.0874-.786-.2621-.454-.2446-.856-.5067-1.206-.7863-.594-.4543-1.153-.8038-1.677-1.0484-.524-.2447-1.171-.367-1.94-.367-.908 0-1.642.2097-2.201.6291-.525.4193-.787.961-.787 1.625 0 .5242.14.9611.42 1.3105.314.3495.943.699 1.887 1.0485.978.3145 2.411.6465 4.298.996 3.39.5941 5.854 1.6425 7.392 3.1452 1.572 1.5028 2.359 3.2676 2.359 5.2945 0 2.5862-1.154 4.6655-3.46 6.2382-2.307 1.5376-5.522 2.3065-9.646 2.3065zm26.063 0c-2.831 0-5.207-.4019-7.129-1.2057-1.887-.8038-3.285-1.7648-4.194-2.8832-.909-1.1183-1.363-2.1143-1.363-2.988 0-.3494.122-.629.367-.8387.28-.2446.577-.3669.891-.3669h5.976c.21 0 .402.0873.577.2621.419.2795.734.5067.943.6814.769.5592 1.433.9786 1.992 1.2581.594.2447 1.311.367 2.15.367 1.013 0 1.834-.1922 2.463-.5766.664-.4194.996-.996.996-1.7299 0-.5941-.174-1.0659-.524-1.4154-.314-.3495-.943-.6815-1.887-.996-.944-.3495-2.376-.7164-4.298-1.1009-2.901-.5941-5.138-1.5551-6.71-2.8831-1.538-1.363-2.307-3.1802-2.307-5.4518 0-1.4328.454-2.7958 1.363-4.0888.909-1.2931 2.254-2.3415 4.036-3.1453 1.818-.8038 3.967-1.2057 6.448-1.2057 2.482 0 4.648.3844 6.5 1.1533 1.853.7688 3.251 1.7124 4.194 2.8307.979 1.0834 1.468 2.0794 1.468 2.988 0 .3145-.122.5941-.367.8387-.21.2447-.472.367-.786.367h-5.452c-.28 0-.542-.0874-.786-.2621-.455-.2446-.857-.5067-1.206-.7863-.594-.4543-1.153-.8038-1.678-1.0484-.524-.2447-1.17-.367-1.939-.367-.909 0-1.643.2097-2.202.6291-.524.4193-.786.961-.786 1.625 0 .5242.14.9611.419 1.3105.315.3495.944.699 1.887 1.0485.979.3145 2.412.6465 4.299.996 3.39.5941 5.854 1.6425 7.391 3.1452 1.573 1.5028 2.359 3.2676 2.359 5.2945 0 2.5862-1.153 4.6655-3.46 6.2382-2.306 1.5376-5.521 2.3065-9.645 2.3065zm27.426 0c-4.194 0-7.497-1.1358-9.908-3.4074s-3.67-5.5741-3.774-9.9076v-1.8347c.139-4.1238 1.415-7.339 3.826-9.6455 2.447-2.3415 5.714-3.5122 9.803-3.5122 2.971 0 5.469.6116 7.496 1.8347 2.062 1.1883 3.6 2.8308 4.613 4.9276 1.049 2.0969 1.573 4.5082 1.573 7.2341v1.2581c0 .3495-.122.664-.367.9436-.245.2446-.559.367-.944.367h-16.774v.3669c.07 1.6425.472 2.9705 1.205 3.984.734 1.0135 1.8 1.5202 3.198 1.5202.874 0 1.59-.1747 2.149-.5242.56-.3844 1.066-.8387 1.521-1.3629.314-.3845.559-.6116.733-.6815.21-.1049.525-.1573.944-.1573h6.5c.315 0 .577.1049.787.3146.244.1747.367.4193.367.7338 0 .9087-.525 1.9571-1.573 3.1453-1.014 1.1882-2.499 2.2192-4.456 3.0929-1.957.8736-4.263 1.3105-6.919 1.3105zm4.403-16.932v-.1049c0-1.7124-.402-3.0579-1.206-4.0364-.769-1.0135-1.852-1.5202-3.25-1.5202-1.363 0-2.446.5067-3.25 1.5202-.769.9785-1.153 2.324-1.153 4.0364v.1049zm12.539 16.4078c-.385 0-.699-.1223-.944-.367-.245-.2446-.367-.5591-.367-.9436v-24.6379c0-.3844.122-.6989.367-.9435.245-.2447.559-.367.944-.367h5.714c.384 0 .699.1223.943.367.245.2446.367.5591.367.9435v1.7824c.804-1.0485 1.87-1.9047 3.198-2.5687 1.363-.6989 2.883-1.0484 4.56-1.0484 3.845 0 6.501 1.5027 7.968 4.5082.839-1.328 2.01-2.4113 3.513-3.2501 1.502-.8387 3.11-1.2581 4.822-1.2581 2.866 0 5.19.9785 6.972 2.9356 1.818 1.9221 2.726 4.8053 2.726 8.6495v14.8875c0 .3495-.122.664-.367.9436-.244.2447-.559.367-.943.367h-6.081c-.385 0-.717-.1223-.996-.367-.245-.2446-.367-.5591-.367-.9436v-14.5206c0-1.7474-.367-3.0055-1.101-3.7743-.699-.7688-1.66-1.1533-2.883-1.1533-1.118 0-2.044.4019-2.778 1.2057-.734.7689-1.101 2.0095-1.101 3.7219v14.5206c0 .3495-.123.664-.367.9436-.245.2447-.559.367-.944.367h-6.081c-.384 0-.699-.1223-.943-.367-.245-.2446-.367-.5591-.367-.9436v-14.5206c0-1.7124-.385-2.953-1.153-3.7219-.734-.8038-1.678-1.2057-2.831-1.2057-1.118 0-2.062.4019-2.831 1.2057-.734.7689-1.101 1.992-1.101 3.6695v14.573c0 .3495-.122.664-.367.9436-.244.2447-.559.367-.943.367zm60.465.5242c-3.494 0-6.203-1.1708-8.125-3.5122v1.6774c0 .3495-.122.664-.367.9436-.245.2447-.559.367-.943.367h-5.924c-.35 0-.664-.1223-.944-.367-.244-.2796-.367-.5941-.367-.9436v-34.5979c0-.3844.123-.6989.367-.9435.28-.2447.594-.367.944-.367h6.395c.385 0 .699.1223.944.367.245.2446.367.5591.367.9435v11.2182c1.957-2.0619 4.508-3.0929 7.653-3.0929 3.39 0 6.064 1.1009 8.021 3.3025 1.957 2.2017 3.005 5.1897 3.145 8.964.035.4544.052 1.0834.052 1.8872 0 .7688-.017 1.3804-.052 1.8347-.175 3.9141-1.223 6.9546-3.145 9.1213-1.922 2.1318-4.596 3.1977-8.021 3.1977zm-2.83-7.0244c1.642 0 2.813-.4893 3.512-1.4678.734-.9786 1.153-2.324 1.258-4.0365.07-.6989.105-1.2406.105-1.625s-.035-.9261-.105-1.6251c-.105-1.7124-.524-3.0579-1.258-4.0364-.699-.9785-1.87-1.4678-3.512-1.4678-1.538 0-2.709.4718-3.513 1.4154-.803.9436-1.24 2.1318-1.31 3.5646l-.053 1.9396.053 1.992c.105 1.5726.524 2.8657 1.258 3.8792.769.9785 1.957 1.4678 3.565 1.4678zm17.629 6.5002c-.35 0-.664-.1223-.944-.367-.244-.2796-.367-.5941-.367-.9436v-34.5979c0-.3844.123-.6989.367-.9435.28-.2447.594-.367.944-.367h6.186c.384 0 .699.1223.943.367.245.2446.367.5591.367.9435v34.5979c0 .3845-.122.699-.367.9436-.244.2447-.559.367-.943.367zm15.861 9.96c-.314 0-.576-.1049-.786-.3146-.21-.2096-.314-.4717-.314-.7863 0-.2446.052-.4718.157-.6814l4.089-9.8552-10.065-23.7992c-.105-.2795-.157-.4892-.157-.629.069-.3145.209-.5766.419-.7863.21-.2447.472-.367.786-.367h5.976c.734 0 1.241.367 1.52 1.1009l5.976 15.2545 6.134-15.2545c.349-.7339.873-1.1009 1.572-1.1009h5.871c.315 0 .577.1223.787.367.244.2097.367.4543.367.7339 0 .1398-.053.3669-.158.6814l-14.835 34.3358c-.279.7339-.803 1.1009-1.572 1.1009zm19.663-9.96c-.28 0-.542-.1049-.787-.3146-.209-.2446-.314-.5067-.314-.7863 0-.2097.017-.3669.052-.4718l12.319-33.6543c.105-.4193.332-.7688.682-1.0484.349-.2796.804-.4194 1.363-.4194h7.758c.559 0 1.013.1398 1.363.4194.349.2796.577.6291.681 1.0484l12.267 33.6543.105.4718c0 .2796-.123.5417-.367.7863-.21.2097-.472.3146-.786.3146h-6.448c-.839 0-1.398-.367-1.678-1.1009l-2.044-5.3469h-13.997l-1.992 5.3469c-.279.7339-.856 1.1009-1.729 1.1009zm22.069-13.9965-4.875-13.8391-4.875 13.8391zm15.95 13.9965c-.35 0-.664-.1223-.944-.367-.244-.2796-.367-.5941-.367-.9436v-34.0736c0-.3845.123-.699.367-.9436.28-.2447.594-.367.944-.367h7.024c.385 0 .699.1223.944.367.279.2446.419.5591.419.9436v34.0736c0 .3845-.14.699-.419.9436-.245.2447-.559.367-.944.367z" fill="#09032f"/><g clip-path="url(#c)"><path d="m7.1544 65.2002-5.99179 14.0845c-1.681149 3.9431-1.997292 8.4399 2.21277 10.0063 1.00582.3782 2.026.5537 3.04619.5537 3.24734 0 6.33663-1.8365 7.61543-4.8479l1.207-2.8358 9.2392-21.7007 9.196-21.6196c2.1947-3.843 3.5407-9.7567 12.156-12.9367-6.6979-.859-20.2-2.6266-20.335-2.6266-.0862.135-.9883 1.5058-1.0745 1.6408-.1868.2971-.3736.6077-.5173.9318-.0143.027-.0143.0405-.0287.054l-16.71093 39.2692s-.01437.0135-.01437.027z" fill="url(#a)"/><path d="m67.0559 65.2001 5.9918 14.0845c1.6811 3.9432 1.9973 8.4399-2.2128 10.0064-1.0058.3781-2.026.5537-3.0462.5537-3.2473 0-6.3366-1.8366-7.6154-4.8479l-1.207-2.8358-9.2392-21.7007-9.196-21.6197c-2.1947-3.8429-5.8996-11.7867-15.7942-14.3546 1.2501-2.9303 5.5348-3.4299 8.8828-3.4299h9.0811.0718c.3592.0135.7041.054 1.0777.108.1868.027.3879.027.5747.0675.2443.054.4742.1486.7185.2161.273.081.546.135.8046.243.115.0541.2299.1216.3449.1756.3592.162.704.3241 1.0345.5266.2299.1351.4167.3241.6322.4862.1868.1485.4024.2836.5748.4456.158.1621.3017.3511.4598.5267.1868.216.3879.4051.546.6346.0862.1351.1581.2971.2443.4322.1868.297.3736.6076.5173.9317.0143.027.0143.0405.0287.054l16.7109 39.2692s.0144.0135.0144.027z" fill="url(#b)"/></g></svg>