<?xml version="1.0" encoding="UTF-8"?>
<svg id="Layer_2" data-name="Layer 2" xmlns="http://www.w3.org/2000/svg" viewBox="0 0 380.46 120">
  <g id="Layer_1-2" data-name="Layer 1">
    <g>
      <path d="m380.06,6.33c-.22-.7-.52-1.37-.9-1.99-.45-.74-1.01-1.41-1.65-2-.11-.1-.22-.19-.33-.28-.78-.64-1.66-1.15-2.63-1.51-.97-.36-2.01-.55-3.09-.55H29.88c-.19,0-.37,0-.55.02-.05,0-.11,0-.16.01-.13.01-.26.02-.39.04-.06,0-.11.01-.17.02-.15.02-.31.05-.46.08-.02,0-.04,0-.06.01-.18.04-.35.08-.52.12-.05.01-.09.03-.14.04-.13.04-.25.07-.38.11-.05.02-.1.04-.15.05-.13.05-.27.1-.4.15-.03.01-.06.02-.09.04-.16.07-.32.14-.47.22-.04.02-.08.04-.11.06-.12.06-.23.12-.35.19l-.14.08c-.12.07-.23.14-.35.21-.03.02-.06.04-.1.06-.14.09-.28.19-.42.3-.03.02-.05.04-.08.06-.11.09-.22.17-.32.26-.04.03-.08.06-.12.1-.1.09-.2.18-.29.27-.03.03-.06.06-.09.09-.05.05-.11.11-.16.16,0,0,0,0,0,0L2.24,21.81c-1.43,1.43-2.24,3.38-2.24,5.41v85.13c0,4.22,3.42,7.65,7.65,7.65h346.06c2.03,0,3.97-.8,5.41-2.24l19.04-22.11c.35-.39.66-.8.94-1.25,0-.02.02-.03.03-.05.05-.08.1-.17.15-.26.02-.04.04-.07.06-.1.04-.08.09-.16.13-.24.02-.04.05-.09.07-.13.04-.08.08-.15.11-.23.02-.05.05-.1.07-.15.03-.08.06-.15.09-.22.02-.06.05-.12.07-.17.03-.07.05-.15.08-.22.02-.06.04-.12.06-.19.02-.07.05-.14.07-.21.02-.07.04-.13.06-.2.02-.07.04-.14.06-.21.02-.07.03-.14.05-.22.02-.07.03-.13.04-.2.02-.08.03-.15.04-.23.01-.06.02-.13.03-.19.01-.08.02-.17.03-.25,0-.06.01-.12.02-.18,0-.09.01-.19.02-.29,0-.05,0-.1.01-.15,0-.15.01-.3.01-.45V9c0-.93-.14-1.83-.4-2.67ZM116.83,88.3c0,4.22-3.42,7.65-7.65,7.65H29.88c-1.74,0-3.31-.7-4.46-1.85-.28-.29-.54-.6-.77-.93-.57-.84-.94-1.82-1.04-2.88-.02-.21-.03-.43-.03-.64V9c0-.12,0-.24.01-.35,0-.04,0-.07,0-.11,0-.08.01-.16.02-.24,0-.04.01-.08.02-.12,0-.08.02-.15.03-.22,0-.04.01-.08.02-.12.01-.08.03-.15.05-.22,0-.04.02-.08.03-.11.02-.08.04-.16.06-.24,0-.03.02-.05.02-.08.07-.22.15-.44.24-.65,0,0,0,0,0-.01.04-.1.09-.2.14-.3,0-.02.02-.03.02-.05.04-.09.09-.17.14-.26,0-.02.02-.04.03-.05.05-.08.1-.17.15-.25,0-.01.02-.02.02-.04.06-.09.12-.18.19-.27h0c.35-.48.76-.9,1.21-1.26.4-.31.83-.57,1.3-.79,0,0,.02,0,.03-.01.15-.07.3-.13.46-.18.01,0,.02,0,.03-.01.31-.11.62-.19.95-.25.03,0,.05,0,.08-.01.15-.02.31-.05.47-.06.03,0,.05,0,.08,0,.16-.01.32-.02.49-.02h79.3c4.22,0,7.65,3.42,7.65,7.65v77.95Zm260.93,1.35c0,.18-.01.36-.02.54,0,.02,0,.04,0,.06-.02.17-.04.33-.07.5,0,.03-.01.05-.01.08-.03.16-.07.33-.11.49,0,.02-.01.04-.02.06-.05.17-.1.33-.16.49,0,0,0,0,0,.01-.19.51-.45.99-.77,1.43,0,0,0,0,0,0-.11.15-.22.29-.33.42-.07.08-.15.16-.22.25,0,0,0,0,0,0-.07.08-.15.15-.23.23,0,0,0,0-.01,0-.08.07-.16.15-.24.22,0,0,0,0,0,0-.42.36-.89.66-1.4.9,0,0-.02.01-.03.01-.09.04-.18.08-.26.12-.02.01-.05.02-.07.03-.08.03-.15.06-.23.09-.03.01-.06.02-.09.03-.07.02-.14.05-.22.07-.04.01-.07.02-.11.03-.07.02-.14.04-.21.05-.04.01-.08.02-.12.03-.07.02-.14.03-.21.04-.04,0-.08.01-.12.02-.07.01-.14.02-.22.03-.04,0-.08.01-.12.02-.08,0-.16.01-.24.02-.03,0-.06,0-.1,0-.11,0-.23,0-.34,0H127.18c-4.23,0-7.65-3.42-7.65-7.65V10.35c0-4.23,3.43-7.65,7.65-7.65h244.28c1.09,0,2.11.28,3,.76.45.24.86.54,1.23.88.08.07.15.14.22.21.14.14.28.29.41.45.13.16.25.32.36.49.68,1.01,1.08,2.22,1.08,3.52v80.65Z"/>
      <g>
        <circle cx="81.08" cy="49.32" r="5.48"/>
        <circle cx="59.33" cy="49.32" r="5.48"/>
      </g>
      <g>
        <path d="m164.07,66.55h-16.92l-.5-.5v-33.85l.5-.5h15.93c4.98,0,9.96,2.49,9.96,8.96,0,3.53-1.44,6.47-4.98,7.47v.5c3.98,1,5.97,3.88,5.97,8.46,0,6.97-4.98,9.46-9.96,9.46Zm-1.99-28.87h-7.96l-.5.5v6.97l.5.5h7.96c2.99,0,3.98-1.99,3.98-3.98,0-2.54-1-3.98-3.98-3.98Zm0,13.94h-7.96l-.5.5v7.96l.5.5h7.96c3.58,0,4.98-1.49,4.98-4.48s-1.39-4.48-4.98-4.48Z"/>
        <path d="m201.57,56.6h-15.43l-.5.5c0,1,1,3.98,4.98,3.98,1.54,0,2.94-.5,3.48-1.49l.5-.5h5.97l.5.5c-.5,2.99-2.99,7.46-10.45,7.46-8.51,0-12.44-5.97-12.44-12.94s3.98-12.94,11.95-12.94,11.95,5.97,11.95,12.94v1.99l-.5.5Zm-11.45-9.46c-3.98,0-4.48,3.43-4.48,3.98l.5.5h7.96l.5-.5c0-.55-.5-3.98-4.48-3.98Z"/>
        <path d="m223.77,66.55l-.5-.5v-14.44c0-2.54-1-4.48-3.98-4.48-3.58,0-5.48,1.89-5.48,6.47v12.44l-.5.5h-5.97l-.5-.5v-23.89l.5-.5h5.48l.5.5.5,1.49h.5c.95-.95,2.99-2.49,6.47-2.49,5.97,0,9.46,3.98,9.46,9.95v14.93l-.5.5h-5.97Z"/>
        <path d="m246.68,60.58h4.48l.5.5v4.98l-.5.5h-4.48c-4.48,0-8.46-2.04-8.46-7.47v-10.95l-.5-.5h-3.48l-.5-.5v-4.98l.5-.5h3.48l.5-.5v-4.48l.5-.5h5.97l.5.5v4.48l.5.5h5.47l.5.5v4.98l-.5.5h-5.47l-.5.5v10.95c0,1,.5,1.49,1.49,1.49Z"/>
        <path d="m267.18,67.05c-7.42,0-12.44-4.98-12.44-12.94s5.03-12.94,12.44-12.94,12.44,4.98,12.44,12.94-5.03,12.94-12.44,12.94Zm0-19.91c-3.58,0-5.48,2.39-5.48,6.97s1.89,6.97,5.48,6.97,5.47-2.39,5.47-6.97-1.89-6.97-5.47-6.97Z"/>
        <path d="m285.64,31.59h6.44l8.87,25.04c1.1,3.06,1.55,4.57,1.55,4.57h.09s.46-1.51,1.55-4.57l9-25.04h6.4v34.96h-4.34v-30.02h-.14s-.55,1.78-1.87,5.48l-8.82,24.54h-4.02l-8.59-24.54c-1.23-3.66-1.87-5.48-1.87-5.48h-.14v30.02h-4.11V31.59Z"/>
        <path d="m329.03,31.59h4.25v31.17h17.37v3.79h-21.62V31.59Z"/>
      </g>
    </g>
  </g>
</svg>