<svg fill="none" height="4350" viewBox="0 0 16392 4350" width="16392" xmlns="http://www.w3.org/2000/svg" xmlns:xlink="http://www.w3.org/1999/xlink"><filter id="a" color-interpolation-filters="sRGB" filterUnits="userSpaceOnUse" height="2890.88" width="2890.88" x="837.978" y="736.962"><feFlood flood-opacity="0" result="BackgroundImageFix"/><feColorMatrix in="SourceAlpha" result="hardAlpha" type="matrix" values="0 0 0 0 0 0 0 0 0 0 0 0 0 0 0 0 0 0 127 0"/><feOffset dx="7.51855" dy="7.51855"/><feGaussianBlur stdDeviation="46.991"/><feColorMatrix type="matrix" values="0 0 0 0 0 0 0 0 0 0 0 0 0 0 0 0 0 0 0.5 0"/><feBlend in2="BackgroundImageFix" mode="normal" result="effect1_dropShadow_815_39"/><feBlend in="SourceGraphic" in2="effect1_dropShadow_815_39" mode="normal" result="shape"/></filter><clipPath id="b"><path d="m0 0h16392v4349.77h-16392z"/></clipPath><g clip-path="url(#b)"><path d="m5228.35 3102.69h-628.5v-1854.73h641.18c184.14 0 342.33 37.13 474.55 111.39 132.83 73.66 234.86 179.62 306.1 317.88s106.87 303.69 106.87 496.28c0 193.2-35.93 359.24-107.77 498.1-71.25 138.86-174.19 245.42-308.82 319.69-134.04 74.26-295.24 111.39-483.61 111.39zm-292.52-290.71h276.22c129.2 0 236.97-23.55 323.31-70.64 86.34-47.69 151.24-118.64 194.71-212.82 43.47-94.79 65.21-213.13 65.21-355.01s-21.74-259.61-65.21-353.19c-43.47-94.19-107.77-164.52-192.9-211.01-84.52-47.1-189.58-70.64-315.16-70.64h-286.18zm1497.46 290.71v-1391.05h317.88v231.84h14.49c25.35-80.3 68.82-142.18 130.41-185.65 62.18-44.07 133.12-66.11 212.82-66.11 18.11 0 38.34.9 60.68 2.72 22.94 1.2 41.96 3.32 57.05 6.33v301.58c-13.89-4.83-35.92-9.06-66.11-12.68-29.58-4.23-58.26-6.34-86.04-6.34-59.77 0-113.5 12.98-161.2 38.94-47.09 25.36-84.22 60.68-111.39 105.96s-40.75 97.51-40.75 156.68v817.78zm1560.62 27.17c-135.84 0-253.57-29.89-353.19-89.66s-176.9-143.39-231.84-250.86c-54.34-107.47-81.51-233.05-81.51-376.74s27.17-269.58 81.51-377.65c54.94-108.07 132.22-191.99 231.84-251.76s217.35-89.66 353.19-89.66c135.85 0 253.58 29.89 353.2 89.66s176.6 143.69 230.93 251.76c54.95 108.07 82.42 233.96 82.42 377.65s-27.47 269.27-82.42 376.74c-54.33 107.47-131.31 191.09-230.93 250.86s-217.35 89.66-353.2 89.66zm1.82-262.64c73.65 0 135.24-20.22 184.74-60.67 49.51-41.06 86.34-96 110.49-164.83 24.75-68.83 37.13-145.5 37.13-230.03 0-85.13-12.38-162.1-37.13-230.93-24.15-69.43-60.98-124.68-110.49-165.73-49.5-41.06-111.09-61.58-184.74-61.58-75.47 0-138.26 20.52-188.38 61.58-49.5 41.05-86.63 96.3-111.39 165.73-24.15 68.83-36.22 145.8-36.22 230.93 0 84.53 12.07 161.2 36.22 230.03 24.76 68.83 61.89 123.77 111.39 164.83 50.12 40.45 112.91 60.67 188.38 60.67zm942.98 757.11v-1912.69h322.4v230.03h19.02c16.91-33.81 40.76-69.73 71.55-107.77 30.79-38.64 72.45-71.54 124.97-98.71 52.53-27.77 119.55-41.66 201.05-41.66 107.47 0 204.37 27.47 290.71 82.41 86.99 54.34 155.79 134.94 206.49 241.8 51.3 106.27 77 236.68 77 391.24 0 152.75-25.1 282.55-75.2 389.42-50.1 106.86-118.3 188.37-204.67 244.52-86.33 56.14-184.14 84.22-293.42 84.22-79.7 0-145.81-13.28-198.33-39.85-52.53-26.56-94.79-58.56-126.79-95.99-31.4-38.04-55.85-73.96-73.36-107.77h-13.58v740.8zm321.5-1217.17c0 89.96 12.68 168.75 38.04 236.37 25.96 67.62 63.09 120.45 111.39 158.49 48.9 37.43 108.07 56.15 177.5 56.15 72.45 0 133.13-19.32 182.03-57.96 48.91-39.25 85.74-92.68 110.49-160.3 25.36-68.22 38.04-145.8 38.04-232.75 0-86.33-12.38-163.01-37.14-230.02-24.75-67.02-61.58-119.55-110.48-157.58-48.91-38.04-109.89-57.06-182.94-57.06-70.03 0-129.5 18.42-178.41 55.24-48.9 36.83-86.03 88.45-111.39 154.87-24.75 66.41-37.13 144.6-37.13 234.55zm1286.89 695.53v-1854.73h327.8v693.71h13.6c16.9-33.81 40.8-69.73 71.6-107.77 30.8-38.64 72.4-71.54 124.9-98.71 52.6-27.77 119.6-41.66 201.1-41.66 107.5 0 204.4 27.47 290.7 82.41 86.9 54.34 155.8 134.94 206.5 241.8 51.3 106.27 77 236.68 77 391.24 0 152.75-25.1 282.55-75.2 389.42-50.1 106.86-118.3 188.37-204.7 244.52-86.3 56.14-184.1 84.22-293.4 84.22-79.7 0-145.8-13.28-198.3-39.85-52.6-26.56-94.8-58.56-126.8-95.99-31.4-38.04-55.9-73.96-73.4-107.77h-19v219.16zm321.5-695.53c0 89.96 12.7 168.75 38 236.37 26 67.62 63.1 120.45 111.4 158.49 48.9 37.43 108.1 56.15 177.5 56.15 72.5 0 133.2-19.32 182.1-57.96 48.9-39.25 85.7-92.68 110.5-160.3 25.3-68.22 38-145.8 38-232.75 0-86.33-12.4-163.01-37.1-230.02-24.8-67.02-61.6-119.55-110.5-157.58-48.9-38.04-109.9-57.06-183-57.06-70 0-129.5 18.42-178.4 55.24-48.9 36.83-86 88.45-111.4 154.87-24.7 66.41-37.1 144.6-37.1 234.55zm1670.7 723.6c-88.2 0-167.6-15.7-238.2-47.09-70.1-32-125.6-79.09-166.7-141.28-40.4-62.19-60.6-138.86-60.6-230.03 0-78.49 14.5-143.39 43.4-194.71 29-51.32 68.6-92.37 118.7-123.16 50.1-30.8 106.5-54.04 169.3-69.74 63.4-16.3 128.9-28.07 196.6-35.32 81.5-8.45 147.6-16 198.3-22.64 50.7-7.24 87.5-18.11 110.5-32.6 23.5-15.09 35.3-38.34 35.3-69.73v-5.44c0-68.22-20.2-121.05-60.7-158.48-40.4-37.43-98.7-56.15-174.8-56.15-80.3 0-144 17.51-191.1 52.53-46.5 35.01-77.8 76.37-94.1 124.07l-306.1-43.47c24.1-84.53 63.9-155.17 119.5-211.92 55.5-57.36 123.5-100.22 203.8-128.6 80.3-28.98 169-43.47 266.2-43.47 67 0 133.7 7.85 200.2 23.55 66.4 15.69 127 41.66 182 77.88 54.9 35.62 99 84.22 132.2 145.81 33.8 61.58 50.7 138.56 50.7 230.93v930.99h-315.1v-191.09h-10.9c-19.9 38.64-48 74.87-84.2 108.68-35.6 33.2-80.6 60.07-135 80.6-53.7 19.92-116.8 29.88-189.2 29.88zm85.1-240.9c65.8 0 122.9-12.98 171.2-38.94 48.3-26.56 85.4-61.58 111.3-105.05 26.6-43.47 39.9-90.86 39.9-142.18v-163.92c-10.3 8.45-27.8 16.3-52.5 23.54-24.2 7.25-51.4 13.59-81.5 19.02-30.2 5.44-60.1 10.27-89.7 14.49-29.6 4.23-55.2 7.85-77 10.87-48.9 6.64-92.6 17.51-131.3 32.6-38.6 15.1-69.1 36.23-91.5 63.4-22.3 26.56-33.5 60.98-33.5 103.24 0 60.37 22.1 105.96 66.1 136.75 44.1 30.79 100.3 46.18 168.5 46.18zm2078.4-810.53-298.8 32.6c-8.5-30.19-23.3-58.56-44.4-85.13-20.6-26.56-48.3-48-83.3-64.3-35.1-16.3-77.9-24.45-128.6-24.45-68.3 0-125.6 14.79-172.1 44.38-45.9 29.58-68.5 67.92-67.9 115.01-.6 40.45 14.2 73.36 44.3 98.71 30.8 25.36 81.6 46.19 152.2 62.49l237.3 50.72c131.6 28.37 229.4 73.35 293.4 134.94 64.6 61.58 97.2 142.18 97.8 241.8-.6 87.54-26.3 164.82-77 231.84-50.1 66.41-119.8 118.33-209.2 155.77-89.3 37.43-192 56.15-307.9 56.15-170.3 0-307.3-35.63-411.2-106.87-103.8-71.84-165.7-171.77-185.6-299.76l319.7-30.79c14.5 62.79 45.3 110.18 92.4 142.18 47 32 108.3 48 183.8 48 77.9 0 140.4-16 187.5-48 47.7-32 71.5-71.54 71.5-118.64 0-39.84-15.4-72.75-46.2-98.71-30.2-25.96-77.3-45.88-141.3-59.77l-237.2-49.81c-133.5-27.77-232.2-74.56-296.2-140.37-64-66.42-95.7-150.34-95.1-251.77-.6-85.73 22.7-159.99 69.8-222.78 47.7-63.4 113.8-112.3 198.3-146.71 85.1-35.02 183.2-52.53 294.3-52.53 163 0 291.3 34.72 384.9 104.15 94.2 69.43 152.5 163.31 174.8 281.65zm916.1 1050.53c-139.5 0-260-28.98-361.4-86.94-100.8-58.57-178.4-141.28-232.7-248.15-54.4-107.46-81.5-233.95-81.5-379.45 0-143.09 27.1-268.67 81.5-376.75 54.9-108.67 131.6-193.2 230-253.57 98.4-60.98 214-91.47 346.8-91.47 85.8 0 166.7 13.89 242.8 41.66 76.6 27.17 144.3 69.43 202.8 126.79 59.2 57.35 105.7 130.41 139.5 219.16 33.8 88.15 50.7 193.2 50.7 315.16v100.52h-1140.2v-220.97h825.9c-.6-62.79-14.1-118.64-40.7-167.54-26.6-49.51-63.7-88.45-111.4-116.83-47.1-28.37-102-42.56-164.8-42.56-67 0-125.9 16.3-176.6 48.9-50.7 32-90.3 74.26-118.7 126.79-27.7 51.92-41.9 108.98-42.5 171.16v192.9c0 80.9 14.8 150.34 44.3 208.3 29.6 57.35 71 101.43 124.1 132.22 53.2 30.19 115.3 45.28 186.6 45.28 47.7 0 90.8-6.64 129.5-19.92 38.6-13.89 72.1-34.12 100.5-60.68 28.4-26.57 49.8-59.47 64.3-98.72l306.1 34.42c-19.3 80.9-56.1 151.54-110.5 211.92-53.7 59.77-122.5 106.26-206.5 139.46-83.9 32.61-179.9 48.91-287.9 48.91z" fill="#161616"/><g filter="url(#a)"><rect fill="#fff" height="2702.92" rx="187.964" width="2702.92" x="924.441" y="823.426"/></g><rect fill="#161616" height="2187.9" rx="152.149" width="2187.9" x="1181.95" y="1080.94"/><g fill="#fff"><path d="m2168.59 2863.13h-359.96c-118.76 0-215.03-96.27-215.03-215.03v-946.13c0-118.76 96.27-215.03 215.03-215.03h359.96z"/><path d="m2384.16 1556.43c0-29.69 24.07-53.76 53.76-53.76h359.96c89.07 0 161.27 72.21 161.27 161.27v403.19c0 29.69-24.07 53.75-53.75 53.75h-359.96c-89.07 0-161.28-72.2-161.28-161.27z"/><path d="m2384.16 2298.28c0-29.69 24.07-53.76 53.76-53.76h359.96c89.07 0 161.27 72.21 161.27 161.28v403.18c0 29.69-24.07 53.76-53.75 53.76h-359.96c-89.07 0-161.28-72.21-161.28-161.28z"/></g></g></svg>