<svg fill="none" height="82" viewBox="0 0 259 82" width="259" xmlns="http://www.w3.org/2000/svg" xmlns:xlink="http://www.w3.org/1999/xlink"><linearGradient id="a" gradientUnits="userSpaceOnUse" x1="47.9999" x2="47.9999" y1="3" y2="79"><stop offset="0" stop-color="#33b9e2"/><stop offset="1" stop-color="#198eb0"/></linearGradient><path d="m108.965 32.3594v-22.67581c0-.4427.156-.82682.469-1.15234.325-.32552.716-.48828 1.171-.48828.443 0 .827.16276 1.153.48828.325.32552.488.70964.488 1.15234v9.66801h10v-9.66801c0-.4427.156-.82682.469-1.15234.325-.32552.716-.48828 1.172-.48828.455 0 .84.16276 1.152.48828.326.32552.488.72266.488 1.19141v22.63674c0 .4427-.169.8268-.507 1.1523-.326.3255-.704.4883-1.133.4883-.469 0-.86-.1562-1.172-.4688-.313-.3255-.469-.7161-.469-1.1718v-9.7266h-9.961v9.7266c0 .4427-.169.8268-.508 1.1523-.325.3255-.716.4883-1.172.4883-.442 0-.826-.1562-1.152-.4688-.325-.3255-.488-.7161-.488-1.1718zm38.219-10.8008v10.8008c0 .4557-.163.8463-.489 1.1718-.325.3126-.709.4688-1.152.4688-.469 0-.866-.1562-1.191-.4688-.326-.3255-.489-.7161-.489-1.1718v-10.8008l-6.601-8.3594v-3.47654c0-.46875.156-.86589.468-1.19141.326-.32552.717-.48828 1.172-.48828.456 0 .847.16927 1.172.50781.339.32552.508.71615.508 1.17188v2.24614l4.922 6.3476 5-6.3086v-2.28514c0-.45573.163-.84636.488-1.17188.326-.33854.71-.50781 1.153-.50781.429 0 .807.15625 1.132.46875.339.29948.508.70312.508 1.21094v3.43754zm18.218 10.8008v-24.31643h11.641c1.341 0 2.493.48828 3.457 1.46484.977.97659 1.465 2.14189 1.465 3.49609v6.1523c0 1.3542-.482 2.5131-1.445 3.4766-.964.9636-2.123 1.4453-3.477 1.4453h-8.32v8.2813c0 .4557-.163.8463-.489 1.1718-.312.3126-.696.4688-1.152.4688-.469 0-.866-.1562-1.191-.4688-.326-.3255-.489-.7161-.489-1.1718zm3.321-11.5625h8.32c.443 0 .827-.1563 1.152-.4688.326-.3255.489-.7161.489-1.1719v-6.1523c0-.4557-.163-.8398-.489-1.1523-.325-.3256-.709-.4883-1.152-.4883h-8.32zm-59.68 52.2031v-24.3164c0-.4427.163-.8268.488-1.1524.326-.3255.71-.4882 1.153-.4882.442 0 .826.1627 1.152.4882.325.3256.488.7097.488 1.1524v21.0352h11.602c.456 0 .846.1627 1.172.4882.338.3125.507.6966.507 1.1524 0 .4557-.169.8463-.507 1.1718-.326.3126-.716.4688-1.172.4688zm28.277-2.2852 6.641-22.4414c.26-.8203.807-1.2304 1.641-1.2304.807 0 1.315.345 1.523 1.0351l6.543 22.793c.052.1693.078.332.078.4883 0 .4557-.156.8463-.469 1.1718-.312.3126-.67.4688-1.074.4688-.859 0-1.406-.3971-1.641-1.1914l-1.328-4.4531h-7.48l-1.445 4.7656c-.039.2083-.202.4101-.489.6055-.286.1823-.599.2734-.937.2734-.482 0-.879-.1628-1.192-.4883-.312-.3255-.468-.7226-.468-1.1914 0-.1953.032-.3971.097-.6055zm8.242-16.0742-2.812 9.3946h5.527zm36.364 10.3125v1.4453c0 1.8099-.645 3.3659-1.934 4.668-1.276 1.2891-2.819 1.9336-4.629 1.9336h-10.039v-25.957h10.039c1.81 0 3.353.6445 4.629 1.9336 1.289 1.289 1.934 2.845 1.934 4.6679v1.3867c0 1.9402-.749 3.5938-2.246 4.961 1.497 1.3932 2.246 3.0469 2.246 4.9609zm-3.36-9.9609v-1.3477c0-.9114-.325-1.6927-.976-2.3437-.638-.6511-1.406-.9766-2.305-.9766h-6.68v7.9492h6.68c.886 0 1.654-.319 2.305-.957.651-.651.976-1.4258.976-2.3242zm0 11.4062v-1.3672c0-.9114-.325-1.6927-.976-2.3437-.638-.651-1.406-.9766-2.305-.9766h-6.64v7.9688h6.64c.886 0 1.654-.319 2.305-.957.651-.6511.976-1.4258.976-2.3243zm18.727-19.3554h8.535c1.042 0 2.025.4427 2.949 1.3281.938.8724 1.407 1.9336 1.407 3.1836 0 .4687-.17.8659-.508 1.1914-.326.3255-.69.4883-1.094.4883-.56 0-.944-.1237-1.152-.3711-.209-.2604-.41-.7357-.606-1.4258-.182-.6901-.599-1.0352-1.25-1.0352h-8.105c-.391 0-.586.1237-.586.3711 0 .1563.084.3386.254.5469l12.168 15.5664c.586.7552.879 1.5625.879 2.4219 0 .9766-.358 1.8359-1.075 2.5781-.703.7422-1.491 1.1133-2.363 1.1133h-8.848c-1.171 0-2.194-.4427-3.066-1.3281-.859-.8985-1.289-1.8815-1.289-2.9492 0-1.224.573-1.836 1.719-1.836.442 0 .82.1628 1.133.4883.312.3125.468.6836.468 1.1133 0 .3515.117.6445.352.8789.247.2344.553.3516.918.3516h8.164c.351 0 .527-.1368.527-.4102 0-.1302-.084-.2995-.254-.5078l-12.148-15.5664c-.573-.7422-.86-1.5495-.86-2.4219 0-1.0156.365-1.8945 1.094-2.6367.729-.7552 1.608-1.1328 2.637-1.1328z" fill="#3d3d3d"/><path d="m109.434 8.53125-.354-.35363-.007.00736zm2.812 10.82035h-.5v.5h.5zm10 0v.5h.5v-.5zm.469-10.82035-.354-.35363-.007.00736zm2.324 0-.361.34634.008.00721zm-.019 24.98045-.347-.3605-.007.007zm-2.305.0195-.361.3464.007.0072zm-.469-10.8984h.5v-.5h-.5zm-9.961 0v-.5h-.5v.5zm-.508 10.8789-.346-.3605-.007.007zm-2.324.0195-.354.3537.008.007zm.012-1.1718v-22.67581h-1v22.67581zm0-22.67581c0-.31088.104-.57167.329-.80607l-.721-.69254c-.4.41664-.608.92408-.608 1.49861zm.322-.79879c.233-.23282.497-.34183.818-.34183v-1c-.589 0-1.107.21651-1.525.63473zm.818-.34183c.305 0 .563.10591.799.34183l.707-.7071c-.415-.41512-.924-.63473-1.506-.63473zm.799.34183c.236.23593.342.49448.342.79879h1c0-.5811-.22-1.09077-.635-1.50589zm.342.79879v9.66801h1v-9.66801zm.5 10.16801h10v-1h-10zm10.5-.5v-9.66801h-1v9.66801zm0-9.66801c0-.31088.105-.57167.33-.80607l-.722-.69254c-.4.41664-.608.92408-.608 1.49861zm.322-.79879c.233-.23282.497-.34183.819-.34183v-1c-.59 0-1.107.21651-1.526.63473zm.819-.34183c.321 0 .574.10834.791.33455l.722-.69254c-.408-.42483-.923-.64201-1.513-.64201zm.799.34183c.229.22986.341.499.341.83786h1c0-.59865-.213-1.12377-.634-1.54496zm.341.83786v22.63674h1v-22.63674zm0 22.63674c0 .2977-.107.5542-.354.7919l.693.7208c.43-.4133.661-.925.661-1.5127zm-.361.7988c-.239.2391-.492.3418-.779.3418v1c.572 0 1.074-.2228 1.486-.6347zm-.779.3418c-.345 0-.606-.1097-.819-.3223l-.707.7071c.413.4124.933.6152 1.526.6152zm-.811-.315c-.223-.2314-.33-.4975-.33-.8256h-1c0 .5833.205 1.0985.608 1.5181zm-.33-.8256v-9.7266h-1v9.7266zm-.5-10.2266h-9.961v1h9.961zm-10.461.5v9.7266h1v-9.7266zm0 9.7266c0 .2977-.107.5542-.354.7919l.693.7208c.43-.4133.661-.925.661-1.5127zm-.361.7988c-.233.2328-.497.3418-.819.3418v1c.59 0 1.108-.2165 1.526-.6347zm-.819.3418c-.31 0-.571-.1044-.806-.3294l-.692.7213c.416.4.924.6081 1.498.6081zm-.798-.3223c-.233-.2328-.342-.4967-.342-.8183h-1c0 .5898.216 1.1072.635 1.5254zm37.377-11.6191-.394-.309-.106.136v.173zm-.489 11.9726.347.3608.007-.0072zm-2.343 0-.354.3537.007.007zm-.489-11.9726h.5v-.1736l-.107-.1363zm-6.601-8.3594h-.5v.1736l.107.1363zm.468-4.66795-.353-.35363-.007.00736zm2.344.01953-.36.34656.007.00706.007.0068zm.508 3.41802h-.5v.1711l.105.1352zm4.922 6.3476-.395.3064.391.504.396-.4998zm5-6.3086.392.3106.108-.1365v-.1741zm.488-3.45702.354.35362.007-.00706zm2.285-.03906-.346.36069.007.00706.008.00675zm.508 4.64848.393.3089.107-.136v-.1729zm-7.101 8.3984v10.8008h1v-10.8008zm0 10.8008c0 .3216-.109.5855-.342.8183l.707.7071c.418-.4182.635-.9356.635-1.5254zm-.335.8112c-.234.225-.495.3294-.806.3294v1c.575 0 1.082-.2081 1.499-.6081zm-.806.3294c-.345 0-.617-.1101-.845-.3294l-.693.7213c.423.4057.946.6081 1.538.6081zm-.838-.3223c-.233-.2328-.342-.4967-.342-.8183h-1c0 .5898.217 1.1072.635 1.5254zm-.342-.8183v-10.8008h-1v10.8008zm-.107-11.1107-6.602-8.3594-.785.6198 6.602 8.3594zm-6.494-8.0495v-3.47654h-1v3.47654zm0-3.47654c0-.34523.11-.61667.329-.84514l-.721-.69254c-.406.42257-.608.9454-.608 1.53768zm.322-.83786c.233-.23282.497-.34183.818-.34183v-1c-.59 0-1.107.21651-1.525.63473zm.818-.34183c.315 0 .577.11049.812.35437l.721-.69311c-.417-.43321-.936-.66126-1.533-.66126zm.826.36823c.244.23449.354.49634.354.81146h1c0-.59635-.228-1.11575-.661-1.5323zm.354.81146v2.24614h1v-2.24614zm.105 2.55244 4.922 6.3477.79-.6128-4.922-6.3476zm5.709 6.3519 5-6.3086-.784-.6212-5 6.3086zm5.108-6.6192v-2.28514h-1v2.28514zm0-2.28514c0-.32162.109-.5855.342-.81833l-.707-.7071c-.419.41822-.635.93558-.635 1.52543zm.349-.82532c.237-.24717.494-.35437.792-.35437v-1c-.588 0-1.1.23134-1.513.66126zm.792-.35437c.293 0 .549.10137.786.32944l.693-.72138c-.414-.39694-.914-.60806-1.479-.60806zm.801.34325c.217.19225.339.45215.339.83644h1c0-.63134-.217-1.17874-.676-1.58544zm.339.83644v3.43754h1v-3.43754zm.107 3.12854-6.602 8.3984.787.618 6.601-8.3985zm12.01-4.80823v-.5h-.5v.5zm15.098 1.46484-.356.35118.002.00238zm.02 13.12499.353.3536zm-11.797 1.4453v-.5h-.5v.5zm-.489 9.4531-.353-.3535zm-2.343 0-.354.3537.007.007zm2.832-12.7343h-.5v.5h.5zm9.472-.4688.347.3608.007-.0072zm0-8.4765-.353.3536.007.0071zm-9.472-.4883v-.5h-.5v.5zm-2.821 20.9961v-24.31643h-1v24.31643zm-.5-23.81643h11.641v-1h-11.641zm11.641 0c1.204 0 2.229.43222 3.101 1.31601l.712-.70234c-1.055-1.06933-2.335-1.61367-3.813-1.61367zm3.103 1.3184c.885.88483 1.319 1.92393 1.319 3.14253h1c0-1.4897-.543-2.7814-1.611-3.84964zm1.319 3.14253v6.1523h1v-6.1523zm0 6.1523c0 1.2207-.429 2.2526-1.299 3.1231l.707.7071c1.057-1.0567 1.592-2.3424 1.592-3.8302zm-1.299 3.1231c-.87.8704-1.902 1.2988-3.123 1.2988v1c1.488 0 2.773-.5351 3.83-1.5917zm-3.123 1.2988h-8.32v1h8.32zm-8.82.5v8.2813h1v-8.2813zm0 8.2813c0 .3216-.109.5855-.342.8183l.707.7071c.418-.4182.635-.9356.635-1.5254zm-.342.8183c-.216.2155-.471.3223-.799.3223v1c.584 0 1.096-.2057 1.506-.6152zm-.799.3223c-.345 0-.617-.1101-.845-.3294l-.693.7213c.423.4057.946.6081 1.538.6081zm-.838-.3223c-.233-.2328-.342-.4967-.342-.8183h-1c0 .5898.217 1.1072.635 1.5254zm2.479-11.8808h8.32v-1h-8.32zm8.32 0c.575 0 1.082-.2081 1.499-.6081l-.693-.7214c-.234.2251-.495.3295-.806.3295zm1.506-.6152c.418-.4182.635-.9356.635-1.5255h-1c0 .3217-.109.5855-.342.8184zm.635-1.5255v-6.1523h-1v6.1523zm0-6.1523c0-.5903-.218-1.1052-.642-1.513l-.693.7214c.226.2171.335.4705.335.7916zm-.635-1.5059c-.415-.4151-.925-.6347-1.506-.6347v1c.304 0 .563.1059.799.3418zm-1.506-.6347h-8.32v1h8.32zm-8.82.5v9.4336h1v-9.4336zm-59.18 61.6367h-.5v.5h.5zm3.281-3.2812h-.5v.5h.5zm12.774.4882-.354.3536.007.007.008.0068zm0 2.3242.346.3607v-.0002zm-15.555.4688v-24.3164h-1v24.3164zm0-24.3164c0-.3043.106-.5629.342-.7988l-.707-.7071c-.415.4151-.635.9248-.635 1.5059zm.342-.7988c.236-.2359.494-.3418.799-.3418v-1c-.582 0-1.091.2196-1.506.6347zm.799-.3418c.304 0 .562.1059.798.3418l.707-.7071c-.415-.4151-.924-.6347-1.505-.6347zm.798.3418c.236.2359.342.4945.342.7988h1c0-.5811-.219-1.0908-.635-1.5059zm.342.7988v21.0352h1v-21.0352zm.5 21.5352h11.602v-1h-11.602zm11.602 0c.321 0 .585.109.818.3418l.707-.7071c-.418-.4182-.935-.6347-1.525-.6347zm.833.3556c.237.2191.346.4705.346.785h1c0-.597-.228-1.1138-.668-1.5198zm.346.785c0 .3151-.11.5769-.354.8114l.693.7209c.433-.4166.661-.936.661-1.5323zm-.354.8112c-.231.2221-.497.3294-.825.3294v1c.583 0 1.098-.2052 1.518-.6081zm-.825.3294h-14.883v1h14.883zm13.394-1.7852.478.1492.002-.0073zm6.641-22.4414-.477-.1513-.003.0095zm3.164-.1953.481-.1379-.002-.0066zm6.543 22.793-.481.138.003.009zm-.391 1.6601.354.3537.007-.0074zm-2.715-.7226.48-.1415v-.0014zm-1.328-4.4531.48-.1429-.107-.3571h-.373zm-7.48 0v-.5h-.371l-.108.3549zm-1.445 4.7656-.479-.1451-.008.0261-.005.0268zm-.489.6055.269.4218.006-.0043.007-.0044zm5.742-18.086.481-.1388-.472-1.6329-.487 1.6283zm-2.812 9.3946-.479-.1434-.193.6434h.672zm5.527 0v.5h.665l-.184-.6389zm-10.477 6.8215 6.64-22.4414-.959-.2837-6.64 22.4414zm6.638-22.432c.106-.3367.258-.5461.428-.6741.17-.127.403-.2076.736-.2076v-1c-.501 0-.958.1244-1.336.4076-.376.2821-.628.688-.782 1.1715zm1.164-.8817c.334 0 .556.0714.705.1723.143.0973.262.252.339.5073l.958-.289c-.132-.4347-.371-.7977-.735-1.0454-.359-.2441-.795-.3452-1.267-.3452zm1.042.6731 6.543 22.793.962-.276-6.543-22.7929zm6.546 22.802c.039.1279.056.241.056.3413h1c0-.2123-.035-.4247-.1-.6353zm.056.3413c0 .3281-.107.5942-.329.8256l.721.6925c.403-.4196.608-.9348.608-1.5181zm-.322.8183c-.229.2285-.463.3223-.721.3223v1c.55 0 1.031-.2187 1.428-.6152zm-.721.3223c-.353 0-.593-.0809-.761-.2024-.165-.1203-.307-.3147-.4-.6305l-.959.283c.141.4785.39.8797.772 1.1566.379.2756.842.3933 1.348.3933zm-1.161-.8343-1.328-4.4531-.959.2858 1.328 4.4531zm-1.808-4.8102h-7.48v1h7.48zm-7.959.3549-1.445 4.7656.957.2902 1.445-4.7656zm-1.458 4.8185c-.003.0156-.035.1187-.278.2845l.563.8263c.33-.2248.623-.5253.698-.9265zm-.265.2758c-.207.1314-.426.1953-.669.1953v1c.434 0 .839-.1184 1.206-.3516zm-.669.1953c-.356 0-.62-.1144-.831-.3345l-.721.6925c.413.4309.944.642 1.552.642zm-.831-.3345c-.219-.2285-.329-.5-.329-.8452h-1c0 .5923.202 1.1151.608 1.5377zm-.329-.8452c0-.1392.023-.2907.075-.4563l-.955-.2983c-.078.251-.12.5032-.12.7546zm7.361-16.8231-2.813 9.3946.958.2868 2.812-9.3946zm-2.334 10.038h5.527v-1h-5.527zm6.008-.6389-2.715-9.3945-.961.2776 2.715 9.3946zm31.234 7.1701-.355-.3518v.0001zm-14.668 1.9336h-.5v.5h.5zm0-25.957v-.5h-.5v.5zm14.668 1.9336-.355.3517.002.0018zm-.312 11.0156-.337-.3693-.401.3658.397.3695zm-2.09-8.6914-.357.35.003.0035zm-8.985-.9766v-.5h-.5v.5zm0 7.9492h-.5v.5h.5zm8.985-.957.35.3571.003-.0035zm0 5.3711-.357.35.003.0036zm-8.945-.9766v-.5h-.5v.5zm0 7.9688h-.5v.5h.5zm8.945-.957.35.3571.003-.0036zm3.836-3.7696v1.4453h1v-1.4453zm0 1.4453c0 1.6764-.591 3.1065-1.789 4.3162l.711.7036c1.38-1.3944 2.078-3.0763 2.078-5.0198zm-1.789 4.3163c-1.183 1.1944-2.598 1.7853-4.274 1.7853v1c1.944 0 3.615-.6981 4.985-2.0818zm-4.274 1.7853h-10.039v1h10.039zm-9.539.5v-25.957h-1v25.957zm-.5-25.457h10.039v-1h-10.039zm10.039 0c1.676 0 3.091.5909 4.274 1.7853l.711-.7035c-1.37-1.3837-3.041-2.0818-4.985-2.0818zm4.276 1.7871c1.195 1.1953 1.787 2.6241 1.787 4.3144h1c0-1.9555-.697-3.6387-2.08-5.0215zm1.787 4.3144v1.3867h1v-1.3867zm0 1.3867c0 1.7926-.685 3.3145-2.083 4.5917l.674.7385c1.596-1.4571 2.409-3.2425 2.409-5.3302zm-2.087 5.327c1.404 1.306 2.087 2.83 2.087 4.5949h1c0-2.0632-.814-3.8464-2.406-5.327zm-.273-5.366v-1.3477h-1v1.3477zm0-1.3477c0-1.0455-.379-1.9535-1.123-2.6973l-.707.7071c.559.5584.83 1.2129.83 1.9902zm-1.119-2.6937c-.731-.7454-1.627-1.1266-2.662-1.1266v1c.762 0 1.402.2699 1.948.8265zm-2.662-1.1266h-6.68v1h6.68zm-7.18.5v7.9492h1v-7.9492zm.5 8.4492h6.68v-1h-6.68zm6.68 0c1.021 0 1.913-.3733 2.655-1.0999l-.7-.7142c-.561.5494-1.205.8141-1.955.8141zm2.658-1.1034c.743-.7422 1.123-1.6431 1.123-2.6778h-1c0 .7622-.27 1.4108-.83 1.9707zm1.123 8.7284v-1.3672h-1v1.3672zm0-1.3672c0-1.0455-.379-1.9535-1.123-2.6973l-.707.7072c.559.5583.83 1.2128.83 1.9901zm-1.119-2.6937c-.731-.7454-1.627-1.1266-2.662-1.1266v1c.762 0 1.402.2699 1.948.8266zm-2.662-1.1266h-6.64v1h6.64zm-7.14.5v7.9688h1v-7.9688zm.5 8.4688h6.64v-1h-6.64zm6.64 0c1.021 0 1.913-.3733 2.655-1.0999l-.7-.7143c-.561.5495-1.205.8142-1.955.8142zm2.658-1.1035c.743-.7422 1.123-1.6431 1.123-2.6778h-1c0 .7622-.27 1.4108-.83 1.9707zm30.834-20.7051-.346.3611.006.0049zm.899 4.375-.347-.3605-.007.0069zm-2.246.1172-.391.3124.008.0096zm-.606-1.4258-.483.1277.002.0085zm-9.687-.1172.394-.308-.006-.0073zm12.168 15.5664.395-.3065-.001-.0014zm-.196 5-.359-.3472-.004.0033zm-14.277-.2148-.361.3456.005.0053zm1.563-4.2969-.361.3463.007.0073zm.82 1.9922-.354.3537.01.0093zm9.355-.5664-.394.3077.006.0076zm-12.148-15.5664-.396.3055.002.0021zm.234-5.0586.357.3504.003-.0031zm2.637-.6328h8.535v-1h-8.535zm8.535 0c.885 0 1.75.3714 2.604 1.1892l.691-.7222c-.995-.953-2.096-1.467-3.295-1.467zm2.609 1.1941c.838.7805 1.247 1.7102 1.247 2.8176h1c0-1.3927-.53-2.5853-1.566-3.5496zm1.247 2.8176c0 .3324-.114.5995-.355.831l.693.7208c.437-.4196.662-.9468.662-1.5518zm-.362.8378c-.246.2461-.488.3419-.74.3419v1c.555 0 1.042-.2298 1.447-.6348zm-.74.3419c-.515 0-.707-.1188-.77-.1932l-.765.6441c.354.4205.931.5491 1.535.5491zm-.762-.1835c-.141-.1763-.321-.5667-.515-1.2496l-.962.2724c.197.6973.421 1.2574.696 1.6019zm-.512-1.2411c-.11-.414-.303-.7763-.614-1.0338-.315-.2611-.702-.3737-1.12-.3737v1c.234 0 .381.06.482.1439.106.0877.212.2429.285.519zm-1.734-1.4075h-8.105v1h8.105zm-8.105 0c-.232 0-.492.0339-.707.1704-.254.161-.379.4201-.379.7007h1c0 .0048-.001.0333-.021.0706-.021.0387-.048.0626-.065.0735-.014.0088-.013.0039.019-.0027.031-.0066.08-.0125.153-.0125zm-1.086.8711c0 .3285.171.6228.366.8622l.776-.6306c-.067-.0821-.105-.1447-.125-.1882-.02-.0434-.017-.0557-.017-.0434zm.36.8548 12.168 15.5664.788-.6158-12.168-15.5664zm12.167 15.565c.526.6779.774 1.3795.774 2.1154h1c0-.9828-.338-1.8959-.984-2.7284zm.774 2.1154c0 .8392-.303 1.5762-.934 2.2309l.719.6944c.801-.8296 1.215-1.8114 1.215-2.9253zm-.938 2.2342c-.626.6612-1.289.9572-2 .9572v1c1.034 0 1.946-.4462 2.726-1.2694zm-2 .9572h-8.848v1h8.848zm-8.848 0c-1.029 0-1.925-.3826-2.71-1.179l-.712.7018c.96.9744 2.108 1.4772 3.422 1.4772zm-2.705-1.1737c-.786-.8218-1.15-1.6858-1.15-2.6036h-1c0 1.2175.495 2.3197 1.428 3.2948zm-1.15-2.6036c0-.5429.128-.8569.295-1.0353.161-.1722.437-.3007.924-.3007v-1c-.659 0-1.243.1775-1.654.6173-.406.4336-.565 1.0375-.565 1.7187zm1.219-1.336c.303 0 .552.1051.772.3346l.721-.6926c-.405-.4216-.911-.642-1.493-.642zm.779.3419c.222.2217.322.4668.322.7597h1c0-.5665-.212-1.0636-.615-1.4669zm.322.7597c0 .4752.164.8982.498 1.2324l.707-.7071c-.134-.1344-.205-.2974-.205-.5253zm.508 1.2419c.347.3288.779.4886 1.262.4886v-1c-.247 0-.427-.0747-.574-.2146zm1.262.4886h8.164v-1h-8.164zm8.164 0c.227 0 .489-.0418.702-.2079.238-.1847.325-.4503.325-.7023h-1c0 .0155-.002.0058.008-.0175.005-.0118.012-.0249.022-.038.01-.013.021-.0236.031-.0316.021-.0158.031-.0161.017-.0124-.015.0039-.048.0097-.105.0097zm1.027-.9102c0-.3166-.188-.6043-.366-.8231l-.776.6306c.071.0866.111.1499.132.1915.022.0444.01.0406.01.001zm-.36-.8154-12.148-15.5664-.788.6152 12.148 15.5664zm-12.146-15.5644c-.511-.6616-.756-1.363-.756-2.1163h-1c0 .9915.329 1.9047.964 2.7274zm-.756-2.1163c0-.881.311-1.6351.951-2.2863l-.713-.7008c-.819.8331-1.238 1.8369-1.238 2.9871zm.954-2.2894c.637-.6599 1.387-.9801 2.277-.9801v-1c-1.167 0-2.175.4349-2.996 1.2855z" fill="#3d3d3d"/><path clip-rule="evenodd" d="m.712891.5h47.480409l44.5219 40.5-44.5219 40.5h-47.480409l42.872909-40.5zm44.013509 46.3007-31.4394 29.6993h31.4394zm5 26.5455v-29.8462h32.8101zm32.8101-34.8462h-32.8101v-29.84622zm-37.8101-33h-31.4394l31.4394 29.6993z" fill="url(#a)" fill-rule="evenodd"/></svg>