<svg width="786" height="196" viewBox="0 0 786 196" fill="none" xmlns="http://www.w3.org/2000/svg">
<path fill-rule="evenodd" clip-rule="evenodd" d="M82.1247 25.3513C36.7685 25.3513 0 62.1197 0 107.476V169.21C0 170.005 0.644074 170.649 1.43859 170.649H162.811C163.605 170.649 164.249 170.005 164.249 169.21V107.476C164.249 62.1197 127.481 25.3513 82.1247 25.3513ZM81.7734 47.8127C49.0161 47.8127 22.4611 74.3677 22.4611 107.125V170.649H141.086V107.125C141.086 74.3677 114.531 47.8127 81.7734 47.8127Z" fill="black"/>
<path d="M110.24 92.6436C112.112 92.6436 113.293 90.6702 112.21 89.1429C110.726 87.0493 108.94 85.1005 106.878 83.3466C100.196 77.6639 91.1565 74.4917 81.7475 74.5279C72.3384 74.5641 63.3308 77.8056 56.7061 83.5394C54.7375 85.2433 53.0272 87.1259 51.5967 89.1423C50.5131 90.6695 51.6938 92.6436 53.5664 92.6436H81.9025H110.24Z" fill="black"/>
<rect x="45.8442" y="113.477" width="72.1163" height="18.1161" rx="2.5" fill="black"/>
<rect x="45.8442" y="152.426" width="72.1163" height="18.1161" rx="2.5" fill="black"/>
<path d="M279.186 77.064V135.624C279.186 139.592 280.082 142.472 281.874 144.264C283.794 145.928 286.994 146.76 291.474 146.76H304.914V165H287.634C277.778 165 270.226 162.696 264.978 158.088C259.73 153.48 257.106 145.992 257.106 135.624V77.064H244.626V59.208H257.106V32.904H279.186V59.208H304.914V77.064H279.186ZM407.455 59.208V165H385.567V152.52C382.111 156.872 377.567 160.328 371.935 162.888C366.431 165.32 360.543 166.536 354.271 166.536C345.951 166.536 338.463 164.808 331.807 161.352C325.279 157.896 320.095 152.776 316.255 145.992C312.543 139.208 310.687 131.016 310.687 121.416V59.208H332.383V118.152C332.383 127.624 334.751 134.92 339.487 140.04C344.223 145.032 350.687 147.528 358.879 147.528C367.071 147.528 373.535 145.032 378.271 140.04C383.135 134.92 385.567 127.624 385.567 118.152V59.208H407.455ZM476.271 57.48C484.591 57.48 492.015 59.208 498.543 62.664C505.199 66.12 510.383 71.24 514.095 78.024C517.807 84.808 519.663 93 519.663 102.6V165H497.967V105.864C497.967 96.392 495.599 89.16 490.863 84.168C486.127 79.048 479.663 76.488 471.471 76.488C463.279 76.488 456.751 79.048 451.887 84.168C447.151 89.16 444.783 96.392 444.783 105.864V165H422.895V59.208H444.783V71.304C448.367 66.952 452.911 63.56 458.415 61.128C464.047 58.696 469.999 57.48 476.271 57.48ZM587.518 57.48C595.838 57.48 603.262 59.208 609.79 62.664C616.446 66.12 621.63 71.24 625.342 78.024C629.054 84.808 630.91 93 630.91 102.6V165H609.214V105.864C609.214 96.392 606.846 89.16 602.11 84.168C597.374 79.048 590.91 76.488 582.718 76.488C574.526 76.488 567.998 79.048 563.134 84.168C558.398 89.16 556.03 96.392 556.03 105.864V165H534.142V59.208H556.03V71.304C559.614 66.952 564.158 63.56 569.662 61.128C575.294 58.696 581.246 57.48 587.518 57.48ZM742.35 109.512C742.35 113.48 742.094 117.064 741.582 120.264H660.75C661.39 128.712 664.526 135.496 670.158 140.616C675.79 145.736 682.702 148.296 690.894 148.296C702.67 148.296 710.99 143.368 715.854 133.512H739.47C736.27 143.24 730.446 151.24 721.998 157.512C713.678 163.656 703.31 166.728 690.894 166.728C680.782 166.728 671.694 164.488 663.63 160.008C655.694 155.4 649.422 149 644.814 140.808C640.334 132.488 638.094 122.888 638.094 112.008C638.094 101.128 640.27 91.592 644.622 83.4C649.102 75.08 655.31 68.68 663.246 64.2C671.31 59.72 680.526 57.48 690.894 57.48C700.878 57.48 709.774 59.656 717.582 64.008C725.39 68.36 731.47 74.504 735.822 82.44C740.174 90.248 742.35 99.272 742.35 109.512ZM719.502 102.6C719.374 94.536 716.494 88.072 710.862 83.208C705.23 78.344 698.254 75.912 689.934 75.912C682.382 75.912 675.918 78.344 670.542 83.208C665.166 87.944 661.966 94.408 660.942 102.6H719.502ZM772.338 22.92V165H750.45V22.92H772.338Z" fill="black"/>
</svg>
