<svg fill="none" height="701" viewBox="0 0 559 701" width="559" xmlns="http://www.w3.org/2000/svg" xmlns:xlink="http://www.w3.org/1999/xlink"><linearGradient id="a" gradientUnits="userSpaceOnUse" x1="312.987" x2="612.607" y1="298.404" y2="54.1216"><stop offset="0" stop-color="#01a4ff"/><stop offset=".791667" stop-color="#01ffc2"/></linearGradient><g fill="#2e2e2e"><path d="m0 524.491h21.3706l31.559 103.126 33.2985-103.126h18.8859l31.559 103.126 33.05-103.126h20.625l-42.244 126.733h-22.365l-30.5651-94.18-31.8075 94.18-22.3646.248z"/><path d="m322.94 524.491v126.733h-17.643l-2.734-20.377c-10.602 14.579-25.098 21.868-43.487 21.868-11.762 0-22.282-2.568-31.559-7.704-9.111-5.135-16.318-12.59-21.619-22.364-5.135-9.774-7.703-21.371-7.703-34.79 0-12.756 2.568-24.021 7.703-33.795 5.301-9.774 12.591-17.395 21.868-22.862s19.714-8.2 31.31-8.2c10.106 0 18.803 1.905 26.092 5.715 7.29 3.811 13.088 9.029 17.395 15.656l2.734-19.88zm-61.876 110.084c8.118 0 15.324-1.906 21.619-5.716 6.461-3.976 11.431-9.443 14.91-16.401 3.479-7.123 5.219-15.158 5.219-24.104 0-9.111-1.74-17.229-5.219-24.352-3.479-7.289-8.449-12.922-14.91-16.898-6.295-3.976-13.501-5.964-21.619-5.964-12.59 0-22.779 4.39-30.565 13.17-7.62 8.615-11.431 19.797-11.431 33.547 0 13.751 3.811 25.016 11.431 33.796 7.786 8.614 17.975 12.922 30.565 12.922z"/><path d="m415.058 524.491v19.88h-10.188c-12.094 0-20.791 4.058-26.093 12.176-5.135 8.117-7.703 18.14-7.703 30.068v64.609h-20.377v-126.733h17.644l2.733 19.134c3.645-5.798 8.366-10.437 14.164-13.916 5.799-3.479 13.833-5.218 24.104-5.218z"/><path d="m497.555 523c11.762 0 22.199 2.568 31.31 7.703 9.277 5.136 16.484 12.591 21.619 22.365 5.301 9.774 7.952 21.371 7.952 34.789 0 12.757-2.651 24.022-7.952 33.796-5.135 9.774-12.342 17.395-21.619 22.861-9.277 5.467-19.714 8.201-31.31 8.201-10.272 0-19.052-1.822-26.341-5.467-7.289-3.81-13.005-8.946-17.146-15.407v69.082h-20.377v-176.432h17.643l2.734 20.377c10.602-14.579 25.098-21.868 43.487-21.868zm-1.988 111.575c12.59 0 22.696-4.308 30.316-12.922 7.786-8.78 11.679-20.045 11.679-33.796 0-13.75-3.893-24.932-11.679-33.547-7.62-8.78-17.726-13.17-30.316-13.17-8.118 0-15.407 1.988-21.868 5.964-6.295 3.81-11.182 9.277-14.661 16.401-3.479 6.958-5.219 14.91-5.219 23.855 0 9.112 1.74 17.312 5.219 24.602 3.479 7.123 8.366 12.673 14.661 16.649 6.461 3.976 13.75 5.964 21.868 5.964z"/></g><path d="m278.044 424h-211.6582c-34.2626 0-62.0379-27.748-62.0379-61.978v-240.618c0-34.2289 27.7753-61.9772 62.0379-61.9772h302.8902z" fill="#006da8"/><path d="m279.652 0h211.659c34.261 0 62.037 27.7483 62.037 61.9775v240.6175c0 34.23-27.776 61.978-62.037 61.978h-302.892z" fill="#9f73ff"/><path d="m279.652 0h211.659c34.261 0 62.037 27.7483 62.037 61.9775v240.6175c0 34.23-27.776 61.978-62.037 61.978h-302.892z" fill="url(#a)"/></svg>