<svg fill="none" height="471" viewBox="0 0 182 471" width="182" xmlns="http://www.w3.org/2000/svg" xmlns:xlink="http://www.w3.org/1999/xlink"><linearGradient id="a"><stop offset="0" stop-color="#ff2cfb"/><stop offset="1" stop-color="#f09343"/></linearGradient><linearGradient id="b" gradientUnits="userSpaceOnUse" x1="9" x2="182.013" xlink:href="#a" y1="56.1452" y2="26.0726"/><linearGradient id="c" gradientUnits="userSpaceOnUse" x1=".000001" x2="173.013" xlink:href="#a" y1="48.1452" y2="18.0726"/><clipPath id="d"><path d="m0 0h173v460.721h-173z"/></clipPath><path d="m172.721 19.0902 8.279 7.3589v413.9389l-171.69531 29.545-8.29472-7.373 8.97259-406.0426z" fill="url(#b)"/><path d="m172.721 19.0902 8.279 7.3589v413.9389l-171.69531 29.545-8.29472-7.373 8.97259-406.0426z" fill="#000" fill-opacity=".5"/><g stroke="#fff"><path d="m172.721 19.0902 8.279 7.3589v413.9389l-171.69531 29.545-8.29472-7.373 8.97259-406.0426z" stroke-linejoin="bevel" stroke-width="2"/><path d="m1 461.813v-413.2528l171-29.3738v413.2016z" fill="url(#c)" stroke-linejoin="bevel" stroke-width="2"/><path d="m171.5 432 9 8" stroke-width="2"/><g clip-path="url(#d)" stroke-linejoin="bevel" stroke-width="3"><path d="m0 48.0249 281-48.0249" stroke-opacity=".02"/><path d="m0 51.0249 281-48.0249" stroke-opacity=".15"/><path d="m0 54.0498 281-48.0249" stroke-opacity=".02"/><path d="m0 57.0498 281-48.0249" stroke-opacity=".15"/><path d="m0 60.0747 281-48.0249" stroke-opacity=".02"/><path d="m0 63.0747 281-48.0249" stroke-opacity=".15"/><path d="m0 66.0996 281-48.0249" stroke-opacity=".02"/><path d="m0 69.0996 281-48.0249" stroke-opacity=".15"/><path d="m0 72.1248 281-48.0249" stroke-opacity=".02"/><path d="m0 75.1248 281-48.0249" stroke-opacity=".15"/><path d="m0 78.1497 281-48.0249" stroke-opacity=".02"/><path d="m0 81.1497 281-48.0249" stroke-opacity=".15"/><path d="m0 84.1746 281-48.0249" stroke-opacity=".02"/><path d="m0 87.1746 281-48.0249" stroke-opacity=".15"/><path d="m0 90.1995 281-48.0249" stroke-opacity=".02"/><path d="m0 93.1995 281-48.0249" stroke-opacity=".15"/><path d="m0 96.2244 281-48.0249" stroke-opacity=".02"/><path d="m0 99.2244 281-48.0249" stroke-opacity=".15"/><path d="m0 102.249 281-48.0246" stroke-opacity=".02"/><path d="m0 105.249 281-48.0246" stroke-opacity=".15"/><path d="m0 108.274 281-48.0247" stroke-opacity=".02"/><path d="m0 111.274 281-48.0247" stroke-opacity=".15"/><path d="m0 114.299 281-48.0246" stroke-opacity=".02"/><path d="m0 117.299 281-48.0246" stroke-opacity=".15"/><path d="m0 120.324 281-48.0247" stroke-opacity=".02"/><path d="m0 123.324 281-48.0247" stroke-opacity=".15"/><path d="m0 126.349 281-48.0248" stroke-opacity=".02"/><path d="m0 129.349 281-48.0248" stroke-opacity=".15"/><path d="m0 132.374 281-48.0249" stroke-opacity=".02"/><path d="m0 135.374 281-48.0249" stroke-opacity=".15"/><path d="m0 138.399 281-48.025" stroke-opacity=".02"/><path d="m0 141.399 281-48.025" stroke-opacity=".15"/><path d="m0 144.424 281-48.0251" stroke-opacity=".02"/><path d="m0 147.424 281-48.0251" stroke-opacity=".15"/><path d="m0 150.449 281-48.025" stroke-opacity=".02"/><path d="m0 153.449 281-48.025" stroke-opacity=".15"/><path d="m0 156.474 281-48.025" stroke-opacity=".02"/><path d="m0 159.474 281-48.025" stroke-opacity=".15"/><path d="m0 162.499 281-48.025" stroke-opacity=".02"/><path d="m0 165.499 281-48.025" stroke-opacity=".15"/><path d="m0 168.524 281-48.025" stroke-opacity=".02"/><path d="m0 171.524 281-48.025" stroke-opacity=".15"/><path d="m0 174.549 281-48.025" stroke-opacity=".02"/><path d="m0 177.549 281-48.025" stroke-opacity=".15"/><path d="m0 180.574 281-48.025" stroke-opacity=".02"/><path d="m0 183.574 281-48.025" stroke-opacity=".15"/><path d="m0 186.598 281-48.025" stroke-opacity=".02"/><path d="m0 189.598 281-48.025" stroke-opacity=".15"/><path d="m0 192.623 281-48.025" stroke-opacity=".02"/><path d="m0 195.623 281-48.025" stroke-opacity=".15"/><path d="m0 198.648 281-48.025" stroke-opacity=".02"/><path d="m0 201.648 281-48.025" stroke-opacity=".15"/><path d="m0 204.673 281-48.025" stroke-opacity=".02"/><path d="m0 207.673 281-48.025" stroke-opacity=".15"/><path d="m0 210.698 281-48.025" stroke-opacity=".02"/><path d="m0 213.698 281-48.025" stroke-opacity=".15"/><path d="m0 216.723 281-48.025" stroke-opacity=".02"/><path d="m0 219.723 281-48.025" stroke-opacity=".15"/><path d="m0 222.748 281-48.025" stroke-opacity=".02"/><path d="m0 225.748 281-48.025" stroke-opacity=".15"/><path d="m0 228.773 281-48.025" stroke-opacity=".02"/><path d="m0 231.773 281-48.025" stroke-opacity=".15"/><path d="m0 234.798 281-48.025" stroke-opacity=".02"/><path d="m0 237.798 281-48.025" stroke-opacity=".15"/><path d="m0 240.823 281-48.025" stroke-opacity=".02"/><path d="m0 243.823 281-48.025" stroke-opacity=".15"/><path d="m0 246.848 281-48.025" stroke-opacity=".02"/><path d="m0 249.848 281-48.025" stroke-opacity=".15"/><path d="m0 252.873 281-48.025" stroke-opacity=".02"/><path d="m0 255.873 281-48.025" stroke-opacity=".15"/><path d="m0 258.898 281-48.025" stroke-opacity=".02"/><path d="m0 261.898 281-48.025" stroke-opacity=".15"/><path d="m0 264.923 281-48.025" stroke-opacity=".02"/><path d="m0 267.923 281-48.025" stroke-opacity=".15"/><path d="m0 270.948 281-48.025" stroke-opacity=".02"/><path d="m0 273.948 281-48.025" stroke-opacity=".15"/><path d="m0 276.972 281-48.024" stroke-opacity=".02"/><path d="m0 279.972 281-48.024" stroke-opacity=".15"/><path d="m0 282.997 281-48.025" stroke-opacity=".02"/><path d="m0 285.997 281-48.025" stroke-opacity=".15"/><path d="m0 289.022 281-48.025" stroke-opacity=".02"/><path d="m0 292.022 281-48.025" stroke-opacity=".15"/><path d="m0 295.047 281-48.025" stroke-opacity=".02"/><path d="m0 298.047 281-48.025" stroke-opacity=".15"/><path d="m0 301.072 281-48.025" stroke-opacity=".02"/><path d="m0 304.072 281-48.025" stroke-opacity=".15"/><path d="m0 307.097 281-48.025" stroke-opacity=".02"/><path d="m0 310.097 281-48.025" stroke-opacity=".15"/><path d="m0 313.122 281-48.025" stroke-opacity=".02"/><path d="m0 316.122 281-48.025" stroke-opacity=".15"/><path d="m0 319.147 281-48.025" stroke-opacity=".02"/><path d="m0 322.147 281-48.025" stroke-opacity=".15"/><path d="m0 325.172 281-48.025" stroke-opacity=".02"/><path d="m0 328.172 281-48.025" stroke-opacity=".15"/><path d="m0 331.197 281-48.025" stroke-opacity=".02"/><path d="m0 334.197 281-48.025" stroke-opacity=".15"/><path d="m0 337.222 281-48.025" stroke-opacity=".02"/><path d="m0 340.222 281-48.025" stroke-opacity=".15"/><path d="m0 343.247 281-48.025" stroke-opacity=".02"/><path d="m0 346.247 281-48.025" stroke-opacity=".15"/><path d="m0 349.272 281-48.025" stroke-opacity=".02"/><path d="m0 352.272 281-48.025" stroke-opacity=".15"/><path d="m0 355.297 281-48.025" stroke-opacity=".02"/><path d="m0 358.297 281-48.025" stroke-opacity=".15"/><path d="m0 361.322 281-48.025" stroke-opacity=".02"/><path d="m0 364.322 281-48.025" stroke-opacity=".15"/><path d="m0 367.346 281-48.024" stroke-opacity=".02"/><path d="m0 370.346 281-48.024" stroke-opacity=".15"/><path d="m0 373.371 281-48.025" stroke-opacity=".02"/><path d="m0 376.371 281-48.025" stroke-opacity=".15"/><path d="m0 379.396 281-48.025" stroke-opacity=".02"/><path d="m0 382.396 281-48.025" stroke-opacity=".15"/><path d="m0 385.421 281-48.025" stroke-opacity=".02"/><path d="m0 388.421 281-48.025" stroke-opacity=".15"/><path d="m0 391.446 281-48.025" stroke-opacity=".02"/><path d="m0 394.446 281-48.025" stroke-opacity=".15"/><path d="m0 397.471 281-48.025" stroke-opacity=".02"/><path d="m0 400.471 281-48.025" stroke-opacity=".15"/><path d="m0 403.496 281-48.025" stroke-opacity=".02"/><path d="m0 406.496 281-48.025" stroke-opacity=".15"/><path d="m0 409.521 281-48.025" stroke-opacity=".02"/><path d="m0 412.521 281-48.025" stroke-opacity=".15"/><path d="m0 415.546 281-48.025" stroke-opacity=".02"/><path d="m0 418.546 281-48.025" stroke-opacity=".15"/><path d="m0 421.571 281-48.025" stroke-opacity=".02"/><path d="m0 424.571 281-48.025" stroke-opacity=".15"/><path d="m0 427.596 281-48.025" stroke-opacity=".02"/><path d="m0 430.596 281-48.025" stroke-opacity=".15"/><path d="m0 433.621 281-48.025" stroke-opacity=".02"/><path d="m0 436.621 281-48.025" stroke-opacity=".15"/><path d="m0 439.646 281-48.025" stroke-opacity=".02"/><path d="m0 442.646 281-48.025" stroke-opacity=".15"/><path d="m0 445.67 281-48.024" stroke-opacity=".02"/><path d="m0 448.67 281-48.024" stroke-opacity=".15"/><path d="m0 451.696 281-48.025" stroke-opacity=".02"/><path d="m0 454.696 281-48.025" stroke-opacity=".15"/><path d="m0 457.72 281-48.024" stroke-opacity=".02"/><path d="m0 460.72 281-48.024" stroke-opacity=".15"/></g></g><path d="m59.2626 238.421c0-.853.4201-1.354 1.2605-1.502l8.1306-1.434v-27.456l-5.4204 6.14c-.2941.351-.5883.552-.8824.604-.2941.051-.5252-.036-.6933-.262l-3.4035-3.816c-.2521-.254-.3781-.509-.3781-.765 0-.299.168-.627.5042-.985l8.8239-9.62c.3361-.358.6302-.623.8823-.796.2521-.172.6723-.31 1.2606-.414l6.2397-1.1c.8404-.148 1.2606.204 1.2606 1.057v35.968l8.1306-1.433c.8403-.148 1.2605.204 1.2605 1.058v4.992c0 .853-.4202 1.354-1.2605 1.502l-24.4548 4.312c-.8404.148-1.2605-.205-1.2605-1.058zm47.7134-39.133-19.7272 3.478c-.8403.149-1.2605-.204-1.2605-1.057v-5.248c0-.854.4202-1.354 1.2605-1.503l27.9842-4.934c.84-.148 1.261.204 1.261 1.058v5.376c0 .341-.063.694-.189 1.057-.084.356-.21.72-.379 1.091l-14.496 37.5c-.21.549-.441.91-.693 1.082-.252.173-.61.3-1.0717.381l-7.1221 1.256c-.5883.104-.8824-.101-.8824-.613 0-.128.042-.327.126-.598zm-71.4652 92.713c.1103.141.1655.259.1655.355 0 .144-.0709.285-.2127.422-.457.48-.906.911-1.3472 1.293-.4255.363-.8824.684-1.3709.962-.4727.275-.9848.509-1.5363.703-.5515.193-1.1739.351-1.8672.473-1.103.194-2.1508.195-3.1435.002s-1.8672-.583-2.6235-1.169c-.7564-.587-1.3551-1.377-1.7963-2.371-.4412-1.011-.6618-2.228-.6618-3.652s.2285-2.712.6854-3.865c.4727-1.171 1.0951-2.185 1.8672-3.041.7879-.859 1.686-1.561 2.6945-2.107 1.0242-.549 2.0799-.919 3.1671-1.11.6933-.123 1.3236-.17 1.8908-.142.583.009 1.1109.068 1.5836.177s.8981.258 1.2763.447c.3782.173.7169.362 1.0163.565.1576.1.2364.214.2364.342 0 .08-.0473.2-.1418.361l-1.2763 1.905c-.0788.094-.1419.169-.1891.225-.0315.038-.0867.064-.1655.078-.0945.016-.1969-.014-.3072-.09-.6146-.42-1.2291-.711-1.8436-.875-.5988-.183-1.2763-.207-2.0326-.074-.6146.109-1.237.33-1.8672.666-.6146.316-1.1739.751-1.6781 1.303-.4885.535-.8903 1.197-1.2054 1.989-.2994.773-.4491 1.663-.4491 2.671s.1497 1.854.4491 2.537c.2993.667.6933 1.19 1.1817 1.568.4885.361 1.0321.602 1.6309.72.6145.1 1.2211.097 1.8199-.009.52-.092.9769-.22 1.3708-.386.394-.181.7485-.388 1.0636-.619.3309-.234.6224-.478.8745-.73.2679-.272.5279-.541.78-.81.1261-.15.26-.238.4018-.263.1261-.022.2442.037.3545.178zm9.642 1.42c-1.103.195-2.1508.203-3.1435.026-.9927-.193-1.8672-.582-2.6235-1.169-.7564-.587-1.3551-1.377-1.7963-2.371-.4412-1.01-.6618-2.236-.6618-3.676 0-1.424.2285-2.712.6854-3.864.457-1.169 1.0636-2.18 1.8199-3.033.7564-.854 1.6309-1.552 2.6236-2.095.9926-.543 2.0247-.909 3.0962-1.098s2.1035-.187 3.0962.006 1.8672.583 2.6236 1.17c.7563.586 1.3629 1.383 1.8199 2.391.4569.991.6854 2.199.6854 3.623 0 1.44-.2206 2.743-.6618 3.908-.4412 1.15-1.0399 2.152-1.7963 3.005-.7563.854-1.6308 1.552-2.6235 2.095-.9927.527-2.0405.888-3.1435 1.082zm0-2.928c.583-.103 1.166-.31 1.749-.62.5988-.33 1.1345-.768 1.6072-1.316.4727-.547.8588-1.207 1.1581-1.98.2994-.773.4491-1.663.4491-2.671s-.1497-1.846-.4491-2.513c-.2993-.667-.6933-1.19-1.1817-1.568-.4727-.38-1.0085-.622-1.6072-.724-.583-.121-1.1582-.132-1.7254-.032-.5673.1-1.1503.315-1.749.644-.583.311-1.1188.742-1.6072 1.292-.4727.547-.8588 1.207-1.1582 1.98s-.449 1.663-.449 2.671.1418 1.847.4254 2.517c.2994.667.6854 1.191 1.1581 1.572s1.0006.632 1.5836.753c.5988.102 1.1975.101 1.7963-.005zm10.7661-15.53c0-.32.1576-.508.4727-.564l2.1272-.375c.3151-.055.4727.077.4727.397v9.192c0 .832.0945 1.519.2836 2.062.1891.527.4491.937.78 1.23.3309.278.7169.458 1.1581.54.4412.066.906.056 1.3945-.03s.9533-.24 1.3945-.462c.4412-.237.8272-.553 1.1581-.948.3309-.41.5909-.912.78-1.505.1891-.61.2836-1.33.2836-2.162v-9.192c0-.32.1576-.508.4727-.564l2.1272-.375c.3152-.055.4727.077.4727.397v8.952c0 2.576-.5909 4.592-1.7726 6.048-1.166 1.454-2.8048 2.367-4.9162 2.739-2.1114.373-3.758.039-4.9398-1.001-1.166-1.042-1.749-2.851-1.749-5.427zm16.506-2.911c0-.32.1576-.507.4727-.563l2.009-.354c.2364-.042.4097-.025.52.052.126.058.2363.15.3309.278l6.9251 8.811v-10.032c0-.32.1576-.508.4728-.564l2.1271-.375c.3152-.055.4727.077.4727.397v15.84c0 .32-.1575.508-.4727.563l-1.6781.296c-.2363.042-.4175.034-.5436-.024-.1103-.077-.2127-.179-.3072-.306l-7.2561-9.112v10.392c0 .32-.1576.507-.4727.563l-2.1272.375c-.3151.056-.4727-.077-.4727-.397zm20.3288-1.136-4.4907.792c-.3151.055-.4727-.077-.4727-.397v-1.968c0-.32.1576-.508.4727-.563l12.054-2.126c.315-.055.473.077.473.397v1.968c0 .32-.158.508-.473.563l-4.4907.792v13.392c0 .32-.1576.508-.4727.563l-2.1272.375c-.3151.056-.4727-.076-.4727-.396zm10.0923-4.228c0-.32.158-.508.473-.563l6.027-1.063c1.749-.308 3.104-.139 4.065.507.961.647 1.442 1.706 1.442 3.178 0 .704-.118 1.349-.355 1.935-.236.569-.559 1.082-.969 1.538-.394.454-.866.841-1.418 1.163-.535.318-1.111.571-1.725.76l5.082 6.112c.063.069.094.151.094.247 0 .176-.102.282-.307.318l-2.931.517c-.173.031-.299.029-.378-.005-.079-.05-.166-.131-.26-.242l-5.2-6.26-.567.1v7.056c0 .32-.158.508-.473.564l-2.127.375c-.315.055-.473-.077-.473-.397zm6.665 4.681c.694-.122 1.237-.362 1.631-.72.394-.357.591-.816.591-1.376s-.197-.949-.591-1.168c-.394-.218-.937-.266-1.631-.144l-3.592.633v3.408zm7.453 6.702c0-.32.157-.508.472-.563l2.34-.413v-10.944l-2.103.371c-.316.055-.473-.077-.473-.397v-1.968c0-.32.157-.508.473-.563l7.279-1.284c.315-.055.473.077.473.397v1.968c0 .32-.158.508-.473.563l-2.103.371v10.944l2.34-.412c.315-.056.472.076.472.396v1.968c0 .32-.157.508-.472.564l-7.753 1.367c-.315.055-.472-.077-.472-.397zm11.064-15.823c0-.32.158-.508.473-.563l10.47-1.847c.315-.055.473.077.473.397v2.016c0 .288-.142.457-.425.507l-7.918 1.396v3.576l6.31-1.113c.315-.055.473.077.473.397v1.968c0 .32-.158.508-.473.563l-6.31 1.113v4.44l8.201-1.446c.315-.056.473.077.473.397v1.968c0 .32-.158.507-.473.563l-10.801 1.905c-.315.055-.473-.077-.473-.397zm15.26 8.421c.111-.099.221-.159.331-.178.079-.014.142-.009.189.014.048.024.103.086.166.187.457.784.993 1.305 1.607 1.565.615.244 1.276.303 1.985.178.646-.114 1.182-.377 1.608-.788.441-.429.661-.948.661-1.556 0-.656-.275-1.144-.827-1.462-.536-.338-1.418-.582-2.647-.734-.552-.062-1.095-.183-1.631-.36-.536-.194-1.016-.453-1.442-.778-.409-.344-.74-.757-.992-1.241-.252-.499-.378-1.085-.378-1.757 0-.72.126-1.39.378-2.011.268-.623.638-1.176 1.111-1.66.472-.499 1.032-.91 1.678-1.232.661-.34 1.386-.58 2.174-.719.662-.117 1.261-.15 1.796-.101.552.047 1.04.153 1.466.318.425.165.803.378 1.134.64.331.261.623.546.875.854.094.111.142.207.142.287 0 .096-.063.211-.189.345l-1.655 1.684c-.126.118-.236.185-.331.202-.173.031-.307-.018-.402-.145-.346-.451-.74-.782-1.181-.992-.442-.226-1.017-.277-1.726-.152-.252.045-.504.121-.756.23-.252.108-.481.253-.686.433-.189.161-.346.357-.472.587-.111.212-.166.453-.166.725 0 .544.245.957.733 1.239.504.279 1.284.486 2.34.619.835.109 1.56.269 2.174.481.615.212 1.127.489 1.537.833.409.344.709.779.898 1.306.205.508.307 1.122.307 1.842 0 .704-.142 1.393-.425 2.067-.268.655-.654 1.251-1.158 1.788-.489.534-1.08.99-1.773 1.368-.678.376-1.426.636-2.246.78-.74.131-1.441.167-2.103.107-.646-.078-1.245-.22-1.796-.427-.536-.226-1.009-.518-1.418-.878-.41-.36-.741-.773-.993-1.241-.063-.117-.095-.215-.095-.295 0-.144.087-.28.26-.406z" fill="#fff"/></svg>