<svg fill="none" height="394" viewBox="0 0 255 394" width="255" xmlns="http://www.w3.org/2000/svg" xmlns:xlink="http://www.w3.org/1999/xlink"><linearGradient id="a"><stop offset="0" stop-color="#884cff"/><stop offset="1" stop-color="#ff2cfb"/></linearGradient><linearGradient id="b" gradientUnits="userSpaceOnUse" x1="8.99999" x2="254.991" xlink:href="#a" y1="59.6974" y2="16.7768"/><linearGradient id="c" gradientUnits="userSpaceOnUse" x1="-.000003" x2="245.991" xlink:href="#a" y1="51.6974" y2="8.77677"/><clipPath id="d"><path d="m0 0h245v382.396h-245z"/></clipPath><path d="m245.713 6.08265 8.287 7.36645v337.6159l-244.6949 41.868-8.29282-7.371 8.96591-329.7281z" fill="url(#b)"/><path d="m245.713 6.08265 8.287 7.36645v337.6159l-244.6949 41.868-8.29282-7.371 8.96591-329.7281z" fill="#000" fill-opacity=".5"/><g stroke="#fff"><path d="m245.713 6.08265 8.287 7.36645v337.6159l-244.6949 41.868-8.29282-7.371 8.96591-329.7281z" stroke-linejoin="bevel" stroke-width="2"/><path d="m1 384.814v-336.952l244-41.67671v336.87971z" fill="url(#c)" stroke-linejoin="bevel" stroke-width="2"/><path d="m245 343 9 8" stroke-width="2"/><g clip-path="url(#d)" stroke-linejoin="bevel" stroke-width="3"><path d="m0 48.0249 281-48.0249" stroke-opacity=".02"/><path d="m0 51.0249 281-48.0249" stroke-opacity=".15"/><path d="m0 54.0498 281-48.0249" stroke-opacity=".02"/><path d="m0 57.0498 281-48.0249" stroke-opacity=".15"/><path d="m0 60.0747 281-48.0249" stroke-opacity=".02"/><path d="m0 63.0747 281-48.0249" stroke-opacity=".15"/><path d="m0 66.0996 281-48.0249" stroke-opacity=".02"/><path d="m0 69.0996 281-48.0249" stroke-opacity=".15"/><path d="m0 72.1248 281-48.0249" stroke-opacity=".02"/><path d="m0 75.1248 281-48.0249" stroke-opacity=".15"/><path d="m0 78.1497 281-48.0249" stroke-opacity=".02"/><path d="m0 81.1497 281-48.0249" stroke-opacity=".15"/><path d="m0 84.1746 281-48.0249" stroke-opacity=".02"/><path d="m0 87.1746 281-48.0249" stroke-opacity=".15"/><path d="m0 90.1995 281-48.0249" stroke-opacity=".02"/><path d="m0 93.1995 281-48.0249" stroke-opacity=".15"/><path d="m0 96.2244 281-48.0249" stroke-opacity=".02"/><path d="m0 99.2244 281-48.0249" stroke-opacity=".15"/><path d="m0 102.249 281-48.0246" stroke-opacity=".02"/><path d="m0 105.249 281-48.0246" stroke-opacity=".15"/><path d="m0 108.274 281-48.0247" stroke-opacity=".02"/><path d="m0 111.274 281-48.0247" stroke-opacity=".15"/><path d="m0 114.299 281-48.0246" stroke-opacity=".02"/><path d="m0 117.299 281-48.0246" stroke-opacity=".15"/><path d="m0 120.324 281-48.0247" stroke-opacity=".02"/><path d="m0 123.324 281-48.0247" stroke-opacity=".15"/><path d="m0 126.349 281-48.0248" stroke-opacity=".02"/><path d="m0 129.349 281-48.0248" stroke-opacity=".15"/><path d="m0 132.374 281-48.0249" stroke-opacity=".02"/><path d="m0 135.374 281-48.0249" stroke-opacity=".15"/><path d="m0 138.399 281-48.025" stroke-opacity=".02"/><path d="m0 141.399 281-48.025" stroke-opacity=".15"/><path d="m0 144.424 281-48.0251" stroke-opacity=".02"/><path d="m0 147.424 281-48.0251" stroke-opacity=".15"/><path d="m0 150.449 281-48.025" stroke-opacity=".02"/><path d="m0 153.449 281-48.025" stroke-opacity=".15"/><path d="m0 156.474 281-48.025" stroke-opacity=".02"/><path d="m0 159.474 281-48.025" stroke-opacity=".15"/><path d="m0 162.499 281-48.025" stroke-opacity=".02"/><path d="m0 165.499 281-48.025" stroke-opacity=".15"/><path d="m0 168.524 281-48.025" stroke-opacity=".02"/><path d="m0 171.524 281-48.025" stroke-opacity=".15"/><path d="m0 174.549 281-48.025" stroke-opacity=".02"/><path d="m0 177.549 281-48.025" stroke-opacity=".15"/><path d="m0 180.574 281-48.025" stroke-opacity=".02"/><path d="m0 183.574 281-48.025" stroke-opacity=".15"/><path d="m0 186.598 281-48.025" stroke-opacity=".02"/><path d="m0 189.598 281-48.025" stroke-opacity=".15"/><path d="m0 192.623 281-48.025" stroke-opacity=".02"/><path d="m0 195.623 281-48.025" stroke-opacity=".15"/><path d="m0 198.648 281-48.025" stroke-opacity=".02"/><path d="m0 201.648 281-48.025" stroke-opacity=".15"/><path d="m0 204.673 281-48.025" stroke-opacity=".02"/><path d="m0 207.673 281-48.025" stroke-opacity=".15"/><path d="m0 210.698 281-48.025" stroke-opacity=".02"/><path d="m0 213.698 281-48.025" stroke-opacity=".15"/><path d="m0 216.723 281-48.025" stroke-opacity=".02"/><path d="m0 219.723 281-48.025" stroke-opacity=".15"/><path d="m0 222.748 281-48.025" stroke-opacity=".02"/><path d="m0 225.748 281-48.025" stroke-opacity=".15"/><path d="m0 228.773 281-48.025" stroke-opacity=".02"/><path d="m0 231.773 281-48.025" stroke-opacity=".15"/><path d="m0 234.798 281-48.025" stroke-opacity=".02"/><path d="m0 237.798 281-48.025" stroke-opacity=".15"/><path d="m0 240.823 281-48.025" stroke-opacity=".02"/><path d="m0 243.823 281-48.025" stroke-opacity=".15"/><path d="m0 246.848 281-48.025" stroke-opacity=".02"/><path d="m0 249.848 281-48.025" stroke-opacity=".15"/><path d="m0 252.873 281-48.025" stroke-opacity=".02"/><path d="m0 255.873 281-48.025" stroke-opacity=".15"/><path d="m0 258.898 281-48.025" stroke-opacity=".02"/><path d="m0 261.898 281-48.025" stroke-opacity=".15"/><path d="m0 264.923 281-48.025" stroke-opacity=".02"/><path d="m0 267.923 281-48.025" stroke-opacity=".15"/><path d="m0 270.948 281-48.025" stroke-opacity=".02"/><path d="m0 273.948 281-48.025" stroke-opacity=".15"/><path d="m0 276.972 281-48.024" stroke-opacity=".02"/><path d="m0 279.972 281-48.024" stroke-opacity=".15"/><path d="m0 282.997 281-48.025" stroke-opacity=".02"/><path d="m0 285.997 281-48.025" stroke-opacity=".15"/><path d="m0 289.022 281-48.025" stroke-opacity=".02"/><path d="m0 292.022 281-48.025" stroke-opacity=".15"/><path d="m0 295.047 281-48.025" stroke-opacity=".02"/><path d="m0 298.047 281-48.025" stroke-opacity=".15"/><path d="m0 301.072 281-48.025" stroke-opacity=".02"/><path d="m0 304.072 281-48.025" stroke-opacity=".15"/><path d="m0 307.097 281-48.025" stroke-opacity=".02"/><path d="m0 310.097 281-48.025" stroke-opacity=".15"/><path d="m0 313.122 281-48.025" stroke-opacity=".02"/><path d="m0 316.122 281-48.025" stroke-opacity=".15"/><path d="m0 319.147 281-48.025" stroke-opacity=".02"/><path d="m0 322.147 281-48.025" stroke-opacity=".15"/><path d="m0 325.172 281-48.025" stroke-opacity=".02"/><path d="m0 328.172 281-48.025" stroke-opacity=".15"/><path d="m0 331.197 281-48.025" stroke-opacity=".02"/><path d="m0 334.197 281-48.025" stroke-opacity=".15"/><path d="m0 337.222 281-48.025" stroke-opacity=".02"/><path d="m0 340.222 281-48.025" stroke-opacity=".15"/><path d="m0 343.247 281-48.025" stroke-opacity=".02"/><path d="m0 346.247 281-48.025" stroke-opacity=".15"/><path d="m0 349.272 281-48.025" stroke-opacity=".02"/><path d="m0 352.272 281-48.025" stroke-opacity=".15"/><path d="m0 355.297 281-48.025" stroke-opacity=".02"/><path d="m0 358.297 281-48.025" stroke-opacity=".15"/><path d="m0 361.322 281-48.025" stroke-opacity=".02"/><path d="m0 364.322 281-48.025" stroke-opacity=".15"/><path d="m0 367.346 281-48.024" stroke-opacity=".02"/><path d="m0 370.346 281-48.024" stroke-opacity=".15"/><path d="m0 373.371 281-48.025" stroke-opacity=".02"/><path d="m0 376.371 281-48.025" stroke-opacity=".15"/><path d="m0 379.396 281-48.025" stroke-opacity=".02"/><path d="m0 382.396 281-48.025" stroke-opacity=".15"/></g></g><path d="m24.6556 303.466c0-.854.4202-1.354 1.2606-1.503l8.1305-1.433v-27.456l-5.4203 6.14c-.2942.35-.5883.551-.8824.603-.2942.052-.5253-.035-.6933-.262l-3.4035-3.815c-.2521-.255-.3782-.51-.3782-.766 0-.298.1681-.627.5042-.985l8.8239-9.62c.3361-.357.6303-.623.8824-.795.2521-.173.6723-.311 1.2605-.414l6.2398-1.101c.8403-.148 1.2605.205 1.2605 1.058v35.968l8.1306-1.434c.8404-.148 1.2606.205 1.2606 1.058v4.992c0 .854-.4202 1.354-1.2606 1.502l-24.4547 4.312c-.8404.149-1.2606-.204-1.2606-1.057zm31.1869 6.213c-.4202-.225-.6303-.508-.6303-.849 0-.214.063-.438.1891-.674.6303-.964 1.1345-1.864 1.5127-2.698.4202-.842.7563-1.67 1.0084-2.482.2521-.855.4202-1.717.5042-2.585.1261-.876.1891-1.804.1891-2.785 0-.854.4412-1.358 1.3236-1.514l4.475-.789c.7983-.141 1.1975.216 1.1975 1.069 0 1.536-.1261 2.945-.3782 4.227-.2521 1.239-.6092 2.411-1.0714 3.517-.4622 1.105-1.0085 2.183-1.6388 3.233-.5882 1.042-1.2605 2.099-2.0169 3.171-.21.336-.3781.536-.5042.601-.126.108-.2941.18-.5042.217-.3361.059-.6093.022-.8194-.111zm16.5763-14.635c0-.854.4202-1.354 1.2605-1.502l8.1306-1.434v-27.456l-5.4204 6.14c-.2941.35-.5882.551-.8824.603-.2941.052-.5252-.035-.6933-.262l-3.4035-3.815c-.2521-.255-.3781-.51-.3781-.766 0-.298.168-.627.5042-.985l8.8239-9.619c.3361-.358.6302-.624.8824-.796.2521-.173.6723-.311 1.2605-.414l6.2398-1.101c.8403-.148 1.2605.205 1.2605 1.058v35.968l8.1306-1.433c.8404-.149 1.2605.204 1.2605 1.057v4.992c0 .854-.4201 1.354-1.2605 1.503l-24.4548 4.312c-.8403.148-1.2605-.205-1.2605-1.058zm47.8562-1.526c-2.732.481-5.232.431-7.501-.15-2.227-.589-4.139-1.702-5.735-3.341-1.597-1.681-2.837-3.873-3.719-6.576-.84-2.753-1.26-6.007-1.26-9.762 0-3.797.462-7.206 1.386-10.228.967-3.072 2.269-5.712 3.908-7.921s3.55-3.997 5.735-5.364c2.227-1.374 4.622-2.287 7.186-2.738 2.563-.452 4.937-.38 7.122.216 2.227.588 4.159 1.698 5.798 3.329s2.92 3.816 3.845 6.554c.966 2.689 1.45 5.931 1.45 9.729 0 3.754-.442 7.16-1.324 10.217-.84 3.007-2.059 5.633-3.656 7.877-1.596 2.201-3.529 3.993-5.798 5.374-2.227 1.374-4.706 2.302-7.437 2.784zm0-7.552c2.815-.497 5.105-2.181 6.87-5.052 1.764-2.914 2.647-6.952 2.647-12.115 0-5.077-.862-8.765-2.584-11.064-1.723-2.342-4.034-3.257-6.933-2.745-2.9.511-5.211 2.241-6.934 5.19-1.722 2.906-2.584 6.898-2.584 11.976 0 5.162.883 8.889 2.648 11.181 1.764 2.249 4.054 3.125 6.87 2.629zm41.485.237c-2.732.481-5.232.431-7.501-.15-2.227-.589-4.139-1.702-5.735-3.341-1.597-1.681-2.837-3.873-3.719-6.576-.84-2.753-1.26-6.007-1.26-9.762 0-3.797.462-7.206 1.386-10.228.967-3.072 2.269-5.712 3.908-7.921s3.55-3.997 5.735-5.363c2.227-1.374 4.622-2.287 7.186-2.739 2.563-.452 4.937-.38 7.122.216 2.227.588 4.16 1.698 5.798 3.329 1.639 1.631 2.921 3.816 3.845 6.554.966 2.689 1.45 5.931 1.45 9.729 0 3.754-.442 7.16-1.324 10.217-.84 3.007-2.059 5.633-3.656 7.877-1.596 2.201-3.529 3.993-5.798 5.374-2.227 1.374-4.706 2.302-7.437 2.784zm0-7.552c2.815-.497 5.105-2.181 6.87-5.052 1.764-2.914 2.647-6.952 2.647-12.115 0-5.077-.862-8.765-2.584-11.064-1.723-2.341-4.034-3.257-6.933-2.745-2.9.511-5.211 2.241-6.933 5.19-1.723 2.907-2.585 6.898-2.585 11.976 0 5.162.883 8.889 2.648 11.181 1.764 2.249 4.054 3.125 6.87 2.629zm33.921-17.63-9.706 1.712c-.84.148-1.261-.205-1.261-1.058v-4.48c0-.853.421-1.354 1.261-1.502l9.706-1.712v-9.856c0-.853.42-1.354 1.261-1.502l4.412-.778c.84-.148 1.26.204 1.26 1.058v9.856l9.707-1.712c.84-.148 1.26.205 1.26 1.058v4.48c0 .853-.42 1.354-1.26 1.502l-9.707 1.712v9.856c0 .853-.42 1.354-1.26 1.502l-4.412.778c-.841.148-1.261-.204-1.261-1.058zm-172.7429 78.7c0-.32.1576-.508.4727-.564l2.1272-.375c.3151-.055.4727.077.4727.397v6.024l6.4997-1.146v-6.024c0-.32.1576-.508.4727-.564l2.1272-.375c.3152-.055.4727.077.4727.397v15.84c0 .32-.1575.508-.4727.563l-2.1272.375c-.3151.056-.4727-.076-.4727-.396v-6.888l-6.4997 1.146v6.888c0 .32-.1576.508-.4727.563l-2.1272.375c-.3151.056-.4727-.076-.4727-.396zm24.9455 7.649-5.6016.988-1.3472 4.029c-.063.171-.1418.305-.2364.402-.0788.094-.2048.156-.3781.187l-2.3399.412c-.3152.056-.4727-.076-.4727-.396l6.0506-16.907c.063-.171.1339-.304.2127-.398s.2049-.156.3782-.187l1.8908-.333c.1734-.03.2994-.013.3782.053.0788.067.1497.174.2127.323l6.0507 14.773c0 .32-.1576.508-.4727.563l-2.3399.413c-.1734.031-.3073.014-.4018-.049-.0788-.066-.1497-.174-.2128-.323zm-4.538-2.128 3.498-.617-1.749-4.587zm24.0174.085c.1103.141.1655.259.1655.355 0 .144-.0709.285-.2127.422-.457.48-.9061.911-1.3473 1.293-.4254.363-.8824.684-1.3708.962-.4727.275-.9848.51-1.5363.703s-1.1739.351-1.8672.473c-1.103.194-2.1508.195-3.1435.002s-1.8672-.582-2.6235-1.169c-.7564-.587-1.3551-1.377-1.7963-2.371-.4412-1.011-.6618-2.228-.6618-3.652s.2285-2.712.6854-3.865c.4727-1.171 1.0951-2.185 1.8672-3.041.7878-.859 1.686-1.561 2.6944-2.107 1.0242-.548 2.0799-.919 3.1672-1.11.6933-.123 1.3236-.17 1.8908-.142.583.009 1.1109.068 1.5836.177s.8981.258 1.2763.447c.3782.173.7169.362 1.0163.565.1576.1.2364.214.2364.342 0 .08-.0473.2-.1419.361l-1.2763 1.905c-.0787.094-.1418.169-.189.225-.0316.038-.0867.064-.1655.078-.0945.016-.197-.014-.3073-.09-.6145-.42-1.229-.711-1.8435-.875-.5988-.183-1.2763-.207-2.0327-.074-.6145.109-1.2369.33-1.8672.666-.6145.316-1.1738.751-1.6781 1.303-.4884.535-.8902 1.197-1.2054 1.989-.2994.773-.449 1.663-.449 2.671s.1496 1.854.449 2.537c.2994.667.6933 1.19 1.1818 1.568.4885.361 1.0321.602 1.6308.72.6146.1 1.2212.097 1.82-.009.5199-.092.9769-.22 1.3708-.386.3939-.181.7485-.388 1.0636-.619.3309-.234.6224-.478.8745-.73.2679-.272.5279-.541.78-.81.126-.15.26-.238.4018-.263.126-.022.2442.037.3545.178zm2.1996-13.828c0-.32.1576-.507.4727-.563l2.1272-.375c.3151-.056.4727.077.4727.397v5.184l4.9634-6.18c.2049-.276.4649-.442.78-.497l2.8362-.5c.1261-.022.2128-.006.26.05.0631.037.0946.095.0946.175 0 .096-.0315.182-.0946.257l-5.7197 7.177 6.3579 8.43c.063.101.0945.184.0945.248 0 .192-.1103.307-.3309.346l-2.8599.504c-.2205.039-.386.052-.4963.04-.0945-.031-.197-.125-.3073-.282l-4.7979-6.402-.78 1.05v6.24c0 .32-.1576.507-.4727.563l-2.1272.375c-.3151.056-.4727-.077-.4727-.397zm14.4951-2.555c0-.32.1576-.508.4727-.564l10.4705-1.846c.3152-.056.4727.077.4727.397v2.016c0 .288-.1418.457-.4254.507l-7.9179 1.396v3.576l6.3107-1.113c.3151-.056.4727.077.4727.397v1.968c0 .32-.1576.507-.4727.563l-6.3107 1.113v4.44l8.2015-1.446c.3151-.056.4727.076.4727.396v1.968c0 .32-.1576.508-.4727.564l-10.8014 1.904c-.3151.056-.4727-.076-.4727-.396zm14.172-2.499c0-.32.1576-.508.4727-.564l6.0266-1.062c1.749-.309 3.105-.14 4.066.507.961.646 1.442 1.706 1.442 3.178 0 .704-.119 1.348-.355 1.934-.236.57-.559 1.083-.969 1.539-.394.453-.867.841-1.418 1.162-.536.318-1.111.572-1.726.76l5.082 6.112c.063.069.095.151.095.247 0 .176-.103.283-.308.319l-2.93.516c-.174.031-.3.029-.379-.005-.078-.05-.165-.131-.26-.242l-5.199-6.259-.568.1v7.056c0 .32-.157.508-.472.563l-2.1276.375c-.3151.056-.4727-.076-.4727-.396zm6.6653 4.68c.693-.122 1.237-.362 1.631-.719.394-.358.591-.816.591-1.376s-.197-.95-.591-1.168c-.394-.219-.938-.267-1.631-.145l-3.593.634v3.408zm9.103 3.651c.11-.099.22-.159.331-.178.079-.014.142-.009.189.015.047.023.102.086.165.186.457.784.993 1.305 1.607 1.565.615.244 1.277.303 1.986.178.646-.114 1.182-.376 1.607-.787.441-.43.662-.949.662-1.557 0-.656-.276-1.143-.827-1.462-.536-.338-1.419-.582-2.648-.733-.551-.063-1.095-.183-1.63-.361-.536-.193-1.017-.453-1.442-.778-.41-.343-.741-.757-.993-1.241-.252-.499-.378-1.085-.378-1.757 0-.72.126-1.39.378-2.011.268-.623.638-1.176 1.111-1.66.473-.499 1.032-.91 1.678-1.231.662-.341 1.387-.581 2.175-.72.661-.117 1.26-.15 1.796-.101.551.047 1.04.153 1.465.318.426.165.804.378 1.135.64s.622.546.874.854c.095.111.142.207.142.287 0 .096-.063.211-.189.345l-1.654 1.684c-.127.118-.237.186-.331.202-.174.031-.308-.018-.402-.145-.347-.451-.741-.781-1.182-.992-.441-.226-1.016-.276-1.725-.151-.252.044-.505.121-.757.229s-.48.253-.685.433c-.189.161-.347.357-.473.587-.11.212-.165.453-.165.725 0 .544.244.957.732 1.239.505.279 1.285.486 2.34.62.835.108 1.56.269 2.175.48.614.212 1.126.49 1.536.833.41.344.709.779.898 1.306.205.508.308 1.122.308 1.842 0 .704-.142 1.393-.426 2.067-.268.655-.654 1.251-1.158 1.788-.488.534-1.079.99-1.773 1.369-.677.375-1.426.635-2.245.779-.741.131-1.442.167-2.104.107-.646-.078-1.244-.22-1.796-.427-.536-.225-1.008-.518-1.418-.878s-.741-.773-.993-1.241c-.063-.117-.094-.215-.094-.295 0-.144.086-.279.26-.406z" fill="#fff"/></svg>