<svg fill="none" height="310" viewBox="0 0 355 310" width="355" xmlns="http://www.w3.org/2000/svg" xmlns:xlink="http://www.w3.org/1999/xlink"><linearGradient id="a"><stop offset="0" stop-color="#f09343"/><stop offset="1" stop-color="#896bff"/></linearGradient><linearGradient id="b" gradientUnits="userSpaceOnUse" x1="8.99999" x2="354.956" xlink:href="#a" y1="67.961" y2="7.5048"/><linearGradient id="c" gradientUnits="userSpaceOnUse" x1="-.000006" x2="345.956" xlink:href="#a" y1="59.961" y2="-.495145"/><clipPath id="d"><path d="m0 3h346v296.299h-346z"/></clipPath><path d="m345.707 1.07777 8.293 7.3713v241.59693l-344.69477 58.887-8.28789-7.367 8.95172-233.7316z" fill="url(#b)"/><path d="m345.707 1.07777 8.293 7.3713v241.59693l-344.69477 58.887-8.28789-7.367 8.95172-233.7316z" fill="#000" fill-opacity=".5"/><g stroke="#fff"><path d="m345.707 1.07777 8.293 7.3713v241.59693l-344.69477 58.887-8.28789-7.367 8.95172-233.7316z" stroke-linejoin="bevel" stroke-width="2"/><path d="m1 300.815v-240.9636l344-58.66642v240.86102z" fill="url(#c)" stroke-linejoin="bevel" stroke-width="2"/><path d="m345 242 9 8" stroke-width="2"/><g clip-path="url(#d)" stroke-linejoin="bevel" stroke-width="3"><path d="m0 65.0075 346-59.0075" stroke-opacity=".15"/><path d="m0 62.0075 346-59.0075" opacity=".2" stroke-opacity=".02"/><path d="m0 71.015 346-59.0074" stroke-opacity=".15"/><path d="m0 68.015 346-59.00743" opacity=".2" stroke-opacity=".02"/><path d="m0 77.0224 346-59.0075" stroke-opacity=".15"/><path d="m0 74.0224 346-59.0075" opacity=".2" stroke-opacity=".02"/><path d="m0 83.0299 346-59.0074" stroke-opacity=".15"/><path d="m0 80.0299 346-59.0074" opacity=".2" stroke-opacity=".02"/><path d="m0 89.0373 346-59.0075" stroke-opacity=".15"/><path d="m0 86.0373 346-59.0075" opacity=".2" stroke-opacity=".02"/><path d="m0 95.0448 346-59.0074" stroke-opacity=".15"/><path d="m0 92.0448 346-59.0074" opacity=".2" stroke-opacity=".02"/><path d="m0 101.052 346-59.0073" stroke-opacity=".15"/><path d="m0 98.0521 346-59.0074" opacity=".2" stroke-opacity=".02"/><path d="m0 107.06 346-59.0078" stroke-opacity=".15"/><path d="m0 104.06 346-59.0078" opacity=".2" stroke-opacity=".02"/><path d="m0 113.067 346-59.0072" stroke-opacity=".15"/><path d="m0 110.067 346-59.0072" opacity=".2" stroke-opacity=".02"/><path d="m0 119.075 346-59.0079" stroke-opacity=".15"/><path d="m0 116.075 346-59.0079" opacity=".2" stroke-opacity=".02"/><path d="m0 125.082 346-59.0073" stroke-opacity=".15"/><path d="m0 122.082 346-59.0073" opacity=".2" stroke-opacity=".02"/><path d="m0 131.089 346-59.007" stroke-opacity=".15"/><path d="m0 128.089 346-59.007" opacity=".2" stroke-opacity=".02"/><path d="m0 137.097 346-59.0074" stroke-opacity=".15"/><path d="m0 134.097 346-59.0074" opacity=".2" stroke-opacity=".02"/><path d="m0 143.105 346-59.0078" stroke-opacity=".15"/><path d="m0 140.105 346-59.0078" opacity=".2" stroke-opacity=".02"/><path d="m0 149.112 346-59.0075" stroke-opacity=".15"/><path d="m0 146.112 346-59.0075" opacity=".2" stroke-opacity=".02"/><path d="m0 155.12 346-59.0079" stroke-opacity=".15"/><path d="m0 152.12 346-59.0079" opacity=".2" stroke-opacity=".02"/><path d="m0 161.127 346-59.008" stroke-opacity=".15"/><path d="m0 158.127 346-59.0076" opacity=".2" stroke-opacity=".02"/><path d="m0 167.134 346-59.007" stroke-opacity=".15"/><path d="m0 164.134 346-59.007" opacity=".2" stroke-opacity=".02"/><path d="m0 173.142 346-59.008" stroke-opacity=".15"/><path d="m0 170.142 346-59.008" opacity=".2" stroke-opacity=".02"/><path d="m0 179.149 346-59.007" stroke-opacity=".15"/><path d="m0 176.149 346-59.007" opacity=".2" stroke-opacity=".02"/><path d="m0 185.157 346-59.008" stroke-opacity=".15"/><path d="m0 182.157 346-59.008" opacity=".2" stroke-opacity=".02"/><path d="m0 191.164 346-59.007" stroke-opacity=".15"/><path d="m0 188.164 346-59.007" opacity=".2" stroke-opacity=".02"/><path d="m0 197.172 346-59.008" stroke-opacity=".15"/><path d="m0 194.172 346-59.008" opacity=".2" stroke-opacity=".02"/><path d="m0 203.179 346-59.007" stroke-opacity=".15"/><path d="m0 200.179 346-59.007" opacity=".2" stroke-opacity=".02"/><path d="m0 209.187 346-59.008" stroke-opacity=".15"/><path d="m0 206.187 346-59.008" opacity=".2" stroke-opacity=".02"/><path d="m0 215.194 346-59.007" stroke-opacity=".15"/><path d="m0 212.194 346-59.007" opacity=".2" stroke-opacity=".02"/><path d="m0 221.202 346-59.008" stroke-opacity=".15"/><path d="m0 218.202 346-59.008" opacity=".2" stroke-opacity=".02"/><path d="m0 227.209 346-59.008" stroke-opacity=".15"/><path d="m0 224.209 346-59.008" opacity=".2" stroke-opacity=".02"/><path d="m0 233.216 346-59.007" stroke-opacity=".15"/><path d="m0 230.216 346-59.007" opacity=".2" stroke-opacity=".02"/><path d="m0 239.224 346-59.008" stroke-opacity=".15"/><path d="m0 236.224 346-59.008" opacity=".2" stroke-opacity=".02"/><path d="m0 245.231 346-59.007" stroke-opacity=".15"/><path d="m0 242.231 346-59.007" opacity=".2" stroke-opacity=".02"/><path d="m0 251.239 346-59.008" stroke-opacity=".15"/><path d="m0 248.239 346-59.008" opacity=".2" stroke-opacity=".02"/><path d="m0 257.246 346-59.007" stroke-opacity=".15"/><path d="m0 254.246 346-59.007" opacity=".2" stroke-opacity=".02"/><path d="m0 263.254 346-59.008" stroke-opacity=".15"/><path d="m0 260.254 346-59.008" opacity=".2" stroke-opacity=".02"/><path d="m0 269.261 346-59.007" stroke-opacity=".15"/><path d="m0 266.261 346-59.007" opacity=".2" stroke-opacity=".02"/><path d="m0 275.269 346-59.008" stroke-opacity=".15"/><path d="m0 272.269 346-59.008" opacity=".2" stroke-opacity=".02"/><path d="m0 281.276 346-59.007" stroke-opacity=".15"/><path d="m0 278.276 346-59.007" opacity=".2" stroke-opacity=".02"/><path d="m0 287.284 346-59.008" stroke-opacity=".15"/><path d="m0 284.284 346-59.008" opacity=".2" stroke-opacity=".02"/><path d="m0 293.291 346-59.007" stroke-opacity=".15"/><path d="m0 290.291 346-59.007" opacity=".2" stroke-opacity=".02"/><path d="m0 299.298 346-59.007" stroke-opacity=".15"/><path d="m0 296.298 346-59.007" opacity=".2" stroke-opacity=".02"/></g></g><path d="m56.0865 167.725c0-.853.4201-1.354 1.2605-1.502l8.1306-1.434v-27.456l-5.4204 6.14c-.2941.35-.5883.552-.8824.603-.2941.052-.5252-.035-.6933-.261l-3.4035-3.816c-.2521-.254-.3781-.51-.3781-.766 0-.298.168-.626.5042-.984l8.8239-9.62c.3361-.358.6302-.623.8823-.796.2521-.172.6723-.31 1.2606-.414l6.2397-1.1c.8404-.149 1.2606.204 1.2606 1.057v35.968l8.1306-1.433c.8403-.149 1.2605.204 1.2605 1.057v4.992c0 .854-.4202 1.354-1.2605 1.503l-24.4548 4.312c-.8404.148-1.2605-.205-1.2605-1.058zm36.8741-14.118c.1681-.158.3572-.255.5673-.292.2521-.044.4832.107.6933.454.3361.709.7353 1.406 1.1975 2.093.5042.636 1.1135 1.211 1.8278 1.725.7143.472 1.5337.818 2.4581 1.039.9244.178 1.9954.16 3.2144-.055 1.849-.326 3.361-1.211 4.538-2.656 1.177-1.487 1.765-3.319 1.765-5.495 0-2.262-.61-3.882-1.828-4.862-1.219-1.022-2.815-1.36-4.79-1.011-1.597.281-3.0045.849-4.223 1.704-1.2185.813-2.248 1.698-3.0884 2.657-.126.15-.2731.304-.4412.462-.126.107-.2941.18-.5042.217-.168.029-.3361.038-.5042.024l-4.664-.137c-.4202-.011-.6934-.113-.8194-.304-.084-.241-.1261-.511-.1261-.809l3.0254-24.086c.126-.875.5672-1.38 1.3236-1.513l21.3665-3.768c.84-.148 1.26.205 1.26 1.058v5.248c0 .853-.42 1.354-1.26 1.502l-15.8831 2.801-1.5757 9.494c1.2185-.684 2.311-1.197 3.2774-1.538.9664-.384 2.1224-.694 3.4664-.931 1.807-.319 3.572-.332 5.294-.038 1.765.286 3.32.929 4.665 1.93 1.344.957 2.416 2.304 3.214 4.041.84 1.686 1.26 3.81 1.26 6.37 0 2.304-.378 4.44-1.134 6.408s-1.828 3.714-3.214 5.238c-1.345 1.517-2.942 2.78-4.791 3.789-1.848 1.009-3.865 1.706-6.05 2.091-2.101.37-4.013.409-5.7357.115-1.6808-.343-3.1724-.891-4.475-1.643-1.3026-.751-2.4161-1.643-3.3405-2.675-.8823-1.039-1.5756-2.09-2.0799-3.153-.084-.241-.126-.426-.126-.554 0-.341.2101-.655.6303-.943zm30.0124 14.036c-.421-.224-.631-.507-.631-.849 0-.213.063-.438.189-.673.631-.965 1.135-1.864 1.513-2.699.42-.842.756-1.669 1.009-2.482.252-.855.42-1.716.504-2.585.126-.875.189-1.804.189-2.785 0-.853.441-1.358 1.323-1.513l4.475-.789c.799-.141 1.198.215 1.198 1.069 0 1.536-.126 2.944-.378 4.226-.252 1.239-.61 2.412-1.072 3.517-.462 1.106-1.008 2.183-1.638 3.233-.589 1.043-1.261 2.1-2.017 3.172-.21.335-.378.536-.505.601-.126.107-.294.18-.504.217-.336.059-.609.022-.819-.112zm33.656-10.734c-2.731.481-5.231.431-7.5-.15-2.227-.589-4.139-1.702-5.735-3.341-1.597-1.681-2.837-3.873-3.719-6.576-.84-2.753-1.261-6.007-1.261-9.762 0-3.797.463-7.206 1.387-10.228.966-3.072 2.269-5.712 3.908-7.921 1.638-2.209 3.55-3.997 5.735-5.364 2.227-1.374 4.622-2.287 7.185-2.738 2.564-.452 4.938-.38 7.123.216 2.227.588 4.159 1.698 5.798 3.329s2.92 3.816 3.845 6.554c.966 2.689 1.449 5.931 1.449 9.729 0 3.754-.441 7.16-1.323 10.217-.841 3.007-2.059 5.632-3.656 7.877-1.596 2.201-3.529 3.993-5.798 5.374-2.227 1.374-4.706 2.302-7.438 2.784zm0-7.552c2.816-.497 5.106-2.181 6.87-5.052 1.765-2.914 2.648-6.952 2.648-12.115 0-5.077-.862-8.765-2.585-11.064-1.722-2.342-4.033-3.257-6.933-2.745-2.899.511-5.21 2.241-6.933 5.19-1.722 2.906-2.584 6.898-2.584 11.976 0 5.162.883 8.889 2.647 11.181 1.765 2.249 4.055 3.125 6.87 2.629zm41.485.237c-2.731.481-5.231.431-7.5-.15-2.227-.589-4.139-1.702-5.735-3.341-1.597-1.681-2.837-3.873-3.719-6.576-.84-2.753-1.261-6.007-1.261-9.762 0-3.797.463-7.206 1.387-10.228.966-3.072 2.269-5.712 3.908-7.921 1.638-2.209 3.55-3.997 5.735-5.363 2.227-1.374 4.622-2.287 7.185-2.739 2.564-.452 4.938-.38 7.123.216 2.227.588 4.159 1.698 5.798 3.329s2.92 3.816 3.845 6.554c.966 2.689 1.449 5.931 1.449 9.729 0 3.754-.441 7.16-1.323 10.217-.841 3.007-2.059 5.633-3.656 7.877-1.596 2.201-3.529 3.993-5.798 5.374-2.227 1.374-4.706 2.302-7.438 2.784zm0-7.552c2.816-.497 5.106-2.181 6.87-5.052 1.765-2.914 2.648-6.952 2.648-12.115 0-5.077-.862-8.765-2.585-11.064-1.722-2.341-4.033-3.257-6.933-2.745-2.899.511-5.21 2.241-6.933 5.19-1.722 2.907-2.584 6.898-2.584 11.976 0 5.162.883 8.889 2.647 11.181 1.765 2.249 4.055 3.125 6.87 2.629zm41.485.237c-2.731.481-5.231.431-7.5-.15-2.227-.588-4.139-1.702-5.735-3.34-1.597-1.682-2.837-3.874-3.719-6.577-.84-2.753-1.261-6.007-1.261-9.762 0-3.797.463-7.206 1.387-10.228.967-3.072 2.269-5.712 3.908-7.921s3.55-3.997 5.735-5.3634c2.227-1.374 4.622-2.287 7.185-2.7389 2.564-.452 4.938-.3799 7.123.2162 2.227.5886 4.159 1.6985 5.798 3.3295 1.639 1.6306 2.92 3.8156 3.845 6.5536.966 2.689 1.449 5.932 1.449 9.729 0 3.755-.441 7.16-1.323 10.217-.84 3.007-2.059 5.633-3.656 7.877-1.596 2.201-3.529 3.993-5.798 5.374-2.227 1.374-4.706 2.302-7.438 2.784zm0-7.552c2.816-.497 5.106-2.181 6.87-5.052 1.765-2.914 2.648-6.952 2.648-12.114 0-5.078-.862-8.766-2.584-11.065-1.723-2.341-4.034-3.257-6.934-2.745-2.899.511-5.21 2.241-6.933 5.19-1.722 2.907-2.584 6.898-2.584 11.976 0 5.162.883 8.89 2.647 11.181 1.765 2.249 4.055 3.125 6.87 2.629zm33.922-17.63-9.706 1.712c-.84.148-1.261-.205-1.261-1.058v-4.48c0-.853.421-1.354 1.261-1.502l9.706-1.712v-9.856c0-.853.42-1.3537 1.261-1.5019l4.412-.7779c.84-.1482 1.26.2044 1.26 1.0577v9.8561l9.706-1.712c.841-.148 1.261.205 1.261 1.058v4.48c0 .853-.42 1.354-1.261 1.502l-9.706 1.712v9.856c0 .853-.42 1.354-1.26 1.502l-4.412.778c-.841.148-1.261-.204-1.261-1.058zm-184.0144 80.687c0-.32.1576-.508.4727-.563l2.1272-.375c.3151-.056.4727.076.4727.396v5.184l4.9634-6.179c.2049-.276.4648-.442.78-.497l2.8364-.501c.126-.022.213-.005.26.051.063.037.094.095.094.175 0 .096-.031.182-.094.257l-5.7199 7.176 6.3579 8.431c.063.101.095.183.095.247 0 .192-.111.308-.331.347l-2.8603.504c-.2206.039-.386.052-.4963.04-.0945-.032-.197-.126-.3073-.282l-4.7979-6.402-.78 1.049v6.24c0 .32-.1576.508-.4727.564l-2.1272.375c-.3151.055-.4727-.077-.4727-.397zm15.9714-2.816c.047-.328.252-.525.615-.588l1.725-.305c.173-.03.299-.012.378.054s.15.173.213.322l4.325 11.069 4.325-12.594c.063-.171.134-.304.213-.398s.205-.156.378-.186l1.726-.305c.362-.064.567.06.614.372l1.796 15.523c0 .32-.157.508-.472.564l-2.198.387c-.3.053-.457-.079-.473-.396l-.875-9.062-3.498 9.833c-.063.171-.134.303-.212.397-.079.094-.205.156-.379.187l-1.89.333c-.174.031-.3.013-.379-.053-.078-.066-.149-.174-.212-.323l-3.498-8.599-.875 9.37c-.016.323-.173.511-.472.564l-2.199.387c-.315.056-.472-.076-.472-.396zm28.57-2.59-4.491.792c-.315.056-.473-.077-.473-.397v-1.968c0-.32.158-.507.473-.563l12.054-2.125c.315-.056.473.076.473.396v1.968c0 .32-.158.508-.473.564l-4.491.791v13.392c0 .32-.157.508-.472.564l-2.127.375c-.316.055-.473-.077-.473-.397zm10.092-4.227c0-.32.158-.508.473-.564l6.027-1.062c1.749-.309 3.104-.14 4.065.507.962.646 1.442 1.706 1.442 3.178 0 .704-.118 1.348-.354 1.934-.237.57-.56 1.083-.969 1.539-.394.453-.867.841-1.419 1.162-.535.318-1.11.572-1.725.76l5.082 6.112c.063.069.094.152.094.248 0 .176-.102.282-.307.318l-2.931.517c-.173.03-.299.028-.378-.006-.079-.05-.165-.131-.26-.242l-5.2-6.259-.567.1v7.056c0 .32-.158.508-.473.563l-2.127.375c-.315.056-.473-.076-.473-.396zm6.666 4.68c.693-.122 1.236-.362 1.63-.719.394-.358.591-.816.591-1.376s-.197-.95-.591-1.168c-.394-.219-.937-.267-1.63-.145l-3.593.634v3.408zm17.703 3.071-5.602.988-1.347 4.029c-.063.171-.142.305-.236.402-.079.094-.205.156-.379.187l-2.339.412c-.316.056-.473-.077-.473-.397l6.051-16.906c.063-.172.133-.304.212-.398s.205-.156.378-.187l1.891-.333c.174-.031.3-.013.378.053.079.066.15.174.213.323l6.051 14.773c0 .32-.158.508-.473.563l-2.34.413c-.173.03-.307.014-.402-.049-.078-.066-.149-.174-.212-.323zm-4.538-2.128 3.498-.617-1.749-4.587zm7.641-10.467c0-.32.157-.508.473-.564l2.623-.462c.173-.031.292-.012.355.057.078.066.141.175.189.327l3.805 10.945 3.805-12.287c.048-.168.103-.298.166-.389.079-.094.205-.156.378-.187l2.623-.462c.316-.056.473.076.473.396l-5.649 16.836c-.063.171-.134.304-.212.398-.079.094-.197.154-.355.182l-2.458.434c-.158.027-.276.008-.355-.058-.078-.066-.149-.173-.212-.322zm16.614-2.93c0-.32.157-.508.473-.563l10.47-1.846c.315-.056.473.076.473.396v2.016c0 .288-.142.457-.426.507l-7.918 1.396v3.576l6.311-1.112c.315-.056.473.076.473.396v1.968c0 .32-.158.508-.473.564l-6.311 1.112v4.44l8.202-1.446c.315-.055.473.077.473.397v1.968c0 .32-.158.508-.473.563l-10.801 1.905c-.316.055-.473-.077-.473-.397zm14.172-2.499c0-.32.157-.507.473-.563l2.127-.375c.315-.056.472.077.472.397v13.392l7.918-1.397c.315-.055.473.077.473.397v1.968c0 .32-.158.508-.473.563l-10.517 1.855c-.316.056-.473-.077-.473-.397zm13.71-2.417c0-.32.158-.508.473-.564l2.127-.375c.315-.055.473.077.473.397v13.392l7.918-1.396c.315-.056.472.077.472.397v1.968c0 .32-.157.507-.472.563l-10.518 1.854c-.315.056-.473-.076-.473-.396zm13.711-2.418c0-.32.157-.507.472-.563l10.471-1.846c.315-.056.472.076.472.396v2.016c0 .288-.141.457-.425.507l-7.918 1.397v3.576l6.311-1.113c.315-.056.473.076.473.396v1.968c0 .32-.158.508-.473.564l-6.311 1.113v4.44l8.202-1.447c.315-.055.472.077.472.397v1.968c0 .32-.157.508-.472.563l-10.802 1.905c-.315.056-.472-.077-.472-.397zm14.172-2.499c0-.32.157-.507.472-.563l4.444-.783c1.134-.2 2.229-.234 3.285-.1 1.056.118 1.985.442 2.789.972.819.528 1.465 1.286 1.938 2.275.489.97.733 2.207.733 3.711 0 1.52-.244 2.859-.733 4.017-.473 1.139-1.119 2.117-1.938 2.933-.804.814-1.733 1.466-2.789 1.956s-2.151.836-3.285 1.036l-4.444.783c-.315.056-.472-.077-.472-.397zm4.656 12.571c.819-.144 1.583-.375 2.292-.692s1.316-.736 1.82-1.257c.505-.521.898-1.15 1.182-1.888.299-.757.449-1.639.449-2.647s-.15-1.83-.449-2.465c-.284-.654-.685-1.151-1.205-1.492-.505-.343-1.111-.548-1.82-.615-.694-.069-1.45-.032-2.269.112l-1.584.28v10.944z" fill="#fff"/></svg>