<svg fill="none" height="314" viewBox="0 0 267 314" width="267" xmlns="http://www.w3.org/2000/svg" xmlns:xlink="http://www.w3.org/1999/xlink"><linearGradient id="a"><stop offset="0" stop-color="#1fa6ff"/><stop offset="1" stop-color="#896bff"/></linearGradient><linearGradient id="b" gradientUnits="userSpaceOnUse" x1="9" x2="267.049" xlink:href="#a" y1="52.9502" y2="8.09605"/><linearGradient id="c" gradientUnits="userSpaceOnUse" x1="-.000005" x2="258.049" xlink:href="#a" y1="44.9502" y2=".096056"/><clipPath id="d"><path d="m0 0h257v304.072h-257z"/></clipPath><path d="m257.712 1.08214 8.288 7.36693v260.39493l-256.69517 44.089-8.28878-7.368 8.95557-252.5117z" fill="url(#b)"/><path d="m257.712 1.08214 8.288 7.36693v260.39493l-256.69517 44.089-8.28878-7.368 8.95557-252.5117z" fill="#000" fill-opacity=".5"/><g stroke="#fff"><path d="m257.712 1.08214 8.288 7.36693v260.39493l-256.69517 44.089-8.28878-7.368 8.95557-252.5117z" stroke-linejoin="bevel" stroke-width="2"/><path d="m1 304.814v-259.7355l256-43.89246v259.65796z" fill="url(#c)" stroke-linejoin="bevel" stroke-width="2"/><path d="m257 260.5 9 8.5" stroke-width="2"/><g clip-path="url(#d)" stroke-linejoin="bevel" stroke-width="3"><path d="m0 48.0249 281-48.0249" stroke-opacity=".02"/><path d="m0 51.0249 281-48.0249" stroke-opacity=".15"/><path d="m0 54.0498 281-48.0249" stroke-opacity=".02"/><path d="m0 57.0498 281-48.0249" stroke-opacity=".15"/><path d="m0 60.0749 281-48.025" stroke-opacity=".02"/><path d="m0 63.0749 281-48.025" stroke-opacity=".15"/><path d="m0 66.0998 281-48.025" stroke-opacity=".02"/><path d="m0 69.0998 281-48.025" stroke-opacity=".15"/><path d="m0 72.1247 281-48.025" stroke-opacity=".02"/><path d="m0 75.1247 281-48.025" stroke-opacity=".15"/><path d="m0 78.1496 281-48.025" stroke-opacity=".02"/><path d="m0 81.1496 281-48.025" stroke-opacity=".15"/><path d="m0 84.1746 281-48.0249" stroke-opacity=".02"/><path d="m0 87.1746 281-48.0249" stroke-opacity=".15"/><path d="m0 90.1995 281-48.0249" stroke-opacity=".02"/><path d="m0 93.1995 281-48.0249" stroke-opacity=".15"/><path d="m0 96.2244 281-48.0249" stroke-opacity=".02"/><path d="m0 99.2244 281-48.0249" stroke-opacity=".15"/><path d="m0 102.249 281-48.0245" stroke-opacity=".02"/><path d="m0 105.249 281-48.0245" stroke-opacity=".15"/><path d="m0 108.274 281-48.0246" stroke-opacity=".02"/><path d="m0 111.274 281-48.0246" stroke-opacity=".15"/><path d="m0 114.299 281-48.0247" stroke-opacity=".02"/><path d="m0 117.299 281-48.0247" stroke-opacity=".15"/><path d="m0 120.324 281-48.0248" stroke-opacity=".02"/><path d="m0 123.324 281-48.0248" stroke-opacity=".15"/><path d="m0 126.349 281-48.0248" stroke-opacity=".02"/><path d="m0 129.349 281-48.0248" stroke-opacity=".15"/><path d="m0 132.374 281-48.0249" stroke-opacity=".02"/><path d="m0 135.374 281-48.0249" stroke-opacity=".15"/><path d="m0 138.399 281-48.025" stroke-opacity=".02"/><path d="m0 141.399 281-48.025" stroke-opacity=".15"/><path d="m0 144.424 281-48.0251" stroke-opacity=".02"/><path d="m0 147.424 281-48.0251" stroke-opacity=".15"/><path d="m0 150.449 281-48.025" stroke-opacity=".02"/><path d="m0 153.449 281-48.025" stroke-opacity=".15"/><path d="m0 156.474 281-48.025" stroke-opacity=".02"/><path d="m0 159.474 281-48.025" stroke-opacity=".15"/><path d="m0 162.499 281-48.025" stroke-opacity=".02"/><path d="m0 165.499 281-48.025" stroke-opacity=".15"/><path d="m0 168.524 281-48.025" stroke-opacity=".02"/><path d="m0 171.524 281-48.025" stroke-opacity=".15"/><path d="m0 174.549 281-48.025" stroke-opacity=".02"/><path d="m0 177.549 281-48.025" stroke-opacity=".15"/><path d="m0 180.574 281-48.025" stroke-opacity=".02"/><path d="m0 183.574 281-48.025" stroke-opacity=".15"/><path d="m0 186.598 281-48.025" stroke-opacity=".02"/><path d="m0 189.598 281-48.025" stroke-opacity=".15"/><path d="m0 192.623 281-48.025" stroke-opacity=".02"/><path d="m0 195.623 281-48.025" stroke-opacity=".15"/><path d="m0 198.648 281-48.025" stroke-opacity=".02"/><path d="m0 201.648 281-48.025" stroke-opacity=".15"/><path d="m0 204.673 281-48.025" stroke-opacity=".02"/><path d="m0 207.673 281-48.025" stroke-opacity=".15"/><path d="m0 210.698 281-48.025" stroke-opacity=".02"/><path d="m0 213.698 281-48.025" stroke-opacity=".15"/><path d="m0 216.723 281-48.025" stroke-opacity=".02"/><path d="m0 219.723 281-48.025" stroke-opacity=".15"/><path d="m0 222.748 281-48.025" stroke-opacity=".02"/><path d="m0 225.748 281-48.025" stroke-opacity=".15"/><path d="m0 228.773 281-48.025" stroke-opacity=".02"/><path d="m0 231.773 281-48.025" stroke-opacity=".15"/><path d="m0 234.798 281-48.025" stroke-opacity=".02"/><path d="m0 237.798 281-48.025" stroke-opacity=".15"/><path d="m0 240.823 281-48.025" stroke-opacity=".02"/><path d="m0 243.823 281-48.025" stroke-opacity=".15"/><path d="m0 246.848 281-48.025" stroke-opacity=".02"/><path d="m0 249.848 281-48.025" stroke-opacity=".15"/><path d="m0 252.873 281-48.025" stroke-opacity=".02"/><path d="m0 255.873 281-48.025" stroke-opacity=".15"/><path d="m0 258.898 281-48.025" stroke-opacity=".02"/><path d="m0 261.898 281-48.025" stroke-opacity=".15"/><path d="m0 264.923 281-48.025" stroke-opacity=".02"/><path d="m0 267.923 281-48.025" stroke-opacity=".15"/><path d="m0 270.948 281-48.025" stroke-opacity=".02"/><path d="m0 273.948 281-48.025" stroke-opacity=".15"/><path d="m0 276.972 281-48.024" stroke-opacity=".02"/><path d="m0 279.972 281-48.024" stroke-opacity=".15"/><path d="m0 282.997 281-48.025" stroke-opacity=".02"/><path d="m0 285.997 281-48.025" stroke-opacity=".15"/><path d="m0 289.022 281-48.025" stroke-opacity=".02"/><path d="m0 292.022 281-48.025" stroke-opacity=".15"/><path d="m0 295.047 281-48.025" stroke-opacity=".02"/><path d="m0 298.047 281-48.025" stroke-opacity=".15"/><path d="m0 301.072 281-48.025" stroke-opacity=".02"/><path d="m0 304.072 281-48.025" stroke-opacity=".15"/></g></g><path d="m133.688 87.4684c0-.8533.42-1.3541 1.26-1.5022l8.131-1.4337v-27.456l-5.421 6.1398c-.294.3505-.588.5517-.882.6036-.294.0518-.525-.0354-.693-.2618l-3.404-3.8159c-.252-.2542-.378-.5093-.378-.7653 0-.2986.168-.6269.504-.9849l8.824-9.6199c.336-.3579.63-.6231.882-.7956.253-.1724.673-.3105 1.261-.4142l6.24-1.1003c.84-.1481 1.26.2044 1.26 1.0578v35.968l8.131-1.4337c.84-.1482 1.26.2044 1.26 1.0578v4.992c0 .8533-.42 1.354-1.26 1.5022l-24.455 4.3121c-.84.1481-1.26-.2044-1.26-1.0578zm32.006-5.6435c0-.8534.42-1.3541 1.26-1.5023l8.131-1.4336v-27.456l-5.42 6.1397c-.295.3505-.589.5517-.883.6036s-.525-.0354-.693-.2617l-3.404-3.8159c-.252-.2542-.378-.5093-.378-.7653 0-.2987.168-.627.504-.9849l8.824-9.6199c.336-.358.631-.6232.883-.7956.252-.1725.672-.3106 1.26-.4143l6.24-1.1002c.84-.1482 1.261.2044 1.261 1.0577v35.968l8.13-1.4336c.84-.1482 1.261.2044 1.261 1.0577v4.992c0 .8533-.421 1.3541-1.261 1.5023l-24.455 4.312c-.84.1482-1.26-.2044-1.26-1.0577zm47.856-1.5263c-2.732.4816-5.232.4318-7.501-.1495-2.227-.5886-4.139-1.7022-5.735-3.3407-1.597-1.6811-2.837-3.8732-3.719-6.5763-.84-2.7531-1.26-6.007-1.26-9.7617 0-3.7973.462-7.2068 1.386-10.2285.967-3.0717 2.269-5.7121 3.908-7.921 1.639-2.209 3.55-3.9968 5.735-5.3634 2.227-1.374 4.622-2.2869 7.186-2.7389 2.563-.4519 4.937-.3799 7.122.2162 2.227.5886 4.16 1.6985 5.798 3.3295 1.639 1.6311 2.921 3.8158 3.845 6.5541.966 2.6883 1.45 5.9311 1.45 9.7284 0 3.7547-.442 7.1605-1.324 10.2174-.84 3.0068-2.059 5.6324-3.656 7.8766-1.596 2.2015-3.529 3.993-5.798 5.3744-2.227 1.374-4.706 2.3018-7.437 2.7834zm0-7.552c2.815-.4964 5.105-2.1802 6.87-5.0514 1.764-2.9138 2.647-6.9521 2.647-12.1147 0-5.0774-.862-8.7655-2.584-11.0644-1.723-2.3415-4.034-3.2567-6.933-2.7455-2.9.5112-5.211 2.2414-6.933 5.1905-1.723 2.9064-2.585 6.8983-2.585 11.9756 0 5.1627.883 8.8898 2.648 11.1813 1.764 2.2488 4.054 3.125 6.87 2.6286zm-86.397 51.8264c.047-.329.252-.525.614-.589l1.726-.304c.173-.03.299-.013.378.053.079.067.15.174.213.323l4.325 11.069 4.325-12.594c.063-.172.134-.304.213-.398s.205-.156.378-.187l1.725-.304c.363-.064.568.06.615.372l1.796 15.523c0 .32-.157.508-.472.563l-2.199.388c-.299.053-.457-.079-.472-.397l-.875-9.061-3.498 9.832c-.063.171-.134.304-.213.398-.078.094-.204.156-.378.187l-1.891.333c-.173.031-.299.013-.378-.053s-.149-.174-.212-.323l-3.498-8.599-.875 9.37c-.016.323-.173.511-.473.563l-2.198.388c-.315.056-.472-.077-.472-.397zm18.581-3.277c0-.32.158-.508.473-.563l10.47-1.846c.316-.056.473.076.473.396v2.016c0 .288-.142.457-.425.507l-7.918 1.396v3.576l6.311-1.112c.315-.056.472.076.472.396v1.968c0 .32-.157.508-.472.564l-6.311 1.112v4.44l8.201-1.446c.315-.055.473.077.473.397v1.968c0 .32-.158.508-.473.563l-10.801 1.905c-.315.055-.473-.077-.473-.397zm14.172-2.499c0-.32.158-.507.473-.563l2.009-.354c.236-.042.41-.024.52.052.126.058.236.15.331.278l6.925 8.811v-10.032c0-.32.158-.508.473-.564l2.127-.375c.315-.055.473.077.473.397v15.84c0 .32-.158.508-.473.563l-1.678.296c-.237.042-.418.034-.544-.024-.11-.077-.213-.179-.307-.306l-7.256-9.112v10.392c0 .32-.158.507-.473.563l-2.127.375c-.315.056-.473-.077-.473-.397zm20.329-1.136-4.491.792c-.315.055-.472-.077-.472-.397v-1.968c0-.32.157-.508.472-.563l12.054-2.126c.316-.055.473.077.473.397v1.968c0 .32-.157.508-.473.563l-4.49.792v13.392c0 .32-.158.508-.473.563l-2.127.375c-.315.056-.473-.076-.473-.396zm16.912 11.13c-1.103.194-2.151.203-3.144.026-.992-.193-1.867-.583-2.623-1.169-.757-.587-1.355-1.377-1.797-2.372-.441-1.01-.661-2.235-.661-3.675 0-1.424.228-2.712.685-3.865.457-1.168 1.064-2.179 1.82-3.033.756-.853 1.631-1.551 2.624-2.094.992-.543 2.024-.909 3.096-1.098 1.071-.189 2.103-.187 3.096.006s1.867.583 2.624 1.169c.756.587 1.363 1.384 1.819 2.391.457.992.686 2.2.686 3.624 0 1.44-.221 2.742-.662 3.908-.441 1.15-1.04 2.152-1.796 3.005-.757.853-1.631 1.552-2.624 2.095-.992.527-2.04.887-3.143 1.082zm0-2.928c.583-.103 1.166-.31 1.749-.621.599-.329 1.134-.768 1.607-1.315s.859-1.207 1.158-1.98c.3-.773.449-1.663.449-2.671s-.149-1.846-.449-2.513c-.299-.667-.693-1.19-1.182-1.568-.472-.38-1.008-.622-1.607-.724-.583-.122-1.158-.132-1.725-.032s-1.15.315-1.749.644c-.583.311-1.119.742-1.607 1.292-.473.547-.859 1.207-1.159 1.98-.299.773-.449 1.663-.449 2.671s.142 1.847.426 2.517c.299.667.685 1.191 1.158 1.572.473.38 1 .631 1.583.753.599.102 1.198.1 1.797-.005zm10.815-15.539c0-.32.157-.508.473-.563l6.027-1.063c1.749-.309 3.104-.14 4.065.507.961.646 1.442 1.706 1.442 3.178 0 .704-.119 1.349-.355 1.934-.236.57-.559 1.083-.969 1.539-.394.454-.867.841-1.418 1.162-.536.319-1.111.572-1.725.76l5.081 6.112c.063.069.095.152.095.248 0 .176-.103.282-.308.318l-2.93.517c-.174.03-.3.028-.379-.006-.078-.05-.165-.13-.26-.242l-5.199-6.259-.568.1v7.056c0 .32-.157.508-.472.563l-2.127.376c-.316.055-.473-.077-.473-.397zm6.665 4.681c.693-.123 1.237-.362 1.631-.72.394-.357.591-.816.591-1.376s-.197-.949-.591-1.168c-.394-.218-.938-.267-1.631-.144l-3.593.633v3.408zm9.103 3.651c.11-.1.221-.159.331-.179.079-.014.142-.009.189.015s.102.086.165.187c.457.783.993 1.305 1.608 1.564.614.244 1.276.303 1.985.178.646-.114 1.182-.376 1.607-.787.441-.43.662-.949.662-1.557 0-.656-.276-1.143-.827-1.462-.536-.338-1.418-.582-2.647-.733-.552-.063-1.096-.183-1.631-.361-.536-.193-1.017-.452-1.442-.777-.41-.344-.741-.758-.993-1.241-.252-.5-.378-1.086-.378-1.758 0-.72.126-1.39.378-2.01.268-.624.638-1.177 1.111-1.66.473-.5 1.032-.91 1.678-1.232.662-.341 1.387-.581 2.175-.72.661-.116 1.26-.15 1.796-.1.551.046 1.04.152 1.465.317.426.165.804.379 1.135.64.331.262.622.546.874.854.095.111.142.207.142.287 0 .096-.063.211-.189.345l-1.654 1.684c-.126.118-.237.186-.331.202-.174.031-.308-.017-.402-.145-.347-.451-.741-.781-1.182-.991-.441-.227-1.016-.277-1.725-.152-.252.044-.504.121-.757.229-.252.109-.48.253-.685.433-.189.161-.347.357-.473.587-.11.212-.165.454-.165.726 0 .544.244.957.733 1.238.504.28 1.284.486 2.339.62.836.109 1.56.269 2.175.48.614.212 1.127.49 1.536.834.41.343.709.779.898 1.305.205.508.308 1.122.308 1.842 0 .704-.142 1.393-.426 2.067-.268.655-.654 1.251-1.158 1.788-.488.534-1.079.991-1.773 1.369-.677.375-1.426.635-2.245.78-.741.13-1.442.166-2.104.107-.646-.078-1.244-.221-1.796-.428-.536-.225-1.008-.518-1.418-.878-.41-.359-.74-.773-.993-1.241-.063-.116-.094-.215-.094-.295 0-.144.087-.279.26-.406z" fill="#fff"/></svg>