<svg fill="none" height="493" viewBox="0 0 227 493" width="227" xmlns="http://www.w3.org/2000/svg" xmlns:xlink="http://www.w3.org/1999/xlink"><linearGradient id="a"><stop offset="0" stop-color="#009b9e"/><stop offset="1" stop-color="#f09343"/></linearGradient><linearGradient id="b" gradientUnits="userSpaceOnUse" x1=".480273" x2="216.459" xlink:href="#a" y1="93.4478" y2="368.201"/><linearGradient id="c" gradientUnits="userSpaceOnUse" x1="9.48042" x2="225.459" xlink:href="#a" y1="85.4477" y2="360.2"/><clipPath id="d"><path d="m10 2h217v490.045h-217z"/></clipPath><path d="m9.18454 1.17392-8.18454 7.27515v362.76593l216.791 83.633 8.198-7.287-8.973-354.8686z" fill="url(#b)"/><path d="m9.18454 1.17392-8.18454 7.27515v362.76593l216.791 83.633 8.198-7.287-8.973-354.8686z" fill="#000" fill-opacity=".5"/><g stroke="#fff"><path d="m9.18454 1.17392-8.18454 7.27515v362.76593l216.791 83.633 8.198-7.287-8.973-354.8686z" stroke-linejoin="bevel" stroke-width="2"/><path d="m226 446.542v-361.8229l-216-83.2619v361.7578z" fill="url(#c)" stroke-linejoin="bevel" stroke-width="2"/><path d="m1 371 9-8" stroke-width="2"/><g clip-path="url(#d)" stroke-linejoin="bevel" stroke-width="3"><path d="m359 139.804-349-134.60405" stroke-opacity=".15"/><path d="m359 136.604-349-134.604" stroke-opacity=".02"/><path d="m359 146.209-349-134.6048" stroke-opacity=".15"/><path d="m359 143.009-349-134.6047" stroke-opacity=".02"/><path d="m359 152.613-349-134.6042" stroke-opacity=".15"/><path d="m359 149.413-349-134.6042" stroke-opacity=".02"/><path d="m359 159.018-349-134.6049" stroke-opacity=".15"/><path d="m359 155.818-349-134.6049" stroke-opacity=".02"/><path d="m359 165.422-349-134.6046" stroke-opacity=".15"/><path d="m359 162.222-349-134.6046" stroke-opacity=".02"/><path d="m359 171.826-349-134.6041" stroke-opacity=".15"/><path d="m359 168.626-349-134.604" stroke-opacity=".02"/><path d="m359 178.231-349-134.6048" stroke-opacity=".15"/><path d="m359 175.031-349-134.6047" stroke-opacity=".02"/><path d="m359 184.635-349-134.6045" stroke-opacity=".15"/><path d="m359 181.435-349-134.6044" stroke-opacity=".02"/><path d="m359 191.039-349-134.6042" stroke-opacity=".15"/><path d="m359 187.839-349-134.6041" stroke-opacity=".02"/><path d="m359 197.444-349-134.6046" stroke-opacity=".15"/><path d="m359 194.244-349-134.6046" stroke-opacity=".02"/><path d="m359 203.848-349-134.6043" stroke-opacity=".15"/><path d="m359 200.648-349-134.6043" stroke-opacity=".02"/><path d="m359 210.252-349-134.6041" stroke-opacity=".15"/><path d="m359 207.052-349-134.604" stroke-opacity=".02"/><path d="m359 216.657-349-134.6045" stroke-opacity=".15"/><path d="m359 213.457-349-134.6045" stroke-opacity=".02"/><path d="m359 223.061-349-134.6042" stroke-opacity=".15"/><path d="m359 219.861-349-134.6042" stroke-opacity=".02"/><path d="m359 229.465-349-134.6039" stroke-opacity=".15"/><path d="m359 226.266-349-134.6049" stroke-opacity=".02"/><path d="m359 235.87-349-134.604" stroke-opacity=".15"/><path d="m359 232.67-349-134.6043" stroke-opacity=".02"/><path d="m359 242.274-349-134.604" stroke-opacity=".15"/><path d="m359 239.074-349-134.604" stroke-opacity=".02"/><path d="m359 248.679-349-134.605" stroke-opacity=".15"/><path d="m359 245.479-349-134.605" stroke-opacity=".02"/><path d="m359 255.083-349-134.604" stroke-opacity=".15"/><path d="m359 251.883-349-134.604" stroke-opacity=".02"/><path d="m359 261.487-349-134.604" stroke-opacity=".15"/><path d="m359 258.288-349-134.605" stroke-opacity=".02"/><path d="m359 267.892-349-134.605" stroke-opacity=".15"/><path d="m359 264.692-349-134.605" stroke-opacity=".02"/><path d="m359 274.296-349-134.604" stroke-opacity=".15"/><path d="m359 271.096-349-134.604" stroke-opacity=".02"/><path d="m359 280.701-349-134.605" stroke-opacity=".15"/><path d="m359 277.501-349-134.605" stroke-opacity=".02"/><path d="m359 287.105-349-134.605" stroke-opacity=".15"/><path d="m359 283.905-349-134.604" stroke-opacity=".02"/><path d="m359 293.509-349-134.604" stroke-opacity=".15"/><path d="m359 290.309-349-134.604" stroke-opacity=".02"/><path d="m359 299.914-349-134.605" stroke-opacity=".15"/><path d="m359 296.714-349-134.605" stroke-opacity=".02"/><path d="m359 306.318-349-134.604" stroke-opacity=".15"/><path d="m359 303.118-349-134.604" stroke-opacity=".02"/><path d="m359 312.722-349-134.604" stroke-opacity=".15"/><path d="m359 309.522-349-134.604" stroke-opacity=".02"/><path d="m359 319.127-349-134.605" stroke-opacity=".15"/><path d="m359 315.927-349-134.604" stroke-opacity=".02"/><path d="m359 325.531-349-134.604" stroke-opacity=".15"/><path d="m359 322.331-349-134.604" stroke-opacity=".02"/><path d="m359 331.935-349-134.604" stroke-opacity=".15"/><path d="m359 328.736-349-134.605" stroke-opacity=".02"/><path d="m359 338.34-349-134.604" stroke-opacity=".15"/><path d="m359 335.14-349-134.604" stroke-opacity=".02"/><path d="m359 344.744-349-134.604" stroke-opacity=".15"/><path d="m359 341.544-349-134.604" stroke-opacity=".02"/><path d="m359 351.149-349-134.605" stroke-opacity=".15"/><path d="m359 347.949-349-134.605" stroke-opacity=".02"/><path d="m359 357.553-349-134.604" stroke-opacity=".15"/><path d="m359 354.353-349-134.604" stroke-opacity=".02"/><path d="m359 363.957-349-134.604" stroke-opacity=".15"/><path d="m359 360.757-349-134.604" stroke-opacity=".02"/><path d="m359 370.362-349-134.605" stroke-opacity=".15"/><path d="m359 367.162-349-134.605" stroke-opacity=".02"/><path d="m359 376.766-349-134.604" stroke-opacity=".15"/><path d="m359 373.566-349-134.604" stroke-opacity=".02"/><path d="m359 383.171-349-134.605" stroke-opacity=".15"/><path d="m359 379.971-349-134.605" stroke-opacity=".02"/><path d="m359 389.575-349-134.605" stroke-opacity=".15"/><path d="m359 386.375-349-134.604" stroke-opacity=".02"/><path d="m359 395.979-349-134.604" stroke-opacity=".15"/><path d="m359 392.779-349-134.604" stroke-opacity=".02"/><path d="m359 402.384-349-134.605" stroke-opacity=".15"/><path d="m359 399.184-349-134.605" stroke-opacity=".02"/><path d="m359 408.788-349-134.604" stroke-opacity=".15"/><path d="m359 405.588-349-134.604" stroke-opacity=".02"/><path d="m359 415.192-349-134.604" stroke-opacity=".15"/><path d="m359 411.992-349-134.604" stroke-opacity=".02"/><path d="m359 421.597-349-134.605" stroke-opacity=".15"/><path d="m359 418.397-349-134.605" stroke-opacity=".02"/><path d="m359 428.001-349-134.604" stroke-opacity=".15"/><path d="m359 424.801-349-134.604" stroke-opacity=".02"/><path d="m359 434.405-349-134.604" stroke-opacity=".15"/><path d="m359 431.205-349-134.604" stroke-opacity=".02"/><path d="m359 440.81-349-134.605" stroke-opacity=".15"/><path d="m359 437.61-349-134.605" stroke-opacity=".02"/><path d="m359 447.214-349-134.604" stroke-opacity=".15"/><path d="m359 444.014-349-134.604" stroke-opacity=".02"/><path d="m359 453.619-349-134.605" stroke-opacity=".15"/><path d="m359 450.419-349-134.605" stroke-opacity=".02"/><path d="m359 460.023-349-134.605" stroke-opacity=".15"/><path d="m359 456.823-349-134.604" stroke-opacity=".02"/><path d="m359 466.427-349-134.604" stroke-opacity=".15"/><path d="m359 463.227-349-134.604" stroke-opacity=".02"/><path d="m359 472.832-349-134.605" stroke-opacity=".15"/><path d="m359 469.632-349-134.605" stroke-opacity=".02"/><path d="m359 479.236-349-134.604" stroke-opacity=".15"/><path d="m359 476.036-349-134.604" stroke-opacity=".02"/><path d="m359 485.64-349-134.604" stroke-opacity=".15"/><path d="m359 482.44-349-134.604" stroke-opacity=".02"/><path d="m359 492.045-349-134.605" stroke-opacity=".15"/><path d="m359 488.845-349-134.605" stroke-opacity=".02"/></g></g><path d="m35.1693 288.449c0-.427.0398-.732.1196-.915.1196-.21.3189-.433.598-.667l13.7535-9.475c1.7142-1.18 2.8702-2.382 3.4682-3.605.6379-1.207.9568-2.515.9568-3.923 0-1.792-.4784-3.425-1.4352-4.899-.9567-1.517-2.3121-2.61-4.0662-3.279-1.5946-.608-2.95-.571-4.0663.113-1.0763.656-1.9135 1.766-2.5115 3.33-.1594.409-.4186.544-.7773.407-.1994-.076-.4186-.223-.6578-.442l-5.3818-4.741c-.4385-.381-.6578-.742-.6578-1.083 0-.213.0598-.425.1794-.636.5581-1.152 1.2558-2.166 2.0929-3.041.8771-.903 1.8936-1.582 3.0497-2.037 1.196-.483 2.5115-.706 3.9467-.671 1.475.008 3.0696.339 4.7838.993 2.073.791 3.9466 1.825 5.621 3.104 1.7142 1.294 3.1693 2.745 4.3652 4.353 1.196 1.608 2.1129 3.366 2.7507 5.273.6777 1.88 1.0166 3.823 1.0166 5.828 0 2.688-.5183 4.986-1.5548 6.895-1.0365 1.866-2.6311 3.54-4.7838 5.023l-9.3284 6.426 15.368 5.862c.7973.304 1.196.883 1.196 1.736v5.248c0 .853-.3987 1.128-1.196.824l-25.6533-9.785c-.7973-.304-1.1959-.883-1.1959-1.736zm38.1725 9.056c.279-.192.578-.228.8969-.106.2392.091.4984.339.7774.744 1.0764 1.691 2.1926 3.119 3.3487 4.286 1.1959 1.181 2.5713 2.068 4.126 2.661 1.8737.715 3.3288.545 4.3653-.511 1.0763-1.082 1.8138-3.148 2.2125-6.196-1.0365.202-2.1129.219-3.2291.049s-2.1527-.437-3.1095-.802c-1.9932-.761-3.8669-1.817-5.621-3.168-1.754-1.352-3.2888-2.919-4.6044-4.701-1.3155-1.824-2.352-3.841-3.1095-6.05-.7574-2.208-1.1361-4.529-1.1361-6.961 0-2.219.3787-4.122 1.1361-5.711.7973-1.615 1.8537-2.834 3.1693-3.655 1.3156-.863 2.8504-1.345 4.6044-1.443 1.7541-.099 3.6278.231 5.621.992 3.1494 1.201 5.8801 2.925 8.1923 5.172 2.3122 2.248 4.0663 5.157 5.2622 8.727.5183 1.521.897 3.244 1.1362 5.17.279 1.898.4186 4.106.4186 6.623 0 8.448-1.3355 14.403-4.0065 17.864-2.6311 3.477-6.6176 4.196-11.9595 2.159-2.3521-.898-4.6244-2.298-6.817-4.201s-4.0463-4.039-5.5612-6.409c-.2392-.347-.3588-.691-.3588-1.033 0-.256.0997-.452.299-.59zm15.6072-13.823c0-.982-.0797-1.823-.2392-2.523-.1595-.701-.4186-1.376-.7774-2.025-.5581-.938-1.2557-1.78-2.0929-2.526-.8372-.789-1.8936-1.427-3.1693-1.913-.7973-.304-1.5746-.43-2.3321-.378-.7574.01-1.4351.221-2.0331.633s-1.0963 1.011-1.495 1.798c-.3587.802-.5381 1.821-.5381 3.058 0 1.238.1794 2.394.5381 3.47.3588 1.075.8372 2.047 1.4352 2.915s1.2757 1.617 2.0331 2.248c.7973.602 1.6345 1.071 2.5115 1.406.8372.319 1.6345.516 2.3919.592.7575.075 1.4352-.007 2.0332-.249.4385-.174.8371-.534 1.1959-1.079.3588-.546.5382-1.331.5382-2.355zm20.162 24.842c.16-.067.339-.063.538.013.24.092.459.367.658.827.319.89.698 1.802 1.136 2.738.479.907 1.057 1.811 1.734 2.709.678.856 1.455 1.643 2.332 2.362.878.675 1.894 1.234 3.05 1.675 1.754.669 3.189.598 4.306-.214 1.116-.854 1.674-2.369 1.674-4.545 0-2.262-.578-4.21-1.734-5.846-1.156-1.678-2.671-2.875-4.545-3.589-1.515-.578-2.85-.767-4.006-.568-1.156.156-2.133.487-2.93.994-.12.082-.259.157-.419.224-.12.04-.279.022-.478-.054-.16-.061-.319-.143-.479-.247l-4.425-2.647c-.398-.238-.658-.486-.777-.745-.08-.286-.12-.579-.12-.877l2.871-22.458c.119-.807.538-1.074 1.255-.801l20.272 7.732c.797.304 1.196.883 1.196 1.737v5.247c0 .854-.399 1.128-1.196.824l-15.069-5.747-1.495 8.645c1.156-.028 2.192.047 3.109.226.917.137 2.013.448 3.289.935 1.714.654 3.389 1.591 5.023 2.812 1.675 1.236 3.15 2.716 4.425 4.44 1.276 1.681 2.292 3.605 3.05 5.771.797 2.139 1.196 4.488 1.196 7.048 0 2.304-.359 4.237-1.076 5.797-.718 1.561-1.735 2.731-3.05 3.509-1.276.794-2.791 1.197-4.545 1.211-1.754.013-3.667-.375-5.74-1.166-1.994-.76-3.808-1.751-5.442-2.971-1.595-1.249-3.01-2.599-4.246-4.052-1.235-1.452-2.292-2.943-3.169-4.473-.837-1.514-1.495-2.938-1.973-4.272-.08-.287-.12-.494-.12-.622 0-.341.199-.543.598-.604zm38.281 9.929-9.209-3.512c-.797-.304-1.196-.883-1.196-1.736v-4.48c0-.854.399-1.128 1.196-.824l9.209 3.512v-9.856c0-.853.399-1.128 1.196-.823l4.186 1.596c.797.304 1.196.883 1.196 1.736v9.856l9.209 3.513c.797.304 1.196.883 1.196 1.736v4.48c0 .853-.399 1.128-1.196.824l-9.209-3.513v9.856c0 .854-.399 1.128-1.196.824l-4.186-1.596c-.797-.305-1.196-.883-1.196-1.737zm-112.4769 18.451c.1047-.04.2093-.04.314 0 .0747.028.1345.067.1794.116.0448.049.0971.141.1569.276.4336 1.029.9419 1.839 1.5249 2.43.583.574 1.2109.989 1.8836 1.246.6129.234 1.1212.26 1.5249.078.4185-.193.6278-.593.6278-1.201 0-.656-.2616-1.292-.7848-1.907-.5083-.626-1.3455-1.345-2.5115-2.158-.5232-.36-1.039-.772-1.5473-1.238-.5083-.482-.9642-1-1.3679-1.554-.3886-.564-.7026-1.156-.9418-1.775-.2392-.636-.3588-1.289-.3588-1.961 0-.72.1196-1.323.3588-1.807.2542-.479.6055-.833 1.054-1.062.4484-.245.9792-.355 1.5921-.329.6279.015 1.3155.166 2.063.451.6279.239 1.196.528 1.7042.866.5233.343.9867.712 1.3903 1.106.4037.394.7625.811 1.0764 1.251.3139.439.5905.881.8297 1.324.0897.162.1345.284.1345.364 0 .096-.0598.177-.1794.243l-1.5696.793c-.1196.051-.2243.059-.314.025-.1644-.063-.2915-.184-.3812-.362-.3289-.637-.7026-1.18-1.1212-1.627-.4186-.464-.9642-.824-1.637-1.081-.2392-.091-.4784-.15-.7175-.178-.2392-.027-.456-.005-.6503.064-.1794.06-.3289.171-.4485.333-.1047.152-.157.365-.157.637 0 .544.2317 1.088.6952 1.633.4783.55 1.2183 1.176 2.2199 1.878.7924.559 1.48 1.109 2.0631 1.651.583.543 1.0689 1.096 1.4575 1.66.3887.565.6728 1.161.8522 1.789.1943.618.2915 1.287.2915 2.007 0 .704-.1346 1.317-.4037 1.839-.2541.511-.6204.899-1.0987 1.164-.4635.272-1.0241.41-1.6819.415-.6428.011-1.3529-.132-2.1303-.429-.7026-.268-1.3678-.609-1.9957-1.025-.6129-.426-1.181-.89-1.7042-1.394-.5083-.514-.9568-1.061-1.3455-1.641s-.7026-1.172-.9418-1.775c-.0598-.151-.0897-.267-.0897-.347 0-.144.0822-.232.2467-.265zm24.8452 11.804c.1046.2.1569.348.1569.444 0 .144-.0672.247-.2018.307-.4335.235-.8596.424-1.2782.569-.4036.134-.8371.209-1.3006.224-.4485.021-.9343-.021-1.4575-.124-.5233-.104-1.1138-.281-1.7716-.532-1.0464-.399-2.0406-.962-2.9824-1.689-.9418-.728-1.7715-1.588-2.4891-2.582-.7175-.994-1.2856-2.106-1.7042-3.338-.4186-1.248-.6279-2.583-.6279-4.007s.2168-2.59.6503-3.496c.4485-.917 1.039-1.596 1.7715-2.037.7475-.435 1.5996-.654 2.5564-.657.9717.003 1.9733.201 3.0048.595.6578.25 1.2558.542 1.794.876.5531.323 1.0539.666 1.5024 1.029s.8521.741 1.2109 1.134c.3588.377.6802.747.9642 1.111.1495.186.2243.342.2243.47 0 .08-.0449.175-.1346.285l-1.2109 1.218c-.0747.051-.1345.093-.1794.123-.0299.021-.0822.017-.1569-.011-.0897-.035-.1869-.12-.2915-.256-.5831-.75-1.1661-1.372-1.7491-1.867-.5681-.504-1.2109-.894-1.9285-1.167-.583-.223-1.1735-.336-1.7715-.34-.5831-.014-1.1138.119-1.5921.401-.4635.271-.8447.717-1.1437 1.339-.284.612-.426 1.422-.426 2.43s.142 1.934.426 2.778c.2841.829.6578 1.563 1.1212 2.204.4635.625.9792 1.158 1.5473 1.598.583.431 1.1586.754 1.7267.971.4933.188.9268.305 1.3006.352.3737.03.7101.015 1.0091-.047.3139-.056.5905-.143.8296-.26.2542-.127.5009-.257.74-.389.1196-.083.2467-.098.3813-.047.1196.046.2317.168.3363.368zm2.0868-12.644c0-.32.1495-.423.4485-.308l2.0182.769c.299.114.4484.331.4484.651v6.024l6.1667 2.352v-6.024c0-.32.1495-.423.4485-.308l2.0182.769c.2989.114.4484.331.4484.651v15.84c0 .32-.1495.423-.4484.309l-2.0182-.769c-.299-.115-.4485-.332-.4485-.652v-6.888l-6.1667-2.352v6.888c0 .32-.1494.423-.4484.309l-2.0182-.769c-.299-.115-.4485-.332-.4485-.652zm22.3681 25.092c-1.0464-.399-2.0406-.954-2.9824-1.665-.9418-.728-1.7715-1.588-2.4891-2.582-.7176-.993-1.2856-2.106-1.7042-3.338-.4186-1.247-.6279-2.591-.6279-4.031 0-1.424.2168-2.59.6503-3.496.4335-.923 1.0091-1.607 1.7267-2.054.7175-.446 1.5472-.673 2.4891-.682.9418-.009 1.921.18 2.9375.568 1.0166.388 1.9958.945 2.9376 1.673.9418.727 1.7715 1.587 2.4891 2.581.7175.994 1.2931 2.117 1.7266 3.371.4336 1.237.6503 2.568.6503 3.992 0 1.44-.2093 2.624-.6278 3.552-.4186.913-.9867 1.592-1.7043 2.038s-1.5473.674-2.4891.683c-.9418-.007-1.9359-.211-2.9824-.61zm0-2.928c.5531.211 1.1063.318 1.6594.321.5681-.007 1.0764-.157 1.5249-.45.4484-.293.8147-.745 1.0987-1.357.2841-.612.4261-1.422.4261-2.43s-.142-1.926-.4261-2.754c-.284-.828-.6577-1.563-1.1212-2.204-.4485-.635-.9567-1.165-1.5248-1.589-.5531-.435-1.0988-.756-1.637-.961s-1.0913-.304-1.6594-.297c-.5531-.003-1.0614.139-1.5248.427-.4485.293-.8148.745-1.0988 1.357-.284.611-.4261 1.421-.4261 2.429s.1346 1.923.4037 2.746c.284.828.6503 1.56 1.0988 2.195.4484.635.9493 1.17 1.5024 1.605.5681.425 1.1361.746 1.7042.962zm17.7598 9.702c-1.046-.399-2.0406-.954-2.9824-1.665-.9418-.728-1.7715-1.588-2.4891-2.582-.7176-.993-1.2857-2.106-1.7042-3.338-.4186-1.247-.6279-2.591-.6279-4.031 0-1.424.2167-2.59.6503-3.496.4335-.923 1.0091-1.607 1.7266-2.054.7176-.446 1.5473-.673 2.4891-.682s1.9206.18 2.9376.568 1.996.945 2.938 1.673c.941.727 1.771 1.587 2.489 2.581.717.994 1.293 2.117 1.726 3.371.434 1.237.651 2.568.651 3.992 0 1.44-.21 2.624-.628 3.552-.419.913-.987 1.592-1.705 2.038-.717.447-1.547.674-2.489.683-.941-.007-1.936-.211-2.982-.61zm0-2.928c.553.211 1.106.318 1.659.321.568-.007 1.077-.157 1.525-.45.449-.293.815-.745 1.099-1.357s.426-1.422.426-2.43-.142-1.926-.426-2.754-.658-1.563-1.121-2.204c-.449-.635-.957-1.165-1.525-1.589-.553-.435-1.099-.755-1.637-.961-.538-.205-1.091-.304-1.659-.297-.5535-.003-1.0618.139-1.5252.427-.4485.293-.8148.745-1.0988 1.357-.2841.611-.4261 1.421-.4261 2.429s.1346 1.923.4036 2.746c.2841.828.6504 1.56 1.0988 2.195.4485.635.9493 1.17 1.5027 1.605.568.425 1.136.746 1.704.962zm10.261-9.718c0-.32.149-.423.448-.309l2.018.77c.299.114.449.331.449.651v13.392l7.512 2.865c.299.114.449.331.449.651v1.968c0 .32-.15.423-.449.309l-9.979-3.806c-.299-.114-.448-.331-.448-.651zm14.412 16.609c.105-.04.21-.04.314 0 .075.029.135.067.18.116.045.05.097.142.157.276.433 1.03.942 1.84 1.525 2.43.583.574 1.21.99 1.883 1.246.613.234 1.121.26 1.525.078.419-.192.628-.592.628-1.2 0-.656-.262-1.292-.785-1.908-.508-.626-1.345-1.345-2.511-2.158-.524-.359-1.039-.772-1.548-1.238-.508-.482-.964-1-1.368-1.554-.388-.564-.702-1.156-.941-1.775-.24-.635-.359-1.289-.359-1.961 0-.72.119-1.322.359-1.807.254-.479.605-.833 1.054-1.062.448-.245.979-.354 1.592-.329.628.016 1.315.166 2.063.451.628.24 1.196.528 1.704.866.523.344.987.713 1.39 1.107.404.394.763.81 1.077 1.25s.59.881.829 1.325c.09.162.135.283.135.363 0 .096-.06.177-.18.243l-1.569.794c-.12.05-.225.058-.314.024-.165-.063-.292-.183-.381-.361-.329-.638-.703-1.18-1.122-1.628-.418-.464-.964-.824-1.637-1.08-.239-.092-.478-.151-.717-.178s-.456-.006-.65.064c-.18.059-.329.17-.449.333-.105.152-.157.364-.157.636 0 .544.232 1.088.695 1.633.479.551 1.219 1.177 2.22 1.879.793.558 1.48 1.108 2.063 1.651.583.542 1.069 1.095 1.458 1.66.389.564.673 1.16.852 1.789.194.618.291 1.287.291 2.007 0 .704-.134 1.317-.403 1.838-.254.511-.621.899-1.099 1.165-.463.271-1.024.409-1.682.414-.643.011-1.353-.132-2.13-.428-.703-.268-1.368-.61-1.996-1.025-.613-.426-1.181-.891-1.704-1.395-.508-.513-.957-1.06-1.346-1.641-.388-.58-.702-1.172-.941-1.775-.06-.151-.09-.266-.09-.346 0-.144.082-.233.247-.266z" fill="#fff"/></svg>