<svg fill="none" height="251" viewBox="0 0 255 251" width="255" xmlns="http://www.w3.org/2000/svg" xmlns:xlink="http://www.w3.org/1999/xlink"><linearGradient id="a"><stop offset="0" stop-color="#1fa6ff"/><stop offset="1" stop-color="#009b9e"/></linearGradient><linearGradient id="b" gradientUnits="userSpaceOnUse" x1="8.99999" x2="255.009" xlink:href="#a" y1="50.7502" y2="7.87953"/><linearGradient id="c" gradientUnits="userSpaceOnUse" x1="-.000008" x2="246.009" xlink:href="#a" y1="42.7502" y2="-.120518"/><clipPath id="d"><path d="m0 0h245v237.798h-245z"/></clipPath><path d="m245.713 1.08274 8.287 7.36633v199.56393l-244.69498 41.92-8.28386-7.363 8.94174-191.681z" fill="url(#b)"/><path d="m245.713 1.08274 8.287 7.36633v199.56393l-244.69498 41.92-8.28386-7.363 8.94174-191.681z" fill="#000" fill-opacity=".5"/><g stroke="#fff"><path d="m245.713 1.08274 8.287 7.36633v199.56393l-244.69498 41.92-8.28386-7.363 8.94174-191.681z" stroke-linejoin="bevel" stroke-width="2"/><path d="m1 241.814v-198.9002l244-41.72827v198.82747z" fill="url(#c)" stroke-linejoin="bevel" stroke-width="2"/><path d="m245 200 9 8" stroke-width="2"/><g clip-path="url(#d)" stroke-linejoin="bevel" stroke-width="3"><path d="m0 48.0249 281-48.0249" stroke-opacity=".02"/><path d="m0 51.0249 281-48.0249" stroke-opacity=".15"/><path d="m0 54.0498 281-48.0249" stroke-opacity=".02"/><path d="m0 57.0498 281-48.0249" stroke-opacity=".15"/><path d="m0 60.0747 281-48.0249" stroke-opacity=".02"/><path d="m0 63.0747 281-48.0249" stroke-opacity=".15"/><path d="m0 66.0996 281-48.0249" stroke-opacity=".02"/><path d="m0 69.0996 281-48.0249" stroke-opacity=".15"/><path d="m0 72.1248 281-48.0249" stroke-opacity=".02"/><path d="m0 75.1248 281-48.0249" stroke-opacity=".15"/><path d="m0 78.1497 281-48.0249" stroke-opacity=".02"/><path d="m0 81.1497 281-48.0249" stroke-opacity=".15"/><path d="m0 84.1746 281-48.0249" stroke-opacity=".02"/><path d="m0 87.1746 281-48.0249" stroke-opacity=".15"/><path d="m0 90.1995 281-48.0249" stroke-opacity=".02"/><path d="m0 93.1995 281-48.0249" stroke-opacity=".15"/><path d="m0 96.2244 281-48.0249" stroke-opacity=".02"/><path d="m0 99.2244 281-48.0249" stroke-opacity=".15"/><path d="m0 102.249 281-48.0246" stroke-opacity=".02"/><path d="m0 105.249 281-48.0246" stroke-opacity=".15"/><path d="m0 108.274 281-48.0247" stroke-opacity=".02"/><path d="m0 111.274 281-48.0247" stroke-opacity=".15"/><path d="m0 114.299 281-48.0246" stroke-opacity=".02"/><path d="m0 117.299 281-48.0246" stroke-opacity=".15"/><path d="m0 120.324 281-48.0247" stroke-opacity=".02"/><path d="m0 123.324 281-48.0247" stroke-opacity=".15"/><path d="m0 126.349 281-48.0248" stroke-opacity=".02"/><path d="m0 129.349 281-48.0248" stroke-opacity=".15"/><path d="m0 132.374 281-48.0249" stroke-opacity=".02"/><path d="m0 135.374 281-48.0249" stroke-opacity=".15"/><path d="m0 138.399 281-48.025" stroke-opacity=".02"/><path d="m0 141.399 281-48.025" stroke-opacity=".15"/><path d="m0 144.424 281-48.0251" stroke-opacity=".02"/><path d="m0 147.424 281-48.0251" stroke-opacity=".15"/><path d="m0 150.449 281-48.025" stroke-opacity=".02"/><path d="m0 153.449 281-48.025" stroke-opacity=".15"/><path d="m0 156.474 281-48.025" stroke-opacity=".02"/><path d="m0 159.474 281-48.025" stroke-opacity=".15"/><path d="m0 162.499 281-48.025" stroke-opacity=".02"/><path d="m0 165.499 281-48.025" stroke-opacity=".15"/><path d="m0 168.524 281-48.025" stroke-opacity=".02"/><path d="m0 171.524 281-48.025" stroke-opacity=".15"/><path d="m0 174.549 281-48.025" stroke-opacity=".02"/><path d="m0 177.549 281-48.025" stroke-opacity=".15"/><path d="m0 180.574 281-48.025" stroke-opacity=".02"/><path d="m0 183.574 281-48.025" stroke-opacity=".15"/><path d="m0 186.598 281-48.025" stroke-opacity=".02"/><path d="m0 189.598 281-48.025" stroke-opacity=".15"/><path d="m0 192.623 281-48.025" stroke-opacity=".02"/><path d="m0 195.623 281-48.025" stroke-opacity=".15"/><path d="m0 198.648 281-48.025" stroke-opacity=".02"/><path d="m0 201.648 281-48.025" stroke-opacity=".15"/><path d="m0 204.673 281-48.025" stroke-opacity=".02"/><path d="m0 207.673 281-48.025" stroke-opacity=".15"/><path d="m0 210.698 281-48.025" stroke-opacity=".02"/><path d="m0 213.698 281-48.025" stroke-opacity=".15"/><path d="m0 216.723 281-48.025" stroke-opacity=".02"/><path d="m0 219.723 281-48.025" stroke-opacity=".15"/><path d="m0 222.748 281-48.025" stroke-opacity=".02"/><path d="m0 225.748 281-48.025" stroke-opacity=".15"/><path d="m0 228.773 281-48.025" stroke-opacity=".02"/><path d="m0 231.773 281-48.025" stroke-opacity=".15"/><path d="m0 234.798 281-48.025" stroke-opacity=".02"/><path d="m0 237.798 281-48.025" stroke-opacity=".15"/></g></g><path d="m90.4246 120.812c0-.427.0421-.754.1261-.982.126-.278.3361-.614.6303-1.007l14.496-17.276c1.807-2.1537 3.026-4.0112 3.656-5.573.672-1.5693 1.008-3.0579 1.008-4.4659 0-1.792-.504-3.1537-1.512-4.0852-1.009-.9742-2.437-1.2983-4.286-.9723-1.681.2963-3.11 1.1029-4.286 2.4197-1.1345 1.2667-2.0169 2.8516-2.6472 4.7548-.1681.4989-.4412.7818-.8194.8484-.2101.0371-.4412.0138-.6933-.0697l-5.6725-1.6878c-.4622-.1318-.6933-.3684-.6933-.7098 0-.2133.0631-.4591.1891-.7373.5883-1.4691 1.3236-2.8787 2.206-4.229.9244-1.4003 1.9959-2.6559 3.2144-3.7668 1.2605-1.1609 2.6472-2.1307 4.1598-2.9094 1.5544-.8288 3.2354-1.4025 5.0424-1.7211 2.185-.3853 4.16-.4135 5.924-.0847 1.807.3214 3.341.947 4.601 1.8767 1.261.9298 2.227 2.1673 2.9 3.7128.714 1.4954 1.071 3.2457 1.071 5.2511 0 2.688-.546 5.2803-1.639 7.7769-1.092 2.454-2.773 5.0326-5.042 7.7376l-9.832 11.717 16.198-2.856c.84-.148 1.261.204 1.261 1.058v5.248c0 .853-.421 1.354-1.261 1.502l-27.0388 4.768c-.8404.148-1.2606-.205-1.2606-1.058zm60.9254-39.8627c-.252.3431-.546.5443-.883.6035-.252.0445-.441.0565-.567.0361-.126-.0631-.273-.1439-.441-.2422-1.219-.9372-2.416-1.5154-3.593-1.7346-1.134-.2693-2.332-.2928-3.592-.0705-2.185.3853-4.076 1.6787-5.673 3.8802-1.554 2.1941-2.521 5.0312-2.899 8.5112 1.05-1.1665 2.332-2.1392 3.845-2.9179 1.512-.8214 3.025-1.3654 4.538-1.6322 1.975-.3482 3.823-.3542 5.546-.018 1.723.3363 3.215 1.0333 4.475 2.091 1.303 1.0503 2.311 2.4725 3.025 4.2665.757 1.7867 1.135 3.96 1.135 6.5196 0 2.39-.42 4.597-1.261 6.623-.798 2.018-1.911 3.835-3.34 5.453-1.387 1.567-3.025 2.88-4.916 3.939-1.891 1.016-3.887 1.709-5.988 2.079-2.353.415-4.496.366-6.429-.146-1.933-.513-3.592-1.479-4.979-2.898-1.387-1.462-2.479-3.382-3.277-5.758-.757-2.384-1.135-5.24-1.135-8.568 0-3.5842.399-7.0039 1.198-10.2594.798-3.2981 1.933-6.2501 3.403-8.8561 1.513-2.6134 3.362-4.7954 5.547-6.546s4.664-2.8704 7.437-3.3594c2.899-.5112 5.294-.4428 7.185.2051 1.933.5979 3.509 1.408 4.727 2.4305.252.2115.378.488.378.8293 0 .2987-.084.5695-.252.8125zm-17.27 23.8447c0 1.067.168 1.997.504 2.791.379.787.883 1.424 1.513 1.91s1.345.829 2.143 1.03c.84.15 1.723.144 2.647-.019 1.765-.311 3.32-1.225 4.664-2.742 1.345-1.517 2.017-3.513 2.017-5.988 0-1.195-.189-2.2279-.567-3.0999s-.883-1.5724-1.513-2.1013c-.588-.5363-1.281-.9047-2.08-1.1052-.798-.2006-1.638-.2231-2.521-.0675-1.849.326-3.424 1.2012-4.727 2.6255-.462.5508-.924 1.251-1.387 2.1004-.42.8-.651 1.928-.693 3.386zm-83.4441 58.474c0-.32.1575-.508.4727-.564l2.5999-.458c.1575-.028.2678-.007.3309.062.063.053.1103.164.1418.335l2.5762 10.369 3.0726-11.365c.0473-.169.1103-.3.1891-.394.0946-.096.2285-.16.4018-.191l2.0327-.358c.1733-.031.2994-.013.3781.053.0946.064.1655.171.2128.323l3.0726 10.282 2.5762-11.278c.0315-.182.0788-.31.1418-.385.0631-.091.1734-.151.3309-.179l2.5999-.458c.3152-.056.4727.077.4727.397l-4.2543 16.59c-.0946.337-.2994.533-.6146.588l-2.2926.404c-.2994.053-.4963-.072-.5909-.375l-3.049-10.263-3.0489 11.338c-.0946.337-.2915.531-.5909.584l-2.2926.404c-.3152.056-.52-.068-.6146-.371zm30.7489 11.138c-1.103.194-2.1508.203-3.1435.026-.9927-.193-1.8672-.583-2.6236-1.169-.7563-.587-1.3551-1.377-1.7962-2.371-.4412-1.011-.6618-2.236-.6618-3.676 0-1.424.2284-2.712.6854-3.865.4569-1.168 1.0636-2.179 1.8199-3.032.7563-.854 1.6309-1.552 2.6235-2.095.9927-.543 2.0248-.909 3.0963-1.098 1.0714-.189 2.1035-.187 3.0962.006s1.8672.583 2.6235 1.169c.7564.587 1.363 1.384 1.82 2.392.4569.991.6854 2.199.6854 3.623 0 1.44-.2206 2.743-.6618 3.908-.4412 1.15-1.04 2.152-1.7963 3.005s-1.6308 1.552-2.6235 2.095c-.9927.527-2.0405.887-3.1435 1.082zm0-2.928c.583-.103 1.166-.31 1.749-.62.5988-.33 1.1345-.768 1.6072-1.316.4727-.547.8588-1.207 1.1581-1.98.2994-.773.4491-1.663.4491-2.671s-.1497-1.846-.4491-2.513c-.2993-.667-.6933-1.19-1.1817-1.568-.4727-.38-1.0085-.622-1.6072-.724-.583-.121-1.1582-.132-1.7254-.032-.5673.1-1.1503.315-1.749.644-.583.311-1.1188.742-1.6072 1.292-.4728.547-.8588 1.207-1.1582 1.98s-.4491 1.663-.4491 2.671.1419 1.847.4255 2.517c.2994.667.6854 1.191 1.1581 1.572s1.0006.632 1.5836.753c.5987.102 1.1975.101 1.7963-.005zm10.815-15.539c0-.32.1576-.508.4727-.563l6.027-1.063c1.7495-.308 3.1045-.139 4.0655.507.961.647 1.442 1.706 1.442 3.178 0 .704-.119 1.349-.355 1.934-.236.57-.559 1.083-.969 1.539-.394.454-.867.841-1.418 1.162-.536.319-1.111.572-1.7255.761l5.0815 6.112c.063.068.095.151.095.247 0 .176-.103.282-.308.318l-2.93.517c-.174.03-.3.029-.379-.006-.078-.05-.165-.13-.26-.242l-5.1993-6.259-.5673.1v7.056c0 .32-.1576.508-.4727.564l-2.1272.375c-.3151.055-.4727-.077-.4727-.397zm6.6652 4.681c.6933-.123 1.237-.362 1.631-.72.394-.357.591-.816.591-1.376s-.197-.949-.591-1.168c-.394-.218-.9377-.267-1.631-.144l-3.5926.633v3.408zm7.876-7.245c0-.32.158-.508.473-.563l2.127-.375c.315-.056.473.076.473.396v5.184l4.963-6.179c.205-.276.465-.442.78-.498l2.836-.5c.126-.022.213-.005.26.051.063.036.095.095.095.175 0 .096-.032.181-.095.257l-5.719 7.176 6.358 8.431c.063.101.094.183.094.247 0 .192-.11.308-.331.347l-2.86.504c-.22.039-.386.052-.496.039-.095-.031-.197-.125-.307-.281l-4.798-6.402-.78 1.049v6.24c0 .32-.158.508-.473.564l-2.127.375c-.315.055-.473-.077-.473-.397zm15.884 8.311c.11-.099.22-.159.331-.178.078-.014.141-.009.189.015.047.023.102.086.165.186.457.784.993 1.305 1.607 1.565.615.244 1.277.303 1.986.178.646-.114 1.181-.376 1.607-.787.441-.43.662-.949.662-1.557 0-.656-.276-1.144-.828-1.462-.535-.338-1.418-.582-2.647-.734-.551-.062-1.095-.182-1.631-.36-.535-.193-1.016-.453-1.441-.778-.41-.343-.741-.757-.993-1.241-.252-.499-.378-1.085-.378-1.757 0-.72.126-1.39.378-2.011.268-.623.638-1.176 1.111-1.66.473-.499 1.032-.91 1.678-1.231.662-.341 1.387-.581 2.174-.72.662-.117 1.261-.15 1.797-.101.551.047 1.04.153 1.465.318.426.165.804.378 1.135.64.33.262.622.546.874.854.095.111.142.207.142.287 0 .096-.063.211-.189.345l-1.655 1.684c-.126.118-.236.185-.331.202-.173.031-.307-.018-.401-.145-.347-.451-.741-.781-1.182-.992-.441-.226-1.016-.276-1.726-.151-.252.044-.504.121-.756.229s-.48.253-.685.433c-.189.161-.347.357-.473.587-.11.212-.165.453-.165.725 0 .544.244.957.732 1.239.504.279 1.284.486 2.34.62.835.108 1.56.269 2.175.48.614.212 1.126.49 1.536.833.41.344.709.779.898 1.306.205.508.307 1.122.307 1.842 0 .704-.141 1.393-.425 2.067-.268.655-.654 1.251-1.158 1.788-.489.534-1.08.99-1.773 1.369-.677.375-1.426.635-2.245.779-.741.131-1.442.167-2.104.107-.646-.078-1.245-.22-1.796-.427-.536-.225-1.009-.518-1.418-.878-.41-.36-.741-.773-.993-1.241-.063-.117-.094-.215-.094-.295 0-.144.086-.279.26-.406zm12.16-13.256c0-.32.158-.508.473-.563l2.127-.375c.315-.056.473.076.473.396v6.024l6.499-1.146v-6.024c0-.32.158-.508.473-.563l2.127-.375c.315-.056.473.076.473.396v15.84c0 .32-.158.508-.473.564l-2.127.375c-.315.055-.473-.077-.473-.397v-6.888l-6.499 1.146v6.888c0 .32-.158.508-.473.564l-2.127.375c-.315.055-.473-.077-.473-.397zm23.576 12.403c-1.103.194-2.15.203-3.143.026-.993-.193-1.867-.583-2.624-1.169-.756-.587-1.355-1.377-1.796-2.371-.441-1.011-.662-2.236-.662-3.676 0-1.424.229-2.712.686-3.865.457-1.168 1.063-2.179 1.82-3.033.756-.853 1.63-1.551 2.623-2.094s2.025-.909 3.096-1.098c1.072-.189 2.104-.187 3.097.006.992.193 1.867.583 2.623 1.169.756.587 1.363 1.384 1.82 2.391.457.992.685 2.2.685 3.624 0 1.44-.22 2.743-.661 3.908-.442 1.15-1.04 2.152-1.797 3.005-.756.853-1.63 1.552-2.623 2.095-.993.527-2.041.887-3.144 1.082zm0-2.928c.583-.103 1.166-.31 1.749-.62.599-.33 1.135-.769 1.608-1.316.472-.547.858-1.207 1.158-1.98.299-.773.449-1.663.449-2.671s-.15-1.846-.449-2.513c-.3-.667-.694-1.19-1.182-1.568-.473-.38-1.009-.622-1.607-.724-.583-.122-1.158-.132-1.726-.032-.567.1-1.15.315-1.749.644-.583.311-1.118.742-1.607 1.292-.473.547-.859 1.207-1.158 1.98s-.449 1.663-.449 2.671.142 1.847.425 2.517c.3.667.686 1.191 1.158 1.572.473.381 1.001.631 1.584.753.599.102 1.198.1 1.796-.005zm10.815-15.539c0-.32.158-.508.473-.563l6.358-1.121c.93-.164 1.733-.17 2.411-.018.693.15 1.26.426 1.702.828.457.4.795.9 1.016 1.501.22.601.331 1.27.331 2.006 0 .704-.111 1.387-.331 2.05-.221.663-.552 1.265-.993 1.807-.425.539-.961 1.002-1.607 1.388-.646.385-1.402.655-2.269.808l-4.018.708v5.904c0 .32-.158.508-.473.564l-2.127.375c-.315.055-.473-.077-.473-.397zm6.5 5.862c1.812-.32 2.718-1.239 2.718-2.759s-.906-2.121-2.718-1.801l-3.427.604v4.56zm9.084 2.502c.11-.099.22-.159.331-.178.079-.014.142-.009.189.014.047.024.102.086.165.187.457.784.993 1.305 1.607 1.565.615.244 1.277.303 1.986.178.646-.114 1.182-.377 1.607-.788.441-.429.662-.948.662-1.556 0-.656-.276-1.144-.827-1.462-.536-.338-1.419-.582-2.648-.734-.551-.062-1.095-.183-1.63-.36-.536-.194-1.017-.453-1.442-.778-.41-.344-.741-.757-.993-1.241-.252-.499-.378-1.085-.378-1.757 0-.72.126-1.39.378-2.011.268-.623.638-1.176 1.111-1.66.473-.499 1.032-.91 1.678-1.232.662-.34 1.387-.58 2.175-.719.661-.117 1.26-.15 1.796-.101.551.047 1.04.153 1.465.318.426.165.804.378 1.135.64.331.261.622.546.874.854.095.111.142.207.142.287 0 .096-.063.211-.189.345l-1.654 1.684c-.127.118-.237.185-.331.202-.174.031-.308-.018-.402-.145-.347-.451-.741-.782-1.182-.992-.441-.226-1.016-.277-1.725-.151-.252.044-.505.12-.757.229-.252.108-.48.253-.685.433-.189.161-.347.357-.473.587-.11.212-.165.453-.165.725 0 .544.244.957.732 1.239.505.279 1.285.486 2.34.619.836.109 1.56.269 2.175.481.614.212 1.126.489 1.536.833s.709.779.898 1.306c.205.508.308 1.122.308 1.842 0 .704-.142 1.393-.426 2.067-.268.655-.654 1.251-1.158 1.788-.488.534-1.079.99-1.773 1.368-.677.376-1.426.636-2.245.78-.741.131-1.442.167-2.104.107-.646-.078-1.244-.22-1.796-.427-.536-.226-1.008-.518-1.418-.878s-.741-.773-.993-1.241c-.063-.117-.094-.215-.094-.295 0-.144.086-.28.26-.406z" fill="#fff"/></svg>