<svg fill="none" height="305" viewBox="0 0 257 305" width="257" xmlns="http://www.w3.org/2000/svg" xmlns:xlink="http://www.w3.org/1999/xlink"><clipPath id="a"><path d="m0 0h257v304.072h-257z"/></clipPath><g clip-path="url(#a)" stroke="#fff" stroke-linejoin="bevel" stroke-width="3"><path d="m0 48.0249 281-48.0249" stroke-opacity=".02"/><path d="m0 51.0249 281-48.0249" stroke-opacity=".15"/><path d="m0 54.0498 281-48.0249" stroke-opacity=".02"/><path d="m0 57.0498 281-48.0249" stroke-opacity=".15"/><path d="m0 60.0749 281-48.025" stroke-opacity=".02"/><path d="m0 63.0749 281-48.025" stroke-opacity=".15"/><path d="m0 66.0998 281-48.025" stroke-opacity=".02"/><path d="m0 69.0998 281-48.025" stroke-opacity=".15"/><path d="m0 72.1247 281-48.025" stroke-opacity=".02"/><path d="m0 75.1247 281-48.025" stroke-opacity=".15"/><path d="m0 78.1496 281-48.025" stroke-opacity=".02"/><path d="m0 81.1496 281-48.025" stroke-opacity=".15"/><path d="m0 84.1746 281-48.0249" stroke-opacity=".02"/><path d="m0 87.1746 281-48.0249" stroke-opacity=".15"/><path d="m0 90.1995 281-48.0249" stroke-opacity=".02"/><path d="m0 93.1995 281-48.0249" stroke-opacity=".15"/><path d="m0 96.2244 281-48.0249" stroke-opacity=".02"/><path d="m0 99.2244 281-48.0249" stroke-opacity=".15"/><path d="m0 102.249 281-48.0245" stroke-opacity=".02"/><path d="m0 105.25 281-48.0254" stroke-opacity=".15"/><path d="m0 108.274 281-48.0247" stroke-opacity=".02"/><path d="m0 111.274 281-48.0247" stroke-opacity=".15"/><path d="m0 114.299 281-48.0246" stroke-opacity=".02"/><path d="m0 117.299 281-48.0246" stroke-opacity=".15"/><path d="m0 120.324 281-48.0247" stroke-opacity=".02"/><path d="m0 123.324 281-48.0247" stroke-opacity=".15"/><path d="m0 126.349 281-48.0248" stroke-opacity=".02"/><path d="m0 129.349 281-48.0248" stroke-opacity=".15"/><path d="m0 132.374 281-48.0249" stroke-opacity=".02"/><path d="m0 135.374 281-48.0249" stroke-opacity=".15"/><path d="m0 138.399 281-48.025" stroke-opacity=".02"/><path d="m0 141.399 281-48.025" stroke-opacity=".15"/><path d="m0 144.424 281-48.0251" stroke-opacity=".02"/><path d="m0 147.424 281-48.0251" stroke-opacity=".15"/><path d="m0 150.449 281-48.025" stroke-opacity=".02"/><path d="m0 153.449 281-48.025" stroke-opacity=".15"/><path d="m0 156.474 281-48.025" stroke-opacity=".02"/><path d="m0 159.474 281-48.025" stroke-opacity=".15"/><path d="m0 162.499 281-48.025" stroke-opacity=".02"/><path d="m0 165.499 281-48.025" stroke-opacity=".15"/><path d="m0 168.524 281-48.025" stroke-opacity=".02"/><path d="m0 171.524 281-48.025" stroke-opacity=".15"/><path d="m0 174.549 281-48.025" stroke-opacity=".02"/><path d="m0 177.549 281-48.025" stroke-opacity=".15"/><path d="m0 180.574 281-48.025" stroke-opacity=".02"/><path d="m0 183.574 281-48.025" stroke-opacity=".15"/><path d="m0 186.598 281-48.025" stroke-opacity=".02"/><path d="m0 189.598 281-48.025" stroke-opacity=".15"/><path d="m0 192.623 281-48.025" stroke-opacity=".02"/><path d="m0 195.623 281-48.025" stroke-opacity=".15"/><path d="m0 198.648 281-48.025" stroke-opacity=".02"/><path d="m0 201.648 281-48.025" stroke-opacity=".15"/><path d="m0 204.673 281-48.025" stroke-opacity=".02"/><path d="m0 207.673 281-48.025" stroke-opacity=".15"/><path d="m0 210.698 281-48.025" stroke-opacity=".02"/><path d="m0 213.698 281-48.025" stroke-opacity=".15"/><path d="m0 216.723 281-48.025" stroke-opacity=".02"/><path d="m0 219.723 281-48.025" stroke-opacity=".15"/><path d="m0 222.748 281-48.025" stroke-opacity=".02"/><path d="m0 225.748 281-48.025" stroke-opacity=".15"/><path d="m0 228.773 281-48.025" stroke-opacity=".02"/><path d="m0 231.773 281-48.025" stroke-opacity=".15"/><path d="m0 234.798 281-48.025" stroke-opacity=".02"/><path d="m0 237.798 281-48.025" stroke-opacity=".15"/><path d="m0 240.823 281-48.025" stroke-opacity=".02"/><path d="m0 243.823 281-48.025" stroke-opacity=".15"/><path d="m0 246.848 281-48.025" stroke-opacity=".02"/><path d="m0 249.848 281-48.025" stroke-opacity=".15"/><path d="m0 252.873 281-48.025" stroke-opacity=".02"/><path d="m0 255.873 281-48.025" stroke-opacity=".15"/><path d="m0 258.898 281-48.025" stroke-opacity=".02"/><path d="m0 261.898 281-48.025" stroke-opacity=".15"/><path d="m0 264.923 281-48.025" stroke-opacity=".02"/><path d="m0 267.923 281-48.025" stroke-opacity=".15"/><path d="m0 270.948 281-48.025" stroke-opacity=".02"/><path d="m0 273.948 281-48.025" stroke-opacity=".15"/><path d="m0 276.972 281-48.024" stroke-opacity=".02"/><path d="m0 279.972 281-48.024" stroke-opacity=".15"/><path d="m0 282.997 281-48.025" stroke-opacity=".02"/><path d="m0 285.997 281-48.025" stroke-opacity=".15"/><path d="m0 289.022 281-48.025" stroke-opacity=".02"/><path d="m0 292.022 281-48.025" stroke-opacity=".15"/><path d="m0 295.047 281-48.025" stroke-opacity=".02"/><path d="m0 298.047 281-48.025" stroke-opacity=".15"/><path d="m0 301.072 281-48.025" stroke-opacity=".02"/><path d="m0 304.072 281-48.025" stroke-opacity=".15"/></g></svg>