<svg fill="none" height="60" viewBox="0 0 60 60" width="60" xmlns="http://www.w3.org/2000/svg"><g fill="#ff2cfb"><path d="m59.1489 0h-8.0014v8.64h8.0014z"/><path d="m42.2046 0h-8.0015v8.64h8.0015z"/><path d="m25.7314 0h-8.4721v8.64h8.4721z"/><path d="m17.2592 8.63965h-8.47209v8.64005h8.47209z"/><path d="m59.1489 17.2803h-8.0014v8.64h8.0014z"/><path d="m42.2046 17.2803h-8.0015v8.64h8.0015z"/><path d="m25.7314 17.2803h-8.4721v8.64h8.4721z"/><path d="m50.6767 25.9199h-8.4721v8.64h8.4721z"/><path d="m34.2035 25.9199h-8.4721v8.64h8.4721z"/><path d="m17.2592 25.9199h-8.47209v8.64h8.47209z"/><path d="m59.1489 34.5601h-8.0014v8.16h8.0014z"/><path d="m50.6767 42.7197h-8.4721v8.64h8.4721z"/><path d="m34.2035 42.7197h-8.4721v8.64h8.4721z"/><path d="m17.2592 42.7197h-8.47209v8.64h8.47209z"/><path d="m59.1489 51.3604h-8.0014v8.64h8.0014z"/><path d="m42.2046 51.3604h-8.0015v8.64h8.0015z"/><path d="m25.7314 51.3604h-8.4721v8.64h8.4721z"/><path d="m50.6767 8.63965h-8.4721v8.64005h8.4721z"/><path d="m34.2035 8.63965h-8.4721v8.64005h8.4721z"/><path d="m42.2046 34.5601h-8.0015v8.16h8.0015z"/><path d="m25.7314 34.5601h-8.4721v8.16h8.4721z"/><path d="m8.78704 0h-8.472099v8.64h8.472099z"/><path d="m8.78704 34.5601h-8.472099v8.16h8.472099z"/><path d="m8.78704 51.3604h-8.472099v8.64h8.472099z"/><path d="m8.78704 17.2803h-8.472099v8.64h8.472099z"/></g></svg>