<svg fill="none" height="52" viewBox="0 0 53 52" width="53" xmlns="http://www.w3.org/2000/svg"><g fill="#f7ce58"><path d="m.00009108 0h4.06924892v3.69734h-4.06924892z"/><path d="m4.06894 3.69727h4.06924v4.00544h-4.06924z"/><path d="m8.13827 0h4.06923v3.69734h-4.06923z"/><path d="m15.9635 0h4.0692v3.69734h-4.0692z"/><path d="m24.1021 0h4.0693v3.69734h-4.0693z"/><path d="m32.2408 0h4.0693v3.69734h-4.0693z"/><path d="m40.3795 0h3.7562v3.69734h-3.7562z"/><path d="m44.1353 3.69727h4.0693v4.00544h-4.0693z"/><path d="m8.13827 7.70264h4.06923v4.00546h-4.06923z"/><path d="m12.2076 11.708h3.7563v4.0055h-3.7563z"/><path d="m15.9635 7.70264h4.0692v4.00546h-4.0692z"/><path d="m12.2076 3.69727h3.7563v4.00544h-3.7563z"/><path d="m20.0333 3.69727h4.0692v4.00544h-4.0692z"/><path d="m4.06894 11.708h4.06924v4.0055h-4.06924z"/><path d="m12.2076 11.708h3.7563v4.0055h-3.7563z"/><path d="m20.0333 11.708h4.0692v4.0055h-4.0692z"/><path d="m24.1021 7.70264h4.0693v4.00546h-4.0693z"/><path d="m32.2408 7.70264h4.0693v4.00546h-4.0693z"/><path d="m40.3795 7.70264h3.7562v4.00546h-3.7562z"/><path d="m28.1715 11.708h4.0692v4.0055h-4.0692z"/><path d="m36.3097 11.708h4.0692v4.0055h-4.0692z"/><path d="m44.1353 11.708h4.0693v4.0055h-4.0693z"/><path d="m.00009108 15.7139h4.06924892v4.0054h-4.06924892z"/><path d="m8.13827 15.7139h4.06923v4.0054h-4.06923z"/><path d="m15.9635 15.7139h4.0692v4.0054h-4.0692z"/><path d="m24.1021 15.7139h4.0693v4.0054h-4.0693z"/><path d="m4.06894 19.7192h4.06924v4.0055h-4.06924z"/><path d="m12.2076 19.7192h3.7563v4.0055h-3.7563z"/><path d="m20.0333 19.7192h4.0692v4.0055h-4.0692z"/><path d="m28.1715 19.7192h4.0692v4.0055h-4.0692z"/><path d="m36.3097 19.7192h4.0692v4.0055h-4.0692z"/><path d="m44.1353 19.7192h4.0693v4.0055h-4.0693z"/><path d="m.00009108 23.7246h4.06924892v4.0055h-4.06924892z"/><path d="m15.9635 23.7246h4.0692v4.0055h-4.0692z"/><path d="m8.13827 23.7246h4.06923v4.0055h-4.06923z"/><path d="m24.1021 23.7246h4.0693v4.0055h-4.0693z"/><path d="m32.2408 23.7246h4.0693v4.0055h-4.0693z"/><path d="m40.3795 23.7246h3.7562v4.0055h-3.7562z"/><path d="m4.06894 27.73h4.06924v3.6973h-4.06924z"/><path d="m12.2076 27.73h3.7563v3.6973h-3.7563z"/><path d="m20.0333 27.73h4.0692v3.6973h-4.0692z"/><path d="m28.1715 27.73h4.0692v3.6973h-4.0692z"/><path d="m36.3097 27.73h4.0692v3.6973h-4.0692z"/><path d="m44.1353 27.73h4.0693v3.6973h-4.0693z"/><path d="m.00009108 31.4272h4.06924892v4.0055h-4.06924892z"/><path d="m8.13827 31.4272h4.06923v4.0055h-4.06923z"/><path d="m15.9635 31.4272h4.0692v4.0055h-4.0692z"/><path d="m24.1021 31.4272h4.0693v4.0055h-4.0693z"/><path d="m32.2408 31.4272h4.0693v4.0055h-4.0693z"/><path d="m40.3795 31.4272h3.7562v4.0055h-3.7562z"/><path d="m4.06894 35.4326h4.06924v4.0055h-4.06924z"/><path d="m12.2076 35.4326h3.7563v4.0055h-3.7563z"/><path d="m20.0333 35.4326h4.0692v4.0055h-4.0692z"/><path d="m28.1715 35.4326h4.0692v4.0055h-4.0692z"/><path d="m36.3097 35.4326h4.0692v4.0055h-4.0692z"/><path d="m44.1353 35.4326h4.0693v4.0055h-4.0693z"/><path d="m.00009108 39.4385h4.06924892v4.0054h-4.06924892z"/><path d="m.00009108 47.4492h4.06924892v4.0055h-4.06924892z"/><path d="m8.13827 39.4385h4.06923v4.0054h-4.06923z"/><path d="m15.9635 39.4385h4.0692v4.0054h-4.0692z"/><path d="m24.1021 39.4385h4.0693v4.0054h-4.0693z"/><path d="m32.2408 39.4385h4.0693v4.0054h-4.0693z"/><path d="m40.3795 39.4385h3.7562v4.0054h-3.7562z"/><path d="m4.06894 43.4438h4.06924v4.0055h-4.06924z"/><path d="m12.2076 43.4438h3.7563v4.0055h-3.7563z"/><path d="m20.0333 43.4438h4.0692v4.0055h-4.0692z"/><path d="m28.1715 43.4438h4.0692v4.0055h-4.0692z"/><path d="m36.3097 43.4438h4.0692v4.0055h-4.0692z"/><path d="m44.1353 43.4438h4.0693v4.0055h-4.0693z"/><path d="m8.13827 47.4492h4.06923v4.0055h-4.06923z"/><path d="m15.9635 47.4492h4.0692v4.0055h-4.0692z"/><path d="m24.1021 47.4492h4.0693v4.0055h-4.0693z"/><path d="m32.2408 47.4492h4.0693v4.0055h-4.0693z"/><path d="m40.3795 47.4492h3.7562v4.0055h-3.7562z"/><path d="m28.1715 3.69727h4.0692v4.00544h-4.0692z"/><path d="m36.3097 3.69727h4.0692v4.00544h-4.0692z"/><path d="m32.2408 15.7139h4.0693v4.0054h-4.0693z"/><path d="m40.3795 15.7139h3.7562v4.0054h-3.7562z"/><path d="m.00009108 7.70264h4.06924892v4.00546h-4.06924892z"/><path d="m48.2047 0h4.0692v3.69734h-4.0692z"/><path d="m48.2047 15.7139h4.0692v4.0054h-4.0692z"/><path d="m48.2047 23.7246h4.0692v4.0055h-4.0692z"/><path d="m48.2047 31.4272h4.0692v4.0055h-4.0692z"/><path d="m48.2047 39.4385h4.0692v4.0054h-4.0692z"/><path d="m48.2047 47.4492h4.0692v4.0055h-4.0692z"/><path d="m48.2047 7.70264h4.0692v4.00546h-4.0692z"/></g></svg>