<svg fill="none" height="130" viewBox="0 0 141 130" width="141" xmlns="http://www.w3.org/2000/svg"><g fill="#ff2cfb"><path d="m.066406.062012h19.9458v18.4952h-19.9458z"/><path d="m120.066 0h19.9458v18.4952h-19.9458z"/><path d="m.066406 37.0527h19.9458v18.4952h-19.9458z"/><path d="m120.066 36.9907h19.9458v18.4952h-19.9458z"/><path d="m.066406 74.043h19.9458v18.4952h-19.9458z"/><path d="m120.066 73.981h19.9458v18.4952h-19.9458z"/><path d="m20.0125 18.5579h19.9458v18.4952h-19.9458z"/><path d="m20.0125 55.5483h19.9458v18.4952h-19.9458z"/><path d="m20.0125 92.5374h19.9458v18.4952h-19.9458z"/><path d="m0 111h19.9458v18.4952h-19.9458z"/><path d="m120 110.938h19.9458v18.4952h-19.9458z"/><path d="m39.9585.062012h19.9458v18.4952h-19.9458z"/><path d="m39.9585 37.0527h19.9458v18.4952h-19.9458z"/><path d="m39.9585 74.043h19.9458v18.4952h-19.9458z"/><path d="m40 111h19.9458v18.4952h-19.9458z"/><path d="m59.9033 18.5579h20.4573v18.4952h-20.4573z"/><path d="m59.9033 55.5483h20.4573v18.4952h-20.4573z"/><path d="m59.9033 92.5374h20.4573v18.4952h-20.4573z"/><path d="m80.3594.062012h19.9458v18.4952h-19.9458z"/><path d="m80.3594 37.0527h19.9458v18.4952h-19.9458z"/><path d="m80.3594 74.043h19.9458v18.4952h-19.9458z"/><path d="m80.4009 111h19.9458v18.4952h-19.9458z"/><path d="m100.307 18.5579h19.9458v18.4952h-19.9458z"/><path d="m100.307 55.5483h19.9458v18.4952h-19.9458z"/><path d="m100.307 92.5374h19.9458v18.4952h-19.9458z"/></g></svg>