<svg fill="none" height="178" viewBox="0 0 190 178" width="190" xmlns="http://www.w3.org/2000/svg" xmlns:xlink="http://www.w3.org/1999/xlink"><filter id="a" color-interpolation-filters="sRGB" filterUnits="userSpaceOnUse" height="182.785" width="188.438" x=".756104" y="-5.28986"><feFlood flood-opacity="0" result="BackgroundImageFix"/><feBlend in="SourceGraphic" in2="BackgroundImageFix" mode="normal" result="shape"/><feGaussianBlur result="effect1_foregroundBlur_167_28" stdDeviation="25"/></filter><filter id="b" color-interpolation-filters="sRGB" filterUnits="userSpaceOnUse" height="142.785" width="148.438" x="20.7561" y="14.7101"><feFlood flood-opacity="0" result="BackgroundImageFix"/><feBlend in="SourceGraphic" in2="BackgroundImageFix" mode="normal" result="shape"/><feGaussianBlur result="effect1_foregroundBlur_167_28" stdDeviation="15"/></filter><g filter="url(#a)"><path d="m94.4946 44.7102 14.0784 26.905 30.621 3.8812-21.787 21.4428 5.674 29.7208-27.5432-13.652-27.114 14.487 4.7642-29.8804-22.4318-20.7674 30.4881-4.8146z" fill="#1fa6ff"/></g><g filter="url(#b)"><path d="m94.4946 44.7102 14.0784 26.905 30.621 3.8812-21.787 21.4428 5.674 29.7208-27.5432-13.652-27.114 14.487 4.7642-29.8804-22.4318-20.7674 30.4881-4.8146z" fill="#1fa6ff"/></g><path d="m96.4946 46.7102 14.0784 26.905 30.621 3.8812-21.787 21.4428 5.674 29.7208-27.5432-13.652-27.114 14.487 4.7642-29.8804-22.4318-20.7674 30.4881-4.8146z" fill="#fff"/></svg>