<svg width="24" height="24" viewBox="0 0 24 24" fill="none" xmlns="http://www.w3.org/2000/svg">
    <path fill-rule="evenodd" clip-rule="evenodd" d="M13.2942 3.34589C11.2236 3.49041 9.86423 4.61186 9.55615 6.4298C9.51103 6.69604 9.50708 6.83956 9.50708 8.21456V9.59637H8.42017H7.33325V11.0813V12.5661L8.41675 12.5696L9.50024 12.5731L9.50359 16.6347L9.50694 20.6963H11.0827H12.6584L12.6619 16.6313L12.6653 12.5663H14.1955H15.7256L15.7334 12.4815C15.7436 12.3709 15.8649 9.77607 15.8647 9.67435L15.8645 9.59637H14.2639H12.6634L12.6694 8.37246C12.6745 7.33476 12.6787 7.12999 12.6971 7.0265C12.7728 6.60025 12.9496 6.38986 13.322 6.28284C13.5268 6.22401 13.6234 6.21968 14.7317 6.21964L15.7795 6.2196L15.7877 6.08738C15.7996 5.89436 15.8572 3.45491 15.8501 3.44784C15.8429 3.4408 15.3019 3.39151 15.0168 3.37191C14.4686 3.33422 13.6405 3.32172 13.2942 3.34589Z" fill="white" fill-opacity="0.87" />
    <path fill-rule="evenodd" clip-rule="evenodd" d="M13.2942 3.34589C11.2236 3.49041 9.86423 4.61186 9.55615 6.4298C9.51103 6.69604 9.50708 6.83956 9.50708 8.21456V9.59637H8.42017H7.33325V11.0813V12.5661L8.41675 12.5696L9.50024 12.5731L9.50359 16.6347L9.50694 20.6963H11.0827H12.6584L12.6619 16.6313L12.6653 12.5663H14.1955H15.7256L15.7334 12.4815C15.7436 12.3709 15.8649 9.77607 15.8647 9.67435L15.8645 9.59637H14.2639H12.6634L12.6694 8.37246C12.6745 7.33476 12.6787 7.12999 12.6971 7.0265C12.7728 6.60025 12.9496 6.38986 13.322 6.28284C13.5268 6.22401 13.6234 6.21968 14.7317 6.21964L15.7795 6.2196L15.7877 6.08738C15.7996 5.89436 15.8572 3.45491 15.8501 3.44784C15.8429 3.4408 15.3019 3.39151 15.0168 3.37191C14.4686 3.33422 13.6405 3.32172 13.2942 3.34589Z" fill="url(#paint0_linear_2614_738)" />
    <defs>
        <linearGradient id="paint0_linear_2614_738" x1="-74.5" y1="12.0006" x2="141.574" y2="2.41172" gradientUnits="userSpaceOnUse">
            <stop offset="0.0888849" stop-color="#FD73C5" />
            <stop offset="0.287162" stop-color="#FFE04A" />
            <stop offset="0.546875" stop-color="#16E912" />
            <stop offset="0.734375" stop-color="#43AFDE" />
            <stop offset="1" stop-color="#037FF3" />
        </linearGradient>
    </defs>
</svg>
    