<svg width="24" height="24" viewBox="0 0 24 24" fill="none" xmlns="http://www.w3.org/2000/svg">
    <path fill-rule="evenodd" clip-rule="evenodd" d="M8.22862 4.01835C7.31477 4.10934 6.47562 4.44806 5.76185 5.01405C5.57913 5.15894 5.29366 5.43146 5.14258 5.60524C4.49882 6.34572 4.11454 7.23427 4.02001 8.20089C3.99333 8.47367 3.99333 15.5107 4.02001 15.7835C4.16122 17.2275 4.96175 18.5057 6.2143 19.2872C6.7565 19.6254 7.41482 19.8594 8.07987 19.9503L8.2844 19.9782H12.0527C15.6105 19.9782 15.8307 19.977 15.9946 19.956C17.0318 19.8236 17.9521 19.386 18.689 18.6749C19.4893 17.9026 19.9529 16.9672 20.0938 15.8407C20.1068 15.7372 20.11 14.9727 20.11 11.986C20.11 8.45202 20.1088 8.25161 20.0874 8.08833C19.9512 7.05083 19.5146 6.14695 18.7963 5.41532C18.7007 5.31796 18.5664 5.19036 18.4979 5.13175C17.7502 4.49214 16.8568 4.11247 15.8768 4.01788C15.6268 3.99375 8.47133 3.99418 8.22862 4.01835ZM15.6723 5.24215C16.9061 5.32983 17.9741 6.03514 18.511 7.11697C18.568 7.23194 18.6349 7.38055 18.6596 7.44723C18.7669 7.73695 18.8403 8.08068 18.8635 8.40269C18.8809 8.64222 18.8812 15.3371 18.864 15.5764C18.8303 16.0418 18.7218 16.4421 18.5171 16.8551C18.2501 17.3939 17.8615 17.8349 17.3581 18.1705C16.9129 18.4673 16.4376 18.6462 15.8823 18.726C15.7453 18.7457 15.4704 18.7476 12.2015 18.7517C8.54445 18.7563 8.42495 18.755 8.12177 18.7059C7.13961 18.5469 6.27822 17.977 5.75786 17.1419C5.50449 16.7353 5.34618 16.2947 5.27047 15.7854C5.24997 15.6475 5.24826 15.4085 5.2442 12.1336C5.24122 9.72918 5.24403 8.56657 5.25314 8.42932C5.27571 8.08942 5.34724 7.74696 5.45824 7.44723C5.5269 7.26186 5.69954 6.92436 5.80751 6.76442C5.95983 6.53881 6.0503 6.43027 6.25719 6.22495C6.54889 5.93546 6.79327 5.7624 7.16878 5.57942C7.57376 5.38207 8.0389 5.26125 8.48273 5.23811C8.69107 5.22726 15.5166 5.23108 15.6723 5.24215ZM16.8313 6.48714C16.7228 6.52398 16.6514 6.56732 16.5757 6.64245C16.3371 6.87914 16.3382 7.27073 16.5782 7.50635C16.8262 7.74988 17.2103 7.75062 17.4549 7.50802C17.698 7.26682 17.6979 6.87793 17.4545 6.63845C17.2915 6.47801 17.0389 6.41667 16.8313 6.48714ZM11.7304 7.69637C11.3955 7.73 11.1658 7.77036 10.9033 7.84174C10.3555 7.99065 9.81209 8.26677 9.35044 8.6308C9.17543 8.76879 8.80979 9.13139 8.66998 9.30559C8.23564 9.8468 7.93831 10.478 7.80241 11.1472C7.74036 11.4528 7.7267 11.604 7.72664 11.986C7.72659 12.3472 7.73528 12.4626 7.78312 12.7361C7.99672 13.957 8.76102 15.0519 9.84797 15.6939C10.3584 15.9953 10.9138 16.1851 11.5259 16.2671C11.6561 16.2845 11.7745 16.2895 12.0589 16.2895C12.3434 16.2895 12.4618 16.2845 12.5919 16.2671C13.4165 16.1566 14.1424 15.8491 14.7857 15.3377C14.9341 15.2197 15.2021 14.9624 15.3363 14.809C15.9426 14.1157 16.308 13.2558 16.3859 12.3384C16.4044 12.1209 16.3943 11.6502 16.3669 11.4512C16.2565 10.6498 15.946 9.92523 15.4476 9.30559C15.3065 9.1302 14.9412 8.76767 14.7674 8.63054C14.1393 8.13503 13.398 7.82285 12.6011 7.71828C12.4567 7.69933 11.8524 7.68411 11.7304 7.69637ZM12.2895 8.93084C13.0672 8.99191 13.7705 9.32083 14.3003 9.87125C15.0385 10.6382 15.3222 11.7311 15.0531 12.7712C14.9501 13.1696 14.7572 13.5559 14.4913 13.8966C14.3855 14.0322 14.1162 14.2995 13.9803 14.4038C13.4076 14.8433 12.7724 15.0589 12.0527 15.0578C11.5499 15.0571 11.1346 14.9621 10.6892 14.746C10.376 14.5941 10.1275 14.417 9.87039 14.1626C9.49543 13.7916 9.23287 13.3541 9.08884 12.86C8.77963 11.7995 9.05716 10.6612 9.81754 9.87125C10.2048 9.4689 10.7228 9.16328 11.2463 9.02829C11.608 8.93502 11.9436 8.90366 12.2895 8.93084Z" fill="white" fill-opacity="0.87" />
    <path fill-rule="evenodd" clip-rule="evenodd" d="M8.22862 4.01835C7.31477 4.10934 6.47562 4.44806 5.76185 5.01405C5.57913 5.15894 5.29366 5.43146 5.14258 5.60524C4.49882 6.34572 4.11454 7.23427 4.02001 8.20089C3.99333 8.47367 3.99333 15.5107 4.02001 15.7835C4.16122 17.2275 4.96175 18.5057 6.2143 19.2872C6.7565 19.6254 7.41482 19.8594 8.07987 19.9503L8.2844 19.9782H12.0527C15.6105 19.9782 15.8307 19.977 15.9946 19.956C17.0318 19.8236 17.9521 19.386 18.689 18.6749C19.4893 17.9026 19.9529 16.9672 20.0938 15.8407C20.1068 15.7372 20.11 14.9727 20.11 11.986C20.11 8.45202 20.1088 8.25161 20.0874 8.08833C19.9512 7.05083 19.5146 6.14695 18.7963 5.41532C18.7007 5.31796 18.5664 5.19036 18.4979 5.13175C17.7502 4.49214 16.8568 4.11247 15.8768 4.01788C15.6268 3.99375 8.47133 3.99418 8.22862 4.01835ZM15.6723 5.24215C16.9061 5.32983 17.9741 6.03514 18.511 7.11697C18.568 7.23194 18.6349 7.38055 18.6596 7.44723C18.7669 7.73695 18.8403 8.08068 18.8635 8.40269C18.8809 8.64222 18.8812 15.3371 18.864 15.5764C18.8303 16.0418 18.7218 16.4421 18.5171 16.8551C18.2501 17.3939 17.8615 17.8349 17.3581 18.1705C16.9129 18.4673 16.4376 18.6462 15.8823 18.726C15.7453 18.7457 15.4704 18.7476 12.2015 18.7517C8.54445 18.7563 8.42495 18.755 8.12177 18.7059C7.13961 18.5469 6.27822 17.977 5.75786 17.1419C5.50449 16.7353 5.34618 16.2947 5.27047 15.7854C5.24997 15.6475 5.24826 15.4085 5.2442 12.1336C5.24122 9.72918 5.24403 8.56657 5.25314 8.42932C5.27571 8.08942 5.34724 7.74696 5.45824 7.44723C5.5269 7.26186 5.69954 6.92436 5.80751 6.76442C5.95983 6.53881 6.0503 6.43027 6.25719 6.22495C6.54889 5.93546 6.79327 5.7624 7.16878 5.57942C7.57376 5.38207 8.0389 5.26125 8.48273 5.23811C8.69107 5.22726 15.5166 5.23108 15.6723 5.24215ZM16.8313 6.48714C16.7228 6.52398 16.6514 6.56732 16.5757 6.64245C16.3371 6.87914 16.3382 7.27073 16.5782 7.50635C16.8262 7.74988 17.2103 7.75062 17.4549 7.50802C17.698 7.26682 17.6979 6.87793 17.4545 6.63845C17.2915 6.47801 17.0389 6.41667 16.8313 6.48714ZM11.7304 7.69637C11.3955 7.73 11.1658 7.77036 10.9033 7.84174C10.3555 7.99065 9.81209 8.26677 9.35044 8.6308C9.17543 8.76879 8.80979 9.13139 8.66998 9.30559C8.23564 9.8468 7.93831 10.478 7.80241 11.1472C7.74036 11.4528 7.7267 11.604 7.72664 11.986C7.72659 12.3472 7.73528 12.4626 7.78312 12.7361C7.99672 13.957 8.76102 15.0519 9.84797 15.6939C10.3584 15.9953 10.9138 16.1851 11.5259 16.2671C11.6561 16.2845 11.7745 16.2895 12.0589 16.2895C12.3434 16.2895 12.4618 16.2845 12.5919 16.2671C13.4165 16.1566 14.1424 15.8491 14.7857 15.3377C14.9341 15.2197 15.2021 14.9624 15.3363 14.809C15.9426 14.1157 16.308 13.2558 16.3859 12.3384C16.4044 12.1209 16.3943 11.6502 16.3669 11.4512C16.2565 10.6498 15.946 9.92523 15.4476 9.30559C15.3065 9.1302 14.9412 8.76767 14.7674 8.63054C14.1393 8.13503 13.398 7.82285 12.6011 7.71828C12.4567 7.69933 11.8524 7.68411 11.7304 7.69637ZM12.2895 8.93084C13.0672 8.99191 13.7705 9.32083 14.3003 9.87125C15.0385 10.6382 15.3222 11.7311 15.0531 12.7712C14.9501 13.1696 14.7572 13.5559 14.4913 13.8966C14.3855 14.0322 14.1162 14.2995 13.9803 14.4038C13.4076 14.8433 12.7724 15.0589 12.0527 15.0578C11.5499 15.0571 11.1346 14.9621 10.6892 14.746C10.376 14.5941 10.1275 14.417 9.87039 14.1626C9.49543 13.7916 9.23287 13.3541 9.08884 12.86C8.77963 11.7995 9.05716 10.6612 9.81754 9.87125C10.2048 9.4689 10.7228 9.16328 11.2463 9.02829C11.608 8.93502 11.9436 8.90366 12.2895 8.93084Z" fill="url(#paint0_linear_2614_719)" />
    <defs>
        <linearGradient id="paint0_linear_2614_719" x1="4.05519" y1="14.4683" x2="219.237" y2="-4.99495" gradientUnits="userSpaceOnUse">
            <stop offset="0.0888849" stop-color="#FD73C5" />
            <stop offset="0.287162" stop-color="#FFE04A" />
            <stop offset="0.546875" stop-color="#16E912" />
            <stop offset="0.734375" stop-color="#43AFDE" />
            <stop offset="1" stop-color="#037FF3" />
        </linearGradient>
    </defs>
</svg>
    