<svg width="24" height="24" viewBox="0 0 24 24" fill="none" xmlns="http://www.w3.org/2000/svg">
    <path fill-rule="evenodd" clip-rule="evenodd" d="M4.16369 2.66455C3.33587 2.66455 2.66479 3.33563 2.66479 4.16345V19.1524C2.66479 19.9802 3.33588 20.6513 4.16369 20.6513H19.1527C19.9805 20.6513 20.6516 19.9802 20.6516 19.1524V4.16345C20.6516 3.33563 19.9805 2.66455 19.1527 2.66455H4.16369ZM7.11742 8.57201C7.92089 8.57201 8.57224 7.92067 8.57224 7.11719C8.57224 6.31371 7.92089 5.66237 7.11742 5.66237C6.31394 5.66237 5.6626 6.31371 5.6626 7.11719C5.6626 7.92067 6.31394 8.57201 7.11742 8.57201ZM9.90461 9.64717H12.3157V10.7517C12.3157 10.7517 12.97 9.44313 14.7502 9.44313C16.3383 9.44313 17.6538 10.2254 17.6538 12.61V17.6382H15.1552V13.2193C15.1552 11.8126 14.4042 11.6579 13.832 11.6579C12.6443 11.6579 12.441 12.6823 12.441 13.4027V17.6382H9.90461V9.64717ZM8.38563 9.64717H5.84922V17.6382H8.38563V9.64717Z" fill="white" fill-opacity="0.87" />
    <path fill-rule="evenodd" clip-rule="evenodd" d="M4.16369 2.66455C3.33587 2.66455 2.66479 3.33563 2.66479 4.16345V19.1524C2.66479 19.9802 3.33588 20.6513 4.16369 20.6513H19.1527C19.9805 20.6513 20.6516 19.9802 20.6516 19.1524V4.16345C20.6516 3.33563 19.9805 2.66455 19.1527 2.66455H4.16369ZM7.11742 8.57201C7.92089 8.57201 8.57224 7.92067 8.57224 7.11719C8.57224 6.31371 7.92089 5.66237 7.11742 5.66237C6.31394 5.66237 5.6626 6.31371 5.6626 7.11719C5.6626 7.92067 6.31394 8.57201 7.11742 8.57201ZM9.90461 9.64717H12.3157V10.7517C12.3157 10.7517 12.97 9.44313 14.7502 9.44313C16.3383 9.44313 17.6538 10.2254 17.6538 12.61V17.6382H15.1552V13.2193C15.1552 11.8126 14.4042 11.6579 13.832 11.6579C12.6443 11.6579 12.441 12.6823 12.441 13.4027V17.6382H9.90461V9.64717ZM8.38563 9.64717H5.84922V17.6382H8.38563V9.64717Z" fill="url(#paint0_linear_2614_550)" />
    <defs>
        <linearGradient id="paint0_linear_2614_550" x1="-116" y1="11.9999" x2="99.7578" y2="-7.38778" gradientUnits="userSpaceOnUse">
            <stop offset="0.0888849" stop-color="#FD73C5" />
            <stop offset="0.287162" stop-color="#FFE04A" />
            <stop offset="0.546875" stop-color="#16E912" />
            <stop offset="0.734375" stop-color="#43AFDE" />
            <stop offset="1" stop-color="#037FF3" />
        </linearGradient>
    </defs>
</svg>
    