<svg width="24" height="24" viewBox="0 0 24 24" fill="none" xmlns="http://www.w3.org/2000/svg">
    <path d="M19.9926 7.27406C19.0176 7.27406 18.1161 6.95016 17.3948 6.40589C16.5667 5.78148 15.969 4.86322 15.7587 3.80806C15.7052 3.54761 15.6785 3.27715 15.6752 3H12.887V10.6165L12.8837 14.7871C12.8837 15.9023 12.1558 16.8473 11.1507 17.1812C10.8568 17.278 10.543 17.3248 10.2157 17.3047C9.79501 17.2814 9.40433 17.1545 9.0604 16.9508C8.33248 16.5167 7.84163 15.7287 7.82827 14.8238C7.80824 13.4147 8.94687 12.2627 10.356 12.2627C10.6331 12.2627 10.9002 12.3094 11.1507 12.3896V10.3093V9.56469C10.8869 9.52462 10.6198 9.50458 10.346 9.50458C8.80329 9.50458 7.3608 10.1457 6.32901 11.301C5.551 12.1725 5.08352 13.2878 5.01006 14.4565C4.91657 15.9891 5.47754 17.4483 6.56609 18.5235C6.72637 18.6804 6.89332 18.8274 7.07029 18.9643C8.0019 19.6822 9.14388 20.0729 10.346 20.0729C10.6164 20.0729 10.8869 20.0528 11.1507 20.0128C12.2726 19.8458 13.3077 19.3316 14.1258 18.5235C15.1309 17.5318 15.6852 16.2128 15.6919 14.8104L15.6785 8.57965C16.156 8.95029 16.6802 9.25415 17.2446 9.49123C18.1194 9.86187 19.0477 10.0455 19.9993 10.0455V8.02202V7.27072C20.0027 7.27406 19.9926 7.27406 19.9926 7.27406Z" fill="white" fill-opacity="0.87" />
    <path d="M19.9926 7.27406C19.0176 7.27406 18.1161 6.95016 17.3948 6.40589C16.5667 5.78148 15.969 4.86322 15.7587 3.80806C15.7052 3.54761 15.6785 3.27715 15.6752 3H12.887V10.6165L12.8837 14.7871C12.8837 15.9023 12.1558 16.8473 11.1507 17.1812C10.8568 17.278 10.543 17.3248 10.2157 17.3047C9.79501 17.2814 9.40433 17.1545 9.0604 16.9508C8.33248 16.5167 7.84163 15.7287 7.82827 14.8238C7.80824 13.4147 8.94687 12.2627 10.356 12.2627C10.6331 12.2627 10.9002 12.3094 11.1507 12.3896V10.3093V9.56469C10.8869 9.52462 10.6198 9.50458 10.346 9.50458C8.80329 9.50458 7.3608 10.1457 6.32901 11.301C5.551 12.1725 5.08352 13.2878 5.01006 14.4565C4.91657 15.9891 5.47754 17.4483 6.56609 18.5235C6.72637 18.6804 6.89332 18.8274 7.07029 18.9643C8.0019 19.6822 9.14388 20.0729 10.346 20.0729C10.6164 20.0729 10.8869 20.0528 11.1507 20.0128C12.2726 19.8458 13.3077 19.3316 14.1258 18.5235C15.1309 17.5318 15.6852 16.2128 15.6919 14.8104L15.6785 8.57965C16.156 8.95029 16.6802 9.25415 17.2446 9.49123C18.1194 9.86187 19.0477 10.0455 19.9993 10.0455V8.02202V7.27072C20.0027 7.27406 19.9926 7.27406 19.9926 7.27406Z" fill="url(#paint0_linear_2614_757)" />
    <defs>
        <linearGradient id="paint0_linear_2614_757" x1="-155.5" y1="11.9999" x2="59.1608" y2="-4.95511" gradientUnits="userSpaceOnUse">
            <stop offset="0.0888849" stop-color="#FD73C5" />
            <stop offset="0.287162" stop-color="#FFE04A" />
            <stop offset="0.546875" stop-color="#16E912" />
            <stop offset="0.734375" stop-color="#43AFDE" />
            <stop offset="1" stop-color="#037FF3" />
        </linearGradient>
    </defs>
</svg>
    