<svg width="24" height="24" viewBox="0 0 24 24" fill="none" xmlns="http://www.w3.org/2000/svg">
    <path d="M19.2891 8.48526C19.3001 8.63715 19.3001 8.78904 19.3001 8.94234C19.3001 13.6131 15.555 19 8.70689 19V18.9972C6.68394 19 4.703 18.4498 3 17.4125C3.29415 17.4461 3.58978 17.4629 3.88615 17.4636C5.56261 17.465 7.19115 16.9309 8.51005 15.9475C6.9169 15.9188 5.51985 14.9326 5.0318 13.4927C5.58989 13.5949 6.16493 13.5739 6.71269 13.4319C4.97578 13.0987 3.72617 11.6498 3.72617 9.96707C3.72617 9.95167 3.72617 9.93697 3.72617 9.92227C4.24371 10.196 4.82317 10.3478 5.4159 10.3646C3.77999 9.32661 3.27572 7.26034 4.26361 5.64484C6.15387 7.8532 8.94281 9.19572 11.9367 9.33781C11.6366 8.11009 12.0465 6.82357 13.0138 5.96052C14.5133 4.62221 16.8717 4.6908 18.2813 6.11381C19.1151 5.95772 19.9143 5.66724 20.6456 5.25567C20.3677 6.07392 19.786 6.76897 19.0089 7.21064C19.7469 7.12805 20.4679 6.94046 21.1469 6.65418C20.6471 7.36533 20.0175 7.9848 19.2891 8.48526Z" fill="white" fill-opacity="0.87" />
    <path d="M19.2891 8.48526C19.3001 8.63715 19.3001 8.78904 19.3001 8.94234C19.3001 13.6131 15.555 19 8.70689 19V18.9972C6.68394 19 4.703 18.4498 3 17.4125C3.29415 17.4461 3.58978 17.4629 3.88615 17.4636C5.56261 17.465 7.19115 16.9309 8.51005 15.9475C6.9169 15.9188 5.51985 14.9326 5.0318 13.4927C5.58989 13.5949 6.16493 13.5739 6.71269 13.4319C4.97578 13.0987 3.72617 11.6498 3.72617 9.96707C3.72617 9.95167 3.72617 9.93697 3.72617 9.92227C4.24371 10.196 4.82317 10.3478 5.4159 10.3646C3.77999 9.32661 3.27572 7.26034 4.26361 5.64484C6.15387 7.8532 8.94281 9.19572 11.9367 9.33781C11.6366 8.11009 12.0465 6.82357 13.0138 5.96052C14.5133 4.62221 16.8717 4.6908 18.2813 6.11381C19.1151 5.95772 19.9143 5.66724 20.6456 5.25567C20.3677 6.07392 19.786 6.76897 19.0089 7.21064C19.7469 7.12805 20.4679 6.94046 21.1469 6.65418C20.6471 7.36533 20.0175 7.9848 19.2891 8.48526Z" fill="url(#paint0_linear_2614_862)" />
    <defs>
        <linearGradient id="paint0_linear_2614_862" x1="-37" y1="12" x2="178.258" y2="-11.5556" gradientUnits="userSpaceOnUse">
            <stop offset="0.0888849" stop-color="#FD73C5" />
            <stop offset="0.287162" stop-color="#FFE04A" />
            <stop offset="0.546875" stop-color="#16E912" />
            <stop offset="0.734375" stop-color="#43AFDE" />
            <stop offset="1" stop-color="#037FF3" />
        </linearGradient>
    </defs>
</svg>
    